SplineFontDB: 3.2
FontName: hin58m
FullName: hin58m
FamilyName: hin58m
Weight: Book
Copyright: Copyright 2022 The Noto Project Authors (https://github.com/notofonts/devanagari)
Version: 2.003
ItalicAngle: 0
UnderlinePosition: -125
UnderlineWidth: 50
Ascent: 800
Descent: 200
InvalidEm: 0
sfntRevision: 0x000200c5
LayerCount: 2
Layer: 0 1 "Back" 1
Layer: 1 1 "Fore" 0
XUID: [1021 467 -1121320856 11144362]
StyleMap: 0x0040
FSType: 0
OS2Version: 4
OS2_WeightWidthSlopeOnly: 0
OS2_UseTypoMetrics: 1
CreationTime: 1432194851
ModificationTime: 1679699867
PfmFamily: 81
TTFWeight: 400
TTFWidth: 5
LineGap: 0
VLineGap: 0
Panose: 0 0 0 0 0 0 0 0 0 0
OS2TypoAscent: 896
OS2TypoAOffset: 0
OS2TypoDescent: -408
OS2TypoDOffset: 0
OS2TypoLinegap: 0
OS2WinAscent: 896
OS2WinAOffset: 0
OS2WinDescent: 408
OS2WinDOffset: 0
HheadAscent: 896
HheadAOffset: 0
HheadDescent: -408
HheadDOffset: 0
OS2SubXSize: 650
OS2SubYSize: 600
OS2SubXOff: 0
OS2SubYOff: 75
OS2SupXSize: 650
OS2SupYSize: 600
OS2SupXOff: 0
OS2SupYOff: 350
OS2StrikeYSize: 50
OS2StrikeYPos: 322
OS2CapHeight: 622
OS2XHeight: 536
OS2Vendor: 'GOOG'
OS2CodePages: 00000093.00000000
OS2UnicodeRanges: 80008023.00002046.00000000.00000000
Lookup: 1 0 0 "'aalt' Access All Alternates in Devanagari2 lookup 0" { "'aalt' Access All Alternates in Devanagari2 lookup 0 subtable"  } ['aalt' ('DFLT' <'dflt' > 'dev2' <'MAR ' 'NEP ' 'dflt' > 'latn' <'MOL ' 'ROM ' > ) ]
Lookup: 1 0 0 "Single Substitution lookup 1" { "Single Substitution lookup 1 subtable"  } []
Lookup: 1 0 0 "Single Substitution lookup 2" { "Single Substitution lookup 2 subtable"  } []
Lookup: 1 0 0 "Single Substitution lookup 3" { "Single Substitution lookup 3 subtable"  } []
Lookup: 1 0 0 "Single Substitution lookup 4" { "Single Substitution lookup 4 subtable"  } []
Lookup: 1 0 0 "Single Substitution lookup 5" { "Single Substitution lookup 5 subtable"  } []
Lookup: 1 0 0 "Single Substitution lookup 6" { "Single Substitution lookup 6 subtable"  } []

StartChar: exclam.deva
Encoding: 33 33 3
Width: 771
Flags: W
LayerCount: 2
Fore
SplineSet
318.252929688 202 m 5,0,-1
 291.833984375 714 l 5,1,-1
 471.817382812 714 l 5,2,-1
 445.3984375 202 l 5,3,-1
 318.252929688 202 l 5,0,-1
381 -10 m 260,4,5
 338.068359375 -10 338.068359375 -10 308.345703125 6 c 132,-1,6
 278.624023438 22 278.624023438 22 278.624023438 58 c 4,7,8
 278.624023438 96 278.624023438 96 308.345703125 111 c 132,-1,9
 338.068359375 126 338.068359375 126 381 126 c 260,10,11
 423.931640625 126 423.931640625 126 453.654296875 111 c 132,-1,12
 483.375976562 96 483.375976562 96 483.375976562 58 c 4,13,14
 483.375976562 22 483.375976562 22 453.654296875 6 c 132,-1,15
 423.931640625 -10 423.931640625 -10 381 -10 c 260,4,5
EndSplineSet
EndChar

StartChar: quotedbl.deva
Encoding: 34 34 4
Width: 771
Flags: W
LayerCount: 2
Fore
SplineSet
383.525390625 456 m 1,0,-1
 357.825195312 714 l 1,1,-1
 479.900390625 714 l 1,2,-1
 454.200195312 456 l 1,3,-1
 383.525390625 456 l 1,0,-1
145.799804688 456 m 1,4,-1
 120.099609375 714 l 1,5,-1
 242.174804688 714 l 1,6,-1
 216.474609375 456 l 1,7,-1
 145.799804688 456 l 1,4,-1
EndSplineSet
EndChar

StartChar: numbersign.deva
Encoding: 35 35 5
Width: 771
Flags: W
LayerCount: 2
Fore
SplineSet
44.28515625 0 m 1,0,-1
 93.115234375 209 l 1,1,-1
 -59.7998046875 209 l 1,2,-1
 -59.7998046875 276 l 1,3,-1
 109.8203125 276 l 1,4,-1
 150.940429688 436 l 1,5,-1
 -12.2548828125 436 l 1,6,-1
 -12.2548828125 502 l 1,7,-1
 166.360351562 502 l 1,8,-1
 217.759765625 714 l 1,9,-1
 310.280273438 714 l 1,10,-1
 258.879882812 502 l 1,11,-1
 418.219726562 502 l 1,12,-1
 469.620117188 714 l 1,13,-1
 558.28515625 714 l 1,14,-1
 506.884765625 502 l 1,15,-1
 659.799804688 502 l 1,16,-1
 659.799804688 436 l 1,17,-1
 490.1796875 436 l 1,18,-1
 450.344726562 276 l 1,19,-1
 616.110351562 276 l 1,20,-1
 616.110351562 209 l 1,21,-1
 433.639648438 209 l 1,22,-1
 380.955078125 0 l 1,23,-1
 289.719726562 0 l 1,24,-1
 342.405273438 209 l 1,25,-1
 184.349609375 209 l 1,26,-1
 134.235351562 0 l 1,27,-1
 44.28515625 0 l 1,0,-1
201.0546875 276 m 1,28,-1
 359.110351562 276 l 1,29,-1
 398.9453125 436 l 1,30,-1
 240.889648438 436 l 1,31,-1
 201.0546875 276 l 1,28,-1
EndSplineSet
EndChar

StartChar: percent.deva
Encoding: 37 37 6
Width: 771
Flags: W
LayerCount: 2
Fore
SplineSet
21.1552734375 0 m 1,0,-1
 478.615234375 714 l 1,1,-1
 577.559570312 714 l 1,2,-1
 120.099609375 0 l 1,3,-1
 21.1552734375 0 l 1,0,-1
500.459960938 -9 m 0,4,5
 422.075195312 -9 422.075195312 -9 370.032226562 35.5 c 128,-1,6
 317.990234375 80 317.990234375 80 317.990234375 161 c 256,7,8
 317.990234375 242 317.990234375 242 367.462890625 286 c 128,-1,9
 416.934570312 330 416.934570312 330 503.030273438 330 c 0,10,11
 581.415039062 330 581.415039062 330 633.45703125 286 c 128,-1,12
 685.5 242 685.5 242 685.5 161 c 256,13,14
 685.5 80 685.5 80 635.384765625 35.5 c 128,-1,15
 585.26953125 -9 585.26953125 -9 500.459960938 -9 c 0,4,5
501.745117188 49 m 256,16,17
 545.434570312 49 545.434570312 49 567.280273438 76 c 128,-1,18
 589.125 103 589.125 103 589.125 161 c 0,19,20
 589.125 220 589.125 220 567.280273438 245.5 c 128,-1,21
 545.434570312 271 545.434570312 271 501.745117188 271 c 256,22,23
 458.0546875 271 458.0546875 271 435.567382812 245.5 c 128,-1,24
 413.080078125 220 413.080078125 220 413.080078125 161 c 0,25,26
 413.080078125 103 413.080078125 103 435.567382812 76 c 128,-1,27
 458.0546875 49 458.0546875 49 501.745117188 49 c 256,16,17
96.9697265625 383 m 0,28,29
 18.5849609375 383 18.5849609375 383 -33.45703125 427.5 c 128,-1,30
 -85.5 472 -85.5 472 -85.5 553 c 256,31,32
 -85.5 634 -85.5 634 -36.02734375 678 c 128,-1,33
 13.4453125 722 13.4453125 722 99.5400390625 722 c 0,34,35
 177.924804688 722 177.924804688 722 229.967773438 678 c 128,-1,36
 282.009765625 634 282.009765625 634 282.009765625 553 c 256,37,38
 282.009765625 472 282.009765625 472 231.89453125 427.5 c 128,-1,39
 181.780273438 383 181.780273438 383 96.9697265625 383 c 0,28,29
98.2548828125 441 m 256,40,41
 141.9453125 441 141.9453125 441 163.790039062 468 c 128,-1,42
 185.634765625 495 185.634765625 495 185.634765625 553 c 0,43,44
 185.634765625 612 185.634765625 612 163.790039062 637.5 c 128,-1,45
 141.9453125 663 141.9453125 663 98.2548828125 663 c 256,46,47
 54.5654296875 663 54.5654296875 663 32.0771484375 637.5 c 128,-1,48
 9.58984375 612 9.58984375 612 9.58984375 553 c 0,49,50
 9.58984375 495 9.58984375 495 32.0771484375 468 c 128,-1,51
 54.5654296875 441 54.5654296875 441 98.2548828125 441 c 256,40,41
EndSplineSet
EndChar

StartChar: quotesingle.deva
Encoding: 39 39 7
Width: 771
Flags: W
LayerCount: 2
Fore
SplineSet
264.162109375 456 m 1,0,-1
 238.462890625 714 l 1,1,-1
 360.537109375 714 l 1,2,-1
 334.837890625 456 l 1,3,-1
 264.162109375 456 l 1,0,-1
EndSplineSet
EndChar

StartChar: parenleft.deva
Encoding: 40 40 8
Width: 771
Flags: W
LayerCount: 2
Fore
SplineSet
356.120117188 -158 m 1,0,1
 258.459960938 -70 258.459960938 -70 212.842773438 41.5 c 128,-1,2
 167.224609375 153 167.224609375 153 167.224609375 274 c 0,3,4
 167.224609375 396 167.224609375 396 212.842773438 509.5 c 128,-1,5
 258.459960938 623 258.459960938 623 356.120117188 714 c 1,6,-1
 462.775390625 714 l 1,7,8
 372.825195312 620 372.825195312 620 327.20703125 507 c 128,-1,9
 281.58984375 394 281.58984375 394 281.58984375 275 c 0,10,11
 281.58984375 159 281.58984375 159 327.20703125 47.5 c 128,-1,12
 372.825195312 -64 372.825195312 -64 461.490234375 -158 c 1,13,-1
 356.120117188 -158 l 1,0,1
EndSplineSet
EndChar

StartChar: parenright.deva
Encoding: 41 41 9
Width: 771
Flags: W
LayerCount: 2
Fore
SplineSet
243.879882812 714 m 1,0,1
 341.540039062 626 341.540039062 626 387.157226562 514.5 c 128,-1,2
 432.775390625 403 432.775390625 403 432.775390625 282 c 0,3,4
 432.775390625 160 432.775390625 160 387.157226562 46.5 c 128,-1,5
 341.540039062 -67 341.540039062 -67 243.879882812 -158 c 1,6,-1
 137.224609375 -158 l 1,7,8
 227.174804688 -64 227.174804688 -64 272.79296875 49.5 c 128,-1,9
 318.41015625 163 318.41015625 163 318.41015625 281 c 0,10,11
 318.41015625 397 318.41015625 397 272.79296875 508.5 c 128,-1,12
 227.174804688 620 227.174804688 620 138.509765625 714 c 1,13,-1
 243.879882812 714 l 1,0,1
EndSplineSet
EndChar

StartChar: asterisk.deva
Encoding: 42 42 10
Width: 771
Flags: W
LayerCount: 2
Fore
SplineSet
403.657226562 334 m 1,0,-1
 299.572265625 489 l 1,1,-1
 196.772460938 335 l 1,2,-1
 101.682617188 382 l 1,3,-1
 237.892578125 516 l 1,4,-1
 29.72265625 537 l 1,5,-1
 47.712890625 612 l 1,6,-1
 266.162109375 569 l 1,7,-1
 248.172851562 746 l 1,8,-1
 349.6875 746 l 1,9,-1
 334.267578125 569 l 1,10,-1
 554.002929688 616 l 1,11,-1
 573.27734375 534 l 1,12,-1
 366.392578125 514 l 1,13,-1
 502.602539062 381 l 1,14,-1
 403.657226562 334 l 1,0,-1
EndSplineSet
EndChar

StartChar: plus.deva
Encoding: 43 43 11
Width: 771
Flags: W
LayerCount: 2
Fore
SplineSet
255.025390625 121 m 1,0,-1
 255.025390625 317 l 1,1,-1
 17.2998046875 317 l 1,2,-1
 17.2998046875 388 l 1,3,-1
 255.025390625 388 l 1,4,-1
 255.025390625 585 l 1,5,-1
 347.544921875 585 l 1,6,-1
 347.544921875 388 l 1,7,-1
 582.700195312 388 l 1,8,-1
 582.700195312 317 l 1,9,-1
 347.544921875 317 l 1,10,-1
 347.544921875 121 l 1,11,-1
 255.025390625 121 l 1,0,-1
EndSplineSet
EndChar

StartChar: comma.deva
Encoding: 44 44 12
Width: 771
Flags: W
LayerCount: 2
Fore
SplineSet
186.91796875 -140 m 1,0,1
 201.052734375 -96 201.052734375 -96 213.90234375 -48.5 c 128,-1,2
 226.752929688 -1 226.752929688 -1 238.317382812 45 c 128,-1,3
 249.8828125 91 249.8828125 91 256.307617188 129 c 1,4,-1
 393.802734375 129 l 1,5,-1
 404.08203125 117 l 1,6,7
 395.087890625 88 395.087890625 88 380.952148438 55.5 c 128,-1,8
 366.817382812 23 366.817382812 23 350.754882812 -10.5 c 128,-1,9
 334.692382812 -44 334.692382812 -44 317.344726562 -77 c 128,-1,10
 299.997070312 -110 299.997070312 -110 282.0078125 -140 c 1,11,-1
 186.91796875 -140 l 1,0,1
EndSplineSet
EndChar

StartChar: hyphen.deva
Encoding: 45 45 13
Width: 771
Flags: W
LayerCount: 2
Fore
SplineSet
107.25 230 m 1,0,-1
 107.25 310 l 1,1,-1
 492.75 310 l 1,2,-1
 492.75 230 l 1,3,-1
 107.25 230 l 1,0,-1
EndSplineSet
EndChar

StartChar: period.deva
Encoding: 46 46 14
Width: 771
Flags: W
LayerCount: 2
Fore
SplineSet
300 -10 m 256,0,1
 266.58984375 -10 266.58984375 -10 243.459960938 6 c 128,-1,2
 220.330078125 22 220.330078125 22 220.330078125 58 c 0,3,4
 220.330078125 96 220.330078125 96 243.459960938 111 c 128,-1,5
 266.58984375 126 266.58984375 126 300 126 c 256,6,7
 333.41015625 126 333.41015625 126 356.540039062 111 c 128,-1,8
 379.669921875 96 379.669921875 96 379.669921875 58 c 0,9,10
 379.669921875 22 379.669921875 22 356.540039062 6 c 128,-1,11
 333.41015625 -10 333.41015625 -10 300 -10 c 256,0,1
EndSplineSet
EndChar

StartChar: slash.deva
Encoding: 47 47 15
Width: 771
Flags: W
LayerCount: 2
Fore
SplineSet
68.7001953125 0 m 1,0,-1
 420.790039062 714 l 1,1,-1
 531.299804688 714 l 1,2,-1
 179.209960938 0 l 1,3,-1
 68.7001953125 0 l 1,0,-1
EndSplineSet
EndChar

StartChar: zero.deva
Encoding: 48 48 16
Width: 771
Flags: W
LayerCount: 2
Fore
SplineSet
298.71484375 -10 m 0,0,1
 192.059570312 -10 192.059570312 -10 123.955078125 34 c 128,-1,2
 55.849609375 78 55.849609375 78 23.724609375 160.5 c 128,-1,3
 -8.400390625 243 -8.400390625 243 -8.400390625 358 c 0,4,5
 -8.400390625 474 -8.400390625 474 22.4404296875 555.5 c 128,-1,6
 53.2802734375 637 53.2802734375 637 120.7421875 680.5 c 128,-1,7
 188.205078125 724 188.205078125 724 298.71484375 724 c 0,8,9
 406.655273438 724 406.655273438 724 475.40234375 681 c 128,-1,10
 544.150390625 638 544.150390625 638 576.275390625 556 c 128,-1,11
 608.400390625 474 608.400390625 474 608.400390625 358 c 0,12,13
 608.400390625 271 608.400390625 271 591.052734375 203 c 128,-1,14
 573.705078125 135 573.705078125 135 537.08203125 87.5 c 128,-1,15
 500.459960938 40 500.459960938 40 441.349609375 15 c 128,-1,16
 382.240234375 -10 382.240234375 -10 298.71484375 -10 c 0,0,1
152.224609375 100 m 1,17,-1
 76.41015625 152 l 1,18,-1
 436.209960938 626 l 1,19,-1
 503.030273438 560 l 1,20,-1
 152.224609375 100 l 1,17,-1
298.71484375 69 m 0,21,22
 404.084960938 69 404.084960938 69 454.200195312 139.5 c 128,-1,23
 504.315429688 210 504.315429688 210 504.315429688 358 c 0,24,25
 504.315429688 453 504.315429688 453 482.469726562 516.5 c 128,-1,26
 460.625 580 460.625 580 415.0078125 612.5 c 128,-1,27
 369.389648438 645 369.389648438 645 298.71484375 645 c 0,28,29
 229.325195312 645 229.325195312 645 185.634765625 614 c 128,-1,30
 141.9453125 583 141.9453125 583 120.7421875 519.5 c 128,-1,31
 99.5400390625 456 99.5400390625 456 99.5400390625 358 c 0,32,33
 99.5400390625 219 99.5400390625 219 145.157226562 144 c 128,-1,34
 190.775390625 69 190.775390625 69 298.71484375 69 c 0,21,22
EndSplineSet
EndChar

StartChar: one.deva
Encoding: 49 49 17
Width: 771
Flags: W
LayerCount: 2
Fore
SplineSet
275.732421875 446 m 2,0,1
 275.732421875 474 275.732421875 474 276.375 506.5 c 128,-1,2
 277.017578125 539 277.017578125 539 278.302734375 569.5 c 128,-1,3
 279.587890625 600 279.587890625 600 280.872070312 622 c 1,4,5
 260.3125 613 260.3125 613 243.607421875 607 c 128,-1,6
 226.90234375 601 226.90234375 601 193.4921875 588 c 2,7,-1
 86.837890625 545 l 1,8,-1
 36.72265625 613 l 1,9,-1
 292.4375 714 l 1,10,-1
 386.2421875 714 l 1,11,-1
 386.2421875 0 l 1,12,-1
 275.732421875 0 l 1,13,-1
 275.732421875 446 l 2,0,1
82.982421875 0 m 1,14,-1
 82.982421875 60 l 1,15,-1
 275.732421875 70 l 1,16,-1
 386.2421875 70 l 1,17,-1
 580.27734375 60 l 1,18,-1
 580.27734375 0 l 1,19,-1
 82.982421875 0 l 1,14,-1
EndSplineSet
EndChar

StartChar: two.deva
Encoding: 50 50 18
Width: 771
Flags: W
LayerCount: 2
Fore
SplineSet
2.3125 0 m 1,0,-1
 2.3125 76 l 1,1,-1
 246.462890625 263 l 2,2,3
 310.712890625 312 310.712890625 312 355.6875 354.5 c 128,-1,4
 400.662109375 397 400.662109375 397 424.434570312 438 c 128,-1,5
 448.20703125 479 448.20703125 479 448.20703125 524 c 0,6,7
 448.20703125 588 448.20703125 588 403.232421875 616.5 c 128,-1,8
 358.2578125 645 358.2578125 645 288.8671875 645 c 0,9,10
 228.47265625 645 228.47265625 645 175.14453125 626 c 128,-1,11
 121.817382812 607 121.817382812 607 75.5576171875 578 c 1,12,-1
 11.3076171875 640 l 1,13,14
 46.0029296875 664 46.0029296875 664 88.4072265625 683 c 128,-1,15
 130.8125 702 130.8125 702 182.212890625 713 c 128,-1,16
 233.612304688 724 233.612304688 724 292.72265625 724 c 0,17,18
 374.962890625 724 374.962890625 724 436 701 c 128,-1,19
 497.037109375 678 497.037109375 678 530.447265625 634.5 c 128,-1,20
 563.857421875 591 563.857421875 591 563.857421875 527 c 0,21,22
 563.857421875 473 563.857421875 473 538.799804688 424.5 c 128,-1,23
 513.7421875 376 513.7421875 376 466.83984375 329.5 c 128,-1,24
 419.9375 283 419.9375 283 354.40234375 233 c 2,25,-1
 157.797851562 84 l 1,26,-1
 157.797851562 80 l 1,27,-1
 612.6875 80 l 1,28,-1
 612.6875 0 l 1,29,-1
 2.3125 0 l 1,0,-1
EndSplineSet
EndChar

StartChar: three.deva
Encoding: 51 51 19
Width: 771
Flags: W
LayerCount: 2
Fore
SplineSet
250.02734375 -10 m 0,0,1
 194.772460938 -10 194.772460938 -10 130.522460938 -1.5 c 128,-1,2
 66.2724609375 7 66.2724609375 7 9.732421875 29 c 1,3,-1
 9.732421875 114 l 1,4,5
 66.2724609375 92 66.2724609375 92 131.807617188 80.5 c 128,-1,6
 197.342773438 69 197.342773438 69 257.737304688 69 c 0,7,8
 369.532226562 69 369.532226562 69 420.932617188 106 c 128,-1,9
 472.33203125 143 472.33203125 143 472.33203125 203 c 0,10,11
 472.33203125 249 472.33203125 249 444.705078125 276.5 c 128,-1,12
 417.077148438 304 417.077148438 304 365.677734375 316.5 c 128,-1,13
 314.27734375 329 314.27734375 329 239.747070312 329 c 2,14,-1
 144.657226562 329 l 1,15,-1
 144.657226562 409 l 1,16,-1
 239.747070312 409 l 2,17,18
 306.567382812 409 306.567382812 409 351.54296875 425.5 c 128,-1,19
 396.517578125 442 396.517578125 442 420.290039062 471.5 c 128,-1,20
 444.0625 501 444.0625 501 444.0625 539 c 0,21,22
 444.0625 589 444.0625 589 403.584960938 617 c 128,-1,23
 363.107421875 645 363.107421875 645 284.72265625 645 c 0,24,25
 219.1875 645 219.1875 645 164.575195312 627.5 c 128,-1,26
 109.962890625 610 109.962890625 610 71.412109375 590 c 1,27,-1
 13.587890625 651 l 1,28,29
 62.41796875 681 62.41796875 681 133.092773438 702.5 c 128,-1,30
 203.767578125 724 203.767578125 724 292.432617188 724 c 256,31,32
 381.09765625 724 381.09765625 724 440.849609375 701 c 128,-1,33
 500.602539062 678 500.602539062 678 530.799804688 638.5 c 128,-1,34
 560.997070312 599 560.997070312 599 560.997070312 547 c 0,35,36
 560.997070312 499 560.997070312 499 537.224609375 463.5 c 128,-1,37
 513.452148438 428 513.452148438 428 470.405273438 406 c 128,-1,38
 427.357421875 384 427.357421875 384 369.532226562 376 c 1,39,-1
 369.532226562 373 l 1,40,41
 441.4921875 366 441.4921875 366 490.322265625 344 c 128,-1,42
 539.15234375 322 539.15234375 322 564.209960938 285.5 c 128,-1,43
 589.267578125 249 589.267578125 249 589.267578125 198 c 0,44,45
 589.267578125 138 589.267578125 138 553.287109375 91 c 128,-1,46
 517.307617188 44 517.307617188 44 442.77734375 17 c 128,-1,47
 368.247070312 -10 368.247070312 -10 250.02734375 -10 c 0,0,1
EndSplineSet
EndChar

StartChar: four.deva
Encoding: 52 52 20
Width: 771
Flags: W
LayerCount: 2
Fore
SplineSet
377.099609375 0 m 1,0,-1
 377.099609375 160 l 1,1,-1
 -21.25 160 l 1,2,-1
 -21.25 234 l 1,3,-1
 356.540039062 718 l 1,4,-1
 487.610351562 718 l 1,5,-1
 487.610351562 237 l 1,6,-1
 621.25 237 l 1,7,-1
 621.25 160 l 1,8,-1
 487.610351562 160 l 1,9,-1
 487.610351562 0 l 1,10,-1
 377.099609375 0 l 1,0,-1
90.544921875 237 m 1,11,-1
 377.099609375 237 l 1,12,-1
 377.099609375 415 l 2,13,14
 377.099609375 442 377.099609375 442 377.7421875 472 c 128,-1,15
 378.384765625 502 378.384765625 502 379.669921875 531 c 128,-1,16
 380.955078125 560 380.955078125 560 382.240234375 584.5 c 128,-1,17
 383.525390625 609 383.525390625 609 384.809570312 626 c 1,18,-1
 379.669921875 626 l 1,19,20
 370.674804688 607 370.674804688 607 353.327148438 581 c 128,-1,21
 335.98046875 555 335.98046875 555 323.129882812 538 c 2,22,-1
 90.544921875 237 l 1,11,-1
EndSplineSet
EndChar

StartChar: five.deva
Encoding: 53 53 21
Width: 771
Flags: W
LayerCount: 2
Fore
SplineSet
244.887695312 -10 m 0,0,1
 184.4921875 -10 184.4921875 -10 122.8125 0 c 128,-1,2
 61.1328125 10 61.1328125 10 17.4423828125 29 c 1,3,-1
 17.4423828125 114 l 1,4,5
 61.1328125 92 61.1328125 92 117.672851562 80.5 c 128,-1,6
 174.212890625 69 174.212890625 69 234.607421875 69 c 0,7,8
 342.547851562 69 342.547851562 69 402.942382812 104.5 c 128,-1,9
 463.337890625 140 463.337890625 140 463.337890625 214 c 0,10,11
 463.337890625 264 463.337890625 264 436.352539062 297.5 c 128,-1,12
 409.3671875 331 409.3671875 331 359.89453125 348 c 128,-1,13
 310.422851562 365 310.422851562 365 243.602539062 365 c 0,14,15
 207.622070312 365 207.622070312 365 166.502929688 360.5 c 128,-1,16
 125.3828125 356 125.3828125 356 93.2578125 350 c 1,17,-1
 36.7177734375 378 l 1,18,-1
 71.412109375 714 l 1,19,-1
 528.872070312 714 l 1,20,-1
 528.872070312 634 l 1,21,-1
 170.357421875 634 l 1,22,-1
 145.942382812 428 l 1,23,24
 172.927734375 433 172.927734375 433 212.120117188 435.5 c 128,-1,25
 251.3125 438 251.3125 438 280.8671875 438 c 0,26,27
 364.392578125 438 364.392578125 438 432.497070312 414 c 128,-1,28
 500.602539062 390 500.602539062 390 541.080078125 341.5 c 128,-1,29
 581.557617188 293 581.557617188 293 581.557617188 220 c 0,30,31
 581.557617188 150 581.557617188 150 542.365234375 98.5 c 128,-1,32
 503.172851562 47 503.172851562 47 428 18.5 c 128,-1,33
 352.827148438 -10 352.827148438 -10 244.887695312 -10 c 0,0,1
EndSplineSet
EndChar

StartChar: six.deva
Encoding: 54 54 22
Width: 771
Flags: W
LayerCount: 2
Fore
SplineSet
310.280273438 -10 m 0,0,1
 237.03515625 -10 237.03515625 -10 177.924804688 9.5 c 128,-1,2
 118.815429688 29 118.815429688 29 77.6953125 68.5 c 128,-1,3
 36.5751953125 108 36.5751953125 108 14.087890625 168 c 128,-1,4
 -8.400390625 228 -8.400390625 228 -8.400390625 308 c 0,5,6
 -8.400390625 385 -8.400390625 385 8.947265625 459 c 128,-1,7
 26.294921875 533 26.294921875 533 72.5546875 593 c 128,-1,8
 118.815429688 653 118.815429688 653 202.33984375 688.5 c 128,-1,9
 285.865234375 724 285.865234375 724 418.219726562 724 c 0,10,11
 443.919921875 724 443.919921875 724 477.97265625 722 c 128,-1,12
 512.025390625 720 512.025390625 720 532.584960938 715 c 1,13,-1
 532.584960938 636 l 1,14,15
 510.740234375 642 510.740234375 642 481.184570312 645 c 128,-1,16
 451.629882812 648 451.629882812 648 422.075195312 648 c 0,17,18
 329.5546875 648 329.5546875 648 269.16015625 625.5 c 128,-1,19
 208.764648438 603 208.764648438 603 174.0703125 564 c 128,-1,20
 139.375 525 139.375 525 123.955078125 473.5 c 128,-1,21
 108.53515625 422 108.53515625 422 105.96484375 364 c 1,22,-1
 113.674804688 364 l 1,23,24
 130.379882812 389 130.379882812 389 159.934570312 409 c 128,-1,25
 189.490234375 429 189.490234375 429 231.89453125 440.5 c 128,-1,26
 274.299804688 452 274.299804688 452 328.26953125 452 c 0,27,28
 456.76953125 452 456.76953125 452 532.584960938 394 c 128,-1,29
 608.400390625 336 608.400390625 336 608.400390625 230 c 0,30,31
 608.400390625 156 608.400390625 156 571.77734375 102 c 128,-1,32
 535.155273438 48 535.155273438 48 468.334960938 19 c 128,-1,33
 401.514648438 -10 401.514648438 -10 310.280273438 -10 c 0,0,1
308.995117188 65 m 0,34,35
 392.51953125 65 392.51953125 65 445.205078125 103.5 c 128,-1,36
 497.889648438 142 497.889648438 142 497.889648438 230 c 0,37,38
 497.889648438 304 497.889648438 304 450.987304688 343 c 128,-1,39
 404.084960938 382 404.084960938 382 312.849609375 382 c 0,40,41
 251.169921875 382 251.169921875 382 204.267578125 362 c 128,-1,42
 157.365234375 342 157.365234375 342 131.665039062 311 c 128,-1,43
 105.96484375 280 105.96484375 280 105.96484375 247 c 0,44,45
 105.96484375 221 105.96484375 221 114.317382812 195 c 128,-1,46
 122.669921875 169 122.669921875 169 138.732421875 145.5 c 128,-1,47
 154.794921875 122 154.794921875 122 179.209960938 104 c 128,-1,48
 203.625 86 203.625 86 236.392578125 75.5 c 128,-1,49
 269.16015625 65 269.16015625 65 308.995117188 65 c 0,34,35
EndSplineSet
EndChar

StartChar: seven.deva
Encoding: 55 55 23
Width: 771
Flags: W
LayerCount: 2
Fore
SplineSet
138.08984375 0 m 1,0,-1
 491.46484375 634 l 1,1,-1
 -8.400390625 634 l 1,2,-1
 -8.400390625 714 l 1,3,-1
 608.400390625 714 l 1,4,-1
 608.400390625 643 l 1,5,-1
 260.165039062 0 l 1,6,-1
 138.08984375 0 l 1,0,-1
EndSplineSet
EndChar

StartChar: eight.deva
Encoding: 56 56 24
Width: 771
Flags: W
LayerCount: 2
Fore
SplineSet
293.717773438 -10 m 0,0,1
 205.052734375 -10 205.052734375 -10 139.517578125 13 c 128,-1,2
 73.982421875 36 73.982421875 36 38.0029296875 78.5 c 128,-1,3
 2.0224609375 121 2.0224609375 121 2.0224609375 179 c 0,4,5
 2.0224609375 230 2.0224609375 230 27.72265625 266.5 c 128,-1,6
 53.4228515625 303 53.4228515625 303 95.8271484375 329.5 c 128,-1,7
 138.232421875 356 138.232421875 356 189.6328125 374 c 1,8,9
 148.512695312 393 148.512695312 393 111.889648438 418.5 c 128,-1,10
 75.267578125 444 75.267578125 444 53.4228515625 477.5 c 128,-1,11
 31.5771484375 511 31.5771484375 511 31.5771484375 554 c 0,12,13
 31.5771484375 610 31.5771484375 610 68.8427734375 648 c 128,-1,14
 106.107421875 686 106.107421875 686 167.787109375 705 c 128,-1,15
 229.467773438 724 229.467773438 724 301.427734375 724 c 256,16,17
 373.387695312 724 373.387695312 724 433.782226562 705 c 128,-1,18
 494.177734375 686 494.177734375 686 530.799804688 648 c 128,-1,19
 567.422851562 610 567.422851562 610 567.422851562 554 c 0,20,21
 567.422851562 488 567.422851562 488 517.950195312 446.5 c 128,-1,22
 468.477539062 405 468.477539062 405 393.947265625 378 c 1,23,24
 450.487304688 356 450.487304688 356 496.747070312 328.5 c 128,-1,25
 543.0078125 301 543.0078125 301 569.9921875 265 c 128,-1,26
 596.977539062 229 596.977539062 229 596.977539062 180 c 0,27,28
 596.977539062 125 596.977539062 125 559.712890625 82 c 128,-1,29
 522.447265625 39 522.447265625 39 454.985351562 14.5 c 128,-1,30
 387.522460938 -10 387.522460938 -10 293.717773438 -10 c 0,0,1
297.572265625 63 m 0,31,32
 388.807617188 63 388.807617188 63 436.995117188 97.5 c 128,-1,33
 485.182617188 132 485.182617188 132 485.182617188 185 c 0,34,35
 485.182617188 221 485.182617188 221 462.6953125 246 c 128,-1,36
 440.20703125 271 440.20703125 271 395.875 293 c 128,-1,37
 351.54296875 315 351.54296875 315 283.4375 340 c 1,38,39
 232.037109375 322 232.037109375 322 194.129882812 299.5 c 128,-1,40
 156.22265625 277 156.22265625 277 135.662109375 247.5 c 128,-1,41
 115.102539062 218 115.102539062 218 115.102539062 180 c 0,42,43
 115.102539062 129 115.102539062 129 158.79296875 96 c 128,-1,44
 202.482421875 63 202.482421875 63 297.572265625 63 c 0,31,32
301.427734375 414 m 1,45,46
 345.1171875 429 345.1171875 429 379.8125 447 c 128,-1,47
 414.5078125 465 414.5078125 465 435.067382812 490 c 128,-1,48
 455.627929688 515 455.627929688 515 455.627929688 549 c 0,49,50
 455.627929688 598 455.627929688 598 413.22265625 623.5 c 128,-1,51
 370.817382812 649 370.817382812 649 298.857421875 649 c 0,52,53
 228.182617188 649 228.182617188 649 185.77734375 624 c 128,-1,54
 143.372070312 599 143.372070312 599 143.372070312 549 c 0,55,56
 143.372070312 512 143.372070312 512 166.502929688 487 c 128,-1,57
 189.6328125 462 189.6328125 462 225.612304688 445 c 128,-1,58
 261.592773438 428 261.592773438 428 301.427734375 414 c 1,45,46
EndSplineSet
EndChar

StartChar: nine.deva
Encoding: 57 57 25
Width: 771
Flags: W
LayerCount: 2
Fore
SplineSet
193.344726562 -10 m 0,0,1
 163.790039062 -10 163.790039062 -10 132.950195312 -7.5 c 128,-1,2
 102.110351562 -5 102.110351562 -5 80.2646484375 -1 c 1,3,-1
 80.2646484375 78 l 1,4,5
 102.110351562 72 102.110351562 72 129.737304688 69 c 128,-1,6
 157.365234375 66 157.365234375 66 188.205078125 66 c 0,7,8
 275.584960938 66 275.584960938 66 333.41015625 88.5 c 128,-1,9
 391.235351562 111 391.235351562 111 425.287109375 150.5 c 128,-1,10
 459.33984375 190 459.33984375 190 475.40234375 241 c 128,-1,11
 491.46484375 292 491.46484375 292 494.03515625 350 c 1,12,-1
 486.325195312 350 l 1,13,14
 469.620117188 325 469.620117188 325 439.422851562 305 c 128,-1,15
 409.224609375 285 409.224609375 285 367.462890625 273.5 c 128,-1,16
 325.700195312 262 325.700195312 262 271.73046875 262 c 0,17,18
 143.23046875 262 143.23046875 262 67.4150390625 320.5 c 128,-1,19
 -8.400390625 379 -8.400390625 379 -8.400390625 488 c 0,20,21
 -8.400390625 561 -8.400390625 561 28.22265625 613.5 c 128,-1,22
 64.8447265625 666 64.8447265625 666 132.307617188 695 c 128,-1,23
 199.76953125 724 199.76953125 724 292.290039062 724 c 0,24,25
 362.96484375 724 362.96484375 724 421.432617188 705 c 128,-1,26
 479.900390625 686 479.900390625 686 521.662109375 645.5 c 128,-1,27
 563.424804688 605 563.424804688 605 585.912109375 542 c 128,-1,28
 608.400390625 479 608.400390625 479 608.400390625 391 c 0,29,30
 608.400390625 337 608.400390625 337 598.120117188 280.5 c 128,-1,31
 587.83984375 224 587.83984375 224 561.497070312 172 c 128,-1,32
 535.155273438 120 535.155273438 120 488.252929688 79 c 128,-1,33
 441.349609375 38 441.349609375 38 368.747070312 14 c 128,-1,34
 296.14453125 -10 296.14453125 -10 193.344726562 -10 c 0,0,1
283.294921875 332 m 0,35,36
 343.690429688 332 343.690429688 332 391.235351562 350.5 c 128,-1,37
 438.780273438 369 438.780273438 369 466.407226562 402 c 128,-1,38
 494.03515625 435 494.03515625 435 494.03515625 477 c 0,39,40
 494.03515625 503 494.03515625 503 481.827148438 532.5 c 128,-1,41
 469.620117188 562 469.620117188 562 445.205078125 588.5 c 128,-1,42
 420.790039062 615 420.790039062 615 382.240234375 632 c 128,-1,43
 343.690429688 649 343.690429688 649 291.004882812 649 c 0,44,45
 204.91015625 649 204.91015625 649 153.509765625 609 c 128,-1,46
 102.110351562 569 102.110351562 569 102.110351562 487 c 0,47,48
 102.110351562 406 102.110351562 406 150.297851562 369 c 128,-1,49
 198.485351562 332 198.485351562 332 283.294921875 332 c 0,35,36
EndSplineSet
EndChar

StartChar: colon.deva
Encoding: 58 58 26
Width: 771
Flags: W
LayerCount: 2
Fore
SplineSet
301.28515625 410 m 256,0,1
 267.875 410 267.875 410 244.745117188 426 c 128,-1,2
 221.615234375 442 221.615234375 442 221.615234375 478 c 0,3,4
 221.615234375 516 221.615234375 516 244.745117188 531 c 128,-1,5
 267.875 546 267.875 546 301.28515625 546 c 256,6,7
 334.6953125 546 334.6953125 546 357.182617188 531 c 128,-1,8
 379.669921875 516 379.669921875 516 379.669921875 478 c 0,9,10
 379.669921875 442 379.669921875 442 357.182617188 426 c 128,-1,11
 334.6953125 410 334.6953125 410 301.28515625 410 c 256,0,1
300 -10 m 256,12,13
 266.58984375 -10 266.58984375 -10 243.459960938 6 c 128,-1,14
 220.330078125 22 220.330078125 22 220.330078125 58 c 0,15,16
 220.330078125 96 220.330078125 96 243.459960938 111 c 128,-1,17
 266.58984375 126 266.58984375 126 300 126 c 256,18,19
 333.41015625 126 333.41015625 126 355.897460938 111 c 128,-1,20
 378.384765625 96 378.384765625 96 378.384765625 58 c 0,21,22
 378.384765625 22 378.384765625 22 355.897460938 6 c 128,-1,23
 333.41015625 -10 333.41015625 -10 300 -10 c 256,12,13
EndSplineSet
EndChar

StartChar: semicolon.deva
Encoding: 59 59 27
Width: 771
Flags: W
LayerCount: 2
Fore
SplineSet
186.205078125 -140 m 1,0,1
 200.33984375 -96 200.33984375 -96 213.190429688 -48.5 c 128,-1,2
 226.040039062 -1 226.040039062 -1 237.60546875 45 c 128,-1,3
 249.169921875 91 249.169921875 91 255.594726562 129 c 1,4,-1
 393.08984375 129 l 1,5,-1
 403.370117188 117 l 1,6,7
 394.375 88 394.375 88 380.240234375 55.5 c 128,-1,8
 366.10546875 23 366.10546875 23 350.04296875 -10.5 c 128,-1,9
 333.98046875 -44 333.98046875 -44 316.6328125 -77 c 128,-1,10
 299.28515625 -110 299.28515625 -110 281.294921875 -140 c 1,11,-1
 186.205078125 -140 l 1,0,1
330.125 410 m 256,12,13
 296.71484375 410 296.71484375 410 273.584960938 426 c 128,-1,14
 250.455078125 442 250.455078125 442 250.455078125 478 c 0,15,16
 250.455078125 516 250.455078125 516 273.584960938 531 c 128,-1,17
 296.71484375 546 296.71484375 546 330.125 546 c 256,18,19
 363.53515625 546 363.53515625 546 386.665039062 531 c 128,-1,20
 409.794921875 516 409.794921875 516 409.794921875 478 c 0,21,22
 409.794921875 442 409.794921875 442 386.665039062 426 c 128,-1,23
 363.53515625 410 363.53515625 410 330.125 410 c 256,12,13
EndSplineSet
EndChar

StartChar: less.deva
Encoding: 60 60 28
Width: 771
Flags: W
LayerCount: 2
Fore
SplineSet
569.849609375 116 m 1,0,-1
 30.150390625 323 l 1,1,-1
 30.150390625 373 l 1,2,-1
 569.849609375 608 l 1,3,-1
 569.849609375 530 l 1,4,-1
 150.940429688 351 l 1,5,-1
 569.849609375 194 l 1,6,-1
 569.849609375 116 l 1,0,-1
EndSplineSet
EndChar

StartChar: equal.deva
Encoding: 61 61 29
Width: 771
Flags: W
LayerCount: 2
Fore
SplineSet
4.4501953125 407 m 1,0,-1
 4.4501953125 487 l 1,1,-1
 595.549804688 487 l 1,2,-1
 595.549804688 407 l 1,3,-1
 4.4501953125 407 l 1,0,-1
4.4501953125 217 m 1,4,-1
 4.4501953125 297 l 1,5,-1
 595.549804688 297 l 1,6,-1
 595.549804688 217 l 1,7,-1
 4.4501953125 217 l 1,4,-1
EndSplineSet
EndChar

StartChar: greater.deva
Encoding: 62 62 30
Width: 771
Flags: W
LayerCount: 2
Fore
SplineSet
30.150390625 116 m 1,0,-1
 30.150390625 194 l 1,1,-1
 449.059570312 351 l 1,2,-1
 30.150390625 530 l 1,3,-1
 30.150390625 608 l 1,4,-1
 569.849609375 373 l 1,5,-1
 569.849609375 323 l 1,6,-1
 30.150390625 116 l 1,0,-1
EndSplineSet
EndChar

StartChar: question.deva
Encoding: 63 63 31
Width: 771
Flags: W
LayerCount: 2
Fore
SplineSet
210.049804688 220 m 6,0,1
 210.049804688 258 210.049804688 258 221.615234375 286 c 132,-1,2
 233.1796875 314 233.1796875 314 262.092773438 339.5 c 132,-1,3
 291.004882812 365 291.004882812 365 339.834960938 392 c 4,4,5
 383.525390625 416 383.525390625 416 409.8671875 437 c 132,-1,6
 436.209960938 458 436.209960938 458 448.41796875 483 c 132,-1,7
 460.625 508 460.625 508 460.625 545 c 4,8,9
 460.625 589 460.625 589 418.862304688 617.5 c 132,-1,10
 377.099609375 646 377.099609375 646 297.4296875 646 c 4,11,12
 230.610351562 646 230.610351562 646 177.282226562 633.5 c 132,-1,13
 123.955078125 621 123.955078125 621 71.26953125 602 c 5,14,-1
 30.150390625 677 l 5,15,16
 82.8349609375 695 82.8349609375 695 143.872070312 709.5 c 132,-1,17
 204.91015625 724 204.91015625 724 291.004882812 724 c 260,18,19
 377.099609375 724 377.099609375 724 439.422851562 702.5 c 132,-1,20
 501.745117188 681 501.745117188 681 535.797851562 642 c 132,-1,21
 569.849609375 603 569.849609375 603 569.849609375 549 c 4,22,23
 569.849609375 502 569.849609375 502 554.4296875 468 c 132,-1,24
 539.009765625 434 539.009765625 434 507.52734375 406.5 c 132,-1,25
 476.044921875 379 476.044921875 379 425.9296875 350 c 260,26,27
 375.815429688 321 375.815429688 321 350.7578125 300.5 c 132,-1,28
 325.700195312 280 325.700195312 280 317.990234375 260 c 132,-1,29
 310.280273438 240 310.280273438 240 310.280273438 211 c 6,30,-1
 310.280273438 202 l 5,31,-1
 210.049804688 202 l 5,32,-1
 210.049804688 220 l 6,0,1
265.3046875 -10 m 260,33,34
 231.89453125 -10 231.89453125 -10 208.764648438 6 c 132,-1,35
 185.634765625 22 185.634765625 22 185.634765625 58 c 4,36,37
 185.634765625 96 185.634765625 96 208.764648438 111 c 132,-1,38
 231.89453125 126 231.89453125 126 265.3046875 126 c 260,39,40
 298.71484375 126 298.71484375 126 321.844726562 111 c 132,-1,41
 344.974609375 96 344.974609375 96 344.974609375 58 c 4,42,43
 344.974609375 22 344.974609375 22 321.844726562 6 c 132,-1,44
 298.71484375 -10 298.71484375 -10 265.3046875 -10 c 260,33,34
EndSplineSet
EndChar

StartChar: bracketleft.deva
Encoding: 91 91 32
Width: 771
Flags: W
LayerCount: 2
Fore
SplineSet
207.9375 -158 m 1,0,-1
 207.9375 714 l 1,1,-1
 497.0625 714 l 1,2,-1
 497.0625 642 l 1,3,-1
 318.447265625 642 l 1,4,-1
 318.447265625 -86 l 1,5,-1
 497.0625 -86 l 1,6,-1
 497.0625 -158 l 1,7,-1
 207.9375 -158 l 1,0,-1
EndSplineSet
EndChar

StartChar: backslash.deva
Encoding: 92 92 33
Width: 771
Flags: W
LayerCount: 2
Fore
SplineSet
604.299804688 0 m 5,0,-1
 493.790039062 0 l 5,1,-1
 141.700195312 714 l 5,2,-1
 252.209960938 714 l 5,3,-1
 604.299804688 0 l 5,0,-1
EndSplineSet
EndChar

StartChar: bracketright.deva
Encoding: 93 93 34
Width: 771
Flags: W
LayerCount: 2
Fore
SplineSet
488.0625 714 m 5,0,-1
 488.0625 -158 l 5,1,-1
 198.9375 -158 l 5,2,-1
 198.9375 -86 l 5,3,-1
 377.552734375 -86 l 5,4,-1
 377.552734375 642 l 5,5,-1
 198.9375 642 l 5,6,-1
 198.9375 714 l 5,7,-1
 488.0625 714 l 5,0,-1
EndSplineSet
EndChar

StartChar: asciicircum.deva
Encoding: 94 94 35
Width: 771
Flags: W
LayerCount: 2
Fore
SplineSet
57.75 267 m 5,0,-1
 332.740234375 719 l 5,1,-1
 396.990234375 719 l 5,2,-1
 700.25 267 l 5,3,-1
 600.01953125 267 l 5,4,-1
 366.150390625 626 l 5,5,-1
 157.98046875 267 l 5,6,-1
 57.75 267 l 5,0,-1
EndSplineSet
EndChar

StartChar: underscore.deva
Encoding: 95 95 36
Width: 771
Flags: W
LayerCount: 2
Fore
SplineSet
21.5 -154 m 1,0,-1
 21.5 -74 l 1,1,-1
 746.5 -74 l 5,2,-1
 746.5 -154 l 5,3,-1
 21.5 -154 l 1,0,-1
EndSplineSet
EndChar

StartChar: braceleft.deva
Encoding: 123 123 37
Width: 771
Flags: W
LayerCount: 2
Fore
SplineSet
494.599609375 -158 m 5,0,1
 416.21484375 -157 416.21484375 -157 359.032226562 -140 c 132,-1,2
 301.849609375 -123 301.849609375 -123 271.009765625 -87.5 c 132,-1,3
 240.169921875 -52 240.169921875 -52 240.169921875 1 c 6,4,-1
 240.169921875 148 l 6,5,6
 240.169921875 199 240.169921875 199 199.692382812 220.5 c 132,-1,7
 159.21484375 242 159.21484375 242 83.400390625 242 c 5,8,-1
 83.400390625 315 l 5,9,10
 159.21484375 316 159.21484375 316 199.692382812 337 c 132,-1,11
 240.169921875 358 240.169921875 358 240.169921875 408 c 6,12,-1
 240.169921875 556 l 6,13,14
 240.169921875 609 240.169921875 609 272.294921875 644 c 132,-1,15
 304.419921875 679 304.419921875 679 362.245117188 696.5 c 132,-1,16
 420.0703125 714 420.0703125 714 494.599609375 714 c 5,17,-1
 494.599609375 642 l 5,18,19
 450.91015625 641 450.91015625 641 418.78515625 631 c 132,-1,20
 386.66015625 621 386.66015625 621 369.3125 601 c 132,-1,21
 351.96484375 581 351.96484375 581 351.96484375 548 c 6,22,-1
 351.96484375 404 l 6,23,24
 351.96484375 353 351.96484375 353 317.26953125 322.5 c 132,-1,25
 282.575195312 292 282.575195312 292 211.900390625 282 c 5,26,-1
 211.900390625 276 l 5,27,28
 283.860351562 266 283.860351562 266 317.912109375 235.5 c 132,-1,29
 351.96484375 205 351.96484375 205 351.96484375 154 c 6,30,-1
 351.96484375 7 l 6,31,32
 351.96484375 -42 351.96484375 -42 389.23046875 -63.5 c 132,-1,33
 426.495117188 -85 426.495117188 -85 494.599609375 -86 c 5,34,-1
 494.599609375 -158 l 5,0,1
EndSplineSet
EndChar

StartChar: bar.deva
Encoding: 124 124 38
Width: 771
Flags: W
LayerCount: 2
Fore
SplineSet
253.59765625 -240 m 1,0,-1
 253.59765625 760 l 1,1,-1
 347.40234375 760 l 1,2,-1
 347.40234375 -240 l 1,3,-1
 253.59765625 -240 l 1,0,-1
EndSplineSet
EndChar

StartChar: braceright.deva
Encoding: 125 125 39
Width: 771
Flags: W
LayerCount: 2
Fore
SplineSet
268.400390625 714 m 5,0,1
 348.0703125 714 348.0703125 714 404.610351562 696.5 c 132,-1,2
 461.150390625 679 461.150390625 679 491.990234375 644 c 132,-1,3
 522.830078125 609 522.830078125 609 522.830078125 555 c 6,4,-1
 522.830078125 408 l 6,5,6
 522.830078125 357 522.830078125 357 563.307617188 335.5 c 132,-1,7
 603.78515625 314 603.78515625 314 679.599609375 314 c 5,8,-1
 679.599609375 241 l 5,9,10
 603.78515625 240 603.78515625 240 563.307617188 219 c 132,-1,11
 522.830078125 198 522.830078125 198 522.830078125 148 c 6,12,-1
 522.830078125 0 l 6,13,14
 522.830078125 -53 522.830078125 -53 490.705078125 -88 c 132,-1,15
 458.580078125 -123 458.580078125 -123 401.397460938 -140.5 c 132,-1,16
 344.21484375 -158 344.21484375 -158 268.400390625 -158 c 5,17,-1
 268.400390625 -86 l 5,18,19
 313.375 -85 313.375 -85 344.857421875 -75 c 132,-1,20
 376.33984375 -65 376.33984375 -65 393.6875 -44.5 c 132,-1,21
 411.03515625 -24 411.03515625 -24 411.03515625 8 c 6,22,-1
 411.03515625 152 l 6,23,24
 411.03515625 203 411.03515625 203 445.73046875 233.5 c 132,-1,25
 480.424804688 264 480.424804688 264 551.099609375 274 c 5,26,-1
 551.099609375 280 l 5,27,28
 480.424804688 290 480.424804688 290 445.73046875 320.5 c 132,-1,29
 411.03515625 351 411.03515625 351 411.03515625 402 c 6,30,-1
 411.03515625 549 l 6,31,32
 411.03515625 598 411.03515625 598 373.76953125 619.5 c 132,-1,33
 336.504882812 641 336.504882812 641 268.400390625 642 c 5,34,-1
 268.400390625 714 l 5,0,1
EndSplineSet
EndChar

StartChar: asciitilde.deva
Encoding: 126 126 40
Width: 771
Flags: W
LayerCount: 2
Fore
SplineSet
9.875 287 m 1,0,1
 13.73046875 316 13.73046875 316 21.4404296875 346.5 c 128,-1,2
 29.150390625 377 29.150390625 377 45.85546875 403.5 c 128,-1,3
 62.5595703125 430 62.5595703125 430 91.47265625 446 c 128,-1,4
 120.384765625 462 120.384765625 462 166.64453125 462 c 0,5,6
 196.200195312 462 196.200195312 462 221.2578125 454.5 c 128,-1,7
 246.315429688 447 246.315429688 447 272.014648438 432.5 c 128,-1,8
 297.71484375 418 297.71484375 418 327.26953125 396 c 0,9,10
 354.254882812 377 354.254882812 377 379.955078125 361.5 c 128,-1,11
 405.655273438 346 405.655273438 346 432.639648438 346 c 0,12,13
 468.620117188 346 468.620117188 346 485.325195312 376.5 c 128,-1,14
 502.030273438 407 502.030273438 407 511.025390625 462 c 1,15,-1
 588.125 462 l 1,16,17
 584.26953125 436 584.26953125 436 575.91796875 406 c 128,-1,18
 567.565429688 376 567.565429688 376 550.860351562 349 c 128,-1,19
 534.155273438 322 534.155273438 322 505.2421875 304.5 c 128,-1,20
 476.330078125 287 476.330078125 287 431.35546875 287 c 0,21,22
 401.799804688 287 401.799804688 287 375.45703125 295 c 128,-1,23
 349.115234375 303 349.115234375 303 325.342773438 317.5 c 128,-1,24
 301.5703125 332 301.5703125 332 277.155273438 350 c 0,25,26
 247.599609375 373 247.599609375 373 221.900390625 388 c 128,-1,27
 196.200195312 403 196.200195312 403 166.64453125 403 c 0,28,29
 129.379882812 403 129.379882812 403 110.747070312 374.5 c 128,-1,30
 92.115234375 346 92.115234375 346 85.6904296875 287 c 1,31,-1
 9.875 287 l 1,0,1
EndSplineSet
EndChar

StartChar: A
Encoding: 65 65 41
Width: 771
Flags: W
LayerCount: 2
Fore
SplineSet
675 473 m 5,0,-1
 675 1 l 5,1,-1
 594 1 l 5,2,-1
 594 473 l 5,3,-1
 521 473 l 5,4,-1
 521 544 l 5,5,-1
 727 544 l 5,6,-1
 727 473 l 5,7,-1
 675 473 l 5,0,-1
298 554 m 4,8,9
 376 554 376 554 417.5 515 c 132,-1,10
 459 476 459 476 459 417 c 4,11,12
 459 374 459 374 436.5 339.5 c 132,-1,13
 414 305 414 305 370 285 c 132,-1,14
 326 265 326 265 260 263 c 5,15,-1
 255 333 l 5,16,17
 323 335 323 335 351.5 357 c 132,-1,18
 380 379 380 379 380 416 c 4,19,20
 380 452 380 452 356.5 468 c 132,-1,21
 333 484 333 484 302 484 c 4,22,23
 265 484 265 484 235 474 c 132,-1,24
 205 464 205 464 171 447 c 5,25,-1
 146 516 l 5,26,27
 172 530 172 530 210.5 542 c 132,-1,28
 249 554 249 554 298 554 c 4,8,9
470 140 m 4,29,30
 470 94 470 94 449 63 c 132,-1,31
 428 32 428 32 392.5 17 c 132,-1,32
 357 2 357 2 312 2 c 4,33,34
 255 2 255 2 206.5 30 c 132,-1,35
 158 58 158 58 114.5 119 c 132,-1,36
 71 180 71 180 29 278 c 5,37,-1
 100 304 l 5,38,39
 129 233 129 233 160.5 181.5 c 132,-1,40
 192 130 192 130 228 102.5 c 132,-1,41
 264 75 264 75 305 75 c 4,42,43
 343 75 343 75 367 92.5 c 132,-1,44
 391 110 391 110 391 149 c 4,45,46
 391 197 391 197 358 232 c 132,-1,47
 325 267 325 267 278 296 c 5,48,-1
 337 299 l 5,49,-1
 380 308 l 5,50,51
 394 296 394 296 411 279 c 132,-1,52
 428 262 428 262 438 245 c 5,53,-1
 443 226 l 5,54,55
 456 207 456 207 463 186 c 132,-1,56
 470 165 470 165 470 140 c 4,29,30
486 272 m 4,57,58
 534 272 534 272 569 279.5 c 132,-1,59
 604 287 604 287 651 304 c 5,60,-1
 651 232 l 5,61,62
 608 213 608 213 573.5 207 c 132,-1,63
 539 201 539 201 498 201 c 4,64,65
 483 201 483 201 463 203.5 c 132,-1,66
 443 206 443 206 425.5 209.5 c 132,-1,67
 408 213 408 213 400 216 c 5,68,-1
 353 272 l 5,69,-1
 359 287 l 5,70,71
 388 280 388 280 420 276 c 132,-1,72
 452 272 452 272 486 272 c 4,57,58
EndSplineSet
EndChar

StartChar: B
Encoding: 66 66 42
Width: 771
Flags: W
AnchorPoint: "Anchor-3" 737.393 572 basechar 0
AnchorPoint: "Anchor-2" 377.593 572 basechar 0
AnchorPoint: "Anchor-1" 390.442 0 basechar 0
LayerCount: 2
Fore
SplineSet
118.002929688 -4 m 5,0,-1
 118.002929688 568 l 5,1,-1
 344.162109375 568 l 6,2,3
 443.107421875 568 443.107421875 568 504.787109375 551.5 c 132,-1,4
 566.467773438 535 566.467773438 535 596.022460938 503 c 132,-1,5
 625.577148438 471 625.577148438 471 625.577148438 423 c 4,6,7
 625.577148438 389 625.577148438 389 608.23046875 363 c 132,-1,8
 590.8828125 337 590.8828125 337 559.400390625 320.5 c 132,-1,9
 527.91796875 304 527.91796875 304 485.512695312 298 c 5,10,-1
 485.512695312 295 l 5,11,12
 533.057617188 289 533.057617188 289 567.752929688 273.5 c 132,-1,13
 602.447265625 258 602.447265625 258 621.72265625 230.5 c 132,-1,14
 640.997070312 203 640.997070312 203 640.997070312 161 c 4,15,16
 640.997070312 79 640.997070312 79 567.110351562 37.5 c 132,-1,17
 493.22265625 -4 493.22265625 -4 371.147460938 -4 c 6,18,-1
 118.002929688 -4 l 5,0,-1
366.0078125 65 m 6,19,20
 448.247070312 65 448.247070312 65 487.440429688 91 c 132,-1,21
 526.6328125 117 526.6328125 117 526.6328125 166 c 4,22,23
 526.6328125 210 526.6328125 210 485.512695312 235 c 132,-1,24
 444.392578125 260 444.392578125 260 357.012695312 260 c 6,25,-1
 229.797851562 260 l 5,26,-1
 229.797851562 65 l 5,27,-1
 366.0078125 65 l 6,19,20
354.442382812 324 m 6,28,29
 437.967773438 324 437.967773438 324 473.947265625 346.5 c 132,-1,30
 509.927734375 369 509.927734375 369 509.927734375 413 c 260,31,32
 509.927734375 457 509.927734375 457 468.807617188 478 c 132,-1,33
 427.6875 499 427.6875 499 344.162109375 499 c 6,34,-1
 229.797851562 499 l 5,35,-1
 229.797851562 324 l 5,36,-1
 354.442382812 324 l 6,28,29
EndSplineSet
EndChar

StartChar: C
Encoding: 67 67 43
Width: 771
Flags: W
AnchorPoint: "Anchor-3" 732.947 572 basechar 0
AnchorPoint: "Anchor-2" 450.247 572 basechar 0
AnchorPoint: "Anchor-1" 437.397 0 basechar 0
LayerCount: 2
Fore
SplineSet
439.967773438 -8 m 4,0,1
 325.602539062 -8 325.602539062 -8 249.787109375 29 c 132,-1,2
 173.97265625 66 173.97265625 66 136.065429688 132.5 c 132,-1,3
 98.1572265625 199 98.1572265625 199 98.1572265625 287 c 4,4,5
 98.1572265625 373 98.1572265625 373 141.205078125 439 c 132,-1,6
 184.252929688 505 184.252929688 505 264.565429688 542.5 c 132,-1,7
 344.877929688 580 344.877929688 580 455.387695312 580 c 4,8,9
 510.642578125 580 510.642578125 580 563.969726562 571 c 132,-1,10
 617.297851562 562 617.297851562 562 664.842773438 544 c 5,11,-1
 627.577148438 473 l 5,12,13
 587.7421875 488 587.7421875 488 545.337890625 497 c 132,-1,14
 502.932617188 506 502.932617188 506 457.95703125 506 c 4,15,16
 380.857421875 506 380.857421875 506 326.887695312 479 c 132,-1,17
 272.91796875 452 272.91796875 452 244.647460938 402.5 c 132,-1,18
 216.377929688 353 216.377929688 353 216.377929688 286 c 4,19,20
 216.377929688 183 216.377929688 183 276.129882812 124.5 c 132,-1,21
 335.8828125 66 335.8828125 66 456.672851562 66 c 4,22,23
 504.217773438 66 504.217773438 66 548.549804688 73.5 c 132,-1,24
 592.8828125 81 592.8828125 81 635.287109375 94 c 5,25,-1
 635.287109375 17 l 5,26,27
 594.16796875 4 594.16796875 4 545.337890625 -2 c 132,-1,28
 496.5078125 -8 496.5078125 -8 439.967773438 -8 c 4,0,1
EndSplineSet
EndChar

StartChar: D
Encoding: 68 68 44
Width: 771
Flags: W
AnchorPoint: "Anchor-2" 390.56 0 basechar 0
AnchorPoint: "Anchor-1" 540.905 0 basechar 0
AnchorPoint: "Anchor-0" 411.12 537 basechar 0
LayerCount: 2
Fore
SplineSet
562.75 -58 m 5,0,1
 542.190429688 -32 542.190429688 -32 522.915039062 -5 c 132,-1,2
 503.639648438 22 503.639648438 22 488.219726562 46.5 c 4,3,4
 471.514648438 73 471.514648438 73 462.51953125 89 c 6,5,-1
 444.530273438 121 l 6,6,7
 432.96484375 141 432.96484375 141 431.037109375 147 c 4,8,9
 425.254882812 165 425.254882812 165 425.254882812 176 c 4,10,11
 425.254882812 211 425.254882812 211 452.240234375 225.5 c 132,-1,12
 479.224609375 240 479.224609375 240 511.349609375 240 c 4,13,14
 566.60546875 240 566.60546875 240 595.517578125 215.5 c 132,-1,15
 624.4296875 191 624.4296875 191 624.4296875 162 c 4,16,17
 624.4296875 135 624.4296875 135 611.580078125 118.5 c 132,-1,18
 598.73046875 102 598.73046875 102 576.884765625 93 c 4,19,20
 546.37890625 80.140625 546.37890625 80.140625 528.0546875 79 c 6,21,-1
 495.9296875 77 l 6,22,23
 479.224609375 73 479.224609375 73 454.16796875 70.5 c 132,-1,24
 429.110351562 68 429.110351562 68 400.83984375 68 c 4,25,26
 346.870117188 68 346.870117188 68 292.2578125 78.5 c 132,-1,27
 237.64453125 89 237.64453125 89 192.02734375 112.5 c 132,-1,28
 146.41015625 136 146.41015625 136 118.782226562 175.5 c 132,-1,29
 91.1552734375 215 91.1552734375 215 91.1552734375 272 c 4,30,31
 91.1552734375 316 91.1552734375 316 111.072265625 347.5 c 132,-1,32
 130.990234375 379 130.990234375 379 163.115234375 401 c 4,33,34
 205.51953125 430 205.51953125 430 267.200195312 443 c 132,-1,35
 328.879882812 456 328.879882812 456 404.6953125 456 c 6,36,-1
 457.379882812 456 l 5,37,-1
 411.120117188 420 l 5,38,-1
 411.120117188 496 l 5,39,-1
 269.76953125 496 l 5,40,-1
 269.76953125 537 l 5,41,-1
 620.575195312 537 l 5,42,-1
 620.575195312 496 l 5,43,-1
 515.205078125 496 l 5,44,-1
 515.205078125 385 l 5,45,-1
 452.240234375 385 l 6,46,47
 377.709960938 385 377.709960938 385 332.092773438 378 c 132,-1,48
 286.474609375 371 286.474609375 371 254.349609375 355 c 4,49,50
 226.080078125 340 226.080078125 340 210.017578125 317 c 132,-1,51
 193.955078125 294 193.955078125 294 193.955078125 262 c 4,52,53
 193.955078125 209 193.955078125 209 244.712890625 174.5 c 132,-1,54
 295.469726562 140 295.469726562 140 400.83984375 140 c 4,55,56
 416.259765625 140 416.259765625 140 432.96484375 141 c 132,-1,57
 449.669921875 142 449.669921875 142 485.650390625 148 c 5,58,-1
 547.330078125 104 l 5,59,60
 565.3203125 75 565.3203125 75 587.807617188 46 c 132,-1,61
 610.294921875 17 610.294921875 17 648.844726562 -24 c 5,62,-1
 562.75 -58 l 5,0,1
EndSplineSet
EndChar

StartChar: E
Encoding: 69 69 45
Width: 771
Flags: W
AnchorPoint: "Anchor-1" 266.7 536 basechar 0
AnchorPoint: "Anchor-0" 274.41 0 basechar 0
LayerCount: 2
Fore
SplineSet
275.6953125 -10 m 0,0,1
 126.634765625 -10 126.634765625 -10 57.8876953125 34.5 c 128,-1,2
 -10.8603515625 79 -10.8603515625 79 -10.8603515625 146 c 0,3,4
 -10.8603515625 206 -10.8603515625 206 32.1875 235 c 128,-1,5
 75.2353515625 264 75.2353515625 264 134.344726562 277 c 1,6,-1
 134.344726562 282 l 1,7,8
 79.08984375 296 79.08984375 296 45.6796875 325.5 c 128,-1,9
 12.26953125 355 12.26953125 355 12.26953125 403 c 0,10,11
 12.26953125 471 12.26953125 471 79.08984375 508.5 c 128,-1,12
 145.91015625 546 145.91015625 546 266.700195312 546 c 0,13,14
 338.66015625 546 338.66015625 546 397.127929688 534.5 c 128,-1,15
 455.594726562 523 455.594726562 523 492.860351562 507 c 1,16,-1
 456.879882812 434 l 1,17,18
 415.759765625 452 415.759765625 452 368.857421875 462.5 c 128,-1,19
 321.955078125 473 321.955078125 473 266.700195312 473 c 0,20,21
 189.599609375 473 189.599609375 473 156.83203125 452.5 c 128,-1,22
 124.065429688 432 124.065429688 432 124.065429688 397 c 0,23,24
 124.065429688 351 124.065429688 351 170.967773438 332.5 c 128,-1,25
 217.870117188 314 217.870117188 314 279.549804688 314 c 2,26,-1
 368.21484375 314 l 1,27,-1
 368.21484375 246 l 1,28,-1
 279.549804688 246 l 2,29,30
 194.740234375 246 194.740234375 246 150.407226562 221.5 c 128,-1,31
 106.075195312 197 106.075195312 197 106.075195312 151 c 0,32,33
 106.075195312 108 106.075195312 108 150.407226562 86.5 c 128,-1,34
 194.740234375 65 194.740234375 65 275.6953125 65 c 0,35,36
 342.514648438 65 342.514648438 65 391.987304688 73 c 128,-1,37
 441.459960938 81 441.459960938 81 481.294921875 97 c 1,38,-1
 481.294921875 19 l 1,39,40
 441.459960938 3 441.459960938 3 388.775390625 -3.5 c 128,-1,41
 336.08984375 -10 336.08984375 -10 275.6953125 -10 c 0,0,1
EndSplineSet
EndChar

StartChar: F
Encoding: 70 70 46
Width: 771
Flags: W
AnchorPoint: "Anchor-3" 737.95 572 basechar 0
AnchorPoint: "Anchor-2" 403.85 572 basechar 0
AnchorPoint: "Anchor-1" 403.85 0 basechar 0
LayerCount: 2
Fore
SplineSet
167.41015625 0 m 5,0,-1
 167.41015625 572 l 5,1,-1
 614.58984375 572 l 5,2,-1
 614.58984375 501 l 5,3,-1
 279.205078125 501 l 5,4,-1
 279.205078125 309 l 5,5,-1
 595.315429688 309 l 5,6,-1
 595.315429688 238 l 5,7,-1
 279.205078125 238 l 5,8,-1
 279.205078125 0 l 5,9,-1
 167.41015625 0 l 5,0,-1
EndSplineSet
EndChar

StartChar: G
Encoding: 71 71 47
Width: 771
Flags: W
AnchorPoint: "Anchor-2" 686.543 536 basechar 0
AnchorPoint: "Anchor-1" 388.423 536 basechar 0
AnchorPoint: "Anchor-0" 388.423 0 basechar 0
LayerCount: 2
Fore
SplineSet
434.682617188 546 m 4,0,1
 576.032226562 546 576.032226562 546 654.41796875 510 c 5,2,-1
 613.297851562 434 l 5,3,4
 573.462890625 450 573.462890625 450 527.844726562 459.5 c 132,-1,5
 482.227539062 469 482.227539062 469 441.107421875 469 c 4,6,7
 207.237304688 469 207.237304688 469 207.237304688 266 c 4,8,9
 207.237304688 169 207.237304688 169 256.709960938 117.5 c 132,-1,10
 306.182617188 66 306.182617188 66 403.842773438 66 c 4,11,12
 450.102539062 66 450.102539062 66 482.870117188 69.5 c 132,-1,13
 515.637695312 73 515.637695312 73 551.6171875 80 c 5,14,-1
 551.6171875 227 l 5,15,-1
 403.842773438 227 l 5,16,-1
 403.842773438 298 l 5,17,-1
 664.697265625 298 l 5,18,-1
 664.697265625 28 l 5,19,20
 601.732421875 10 601.732421875 10 541.337890625 0 c 132,-1,21
 480.942382812 -10 480.942382812 -10 405.127929688 -10 c 4,22,23
 313.892578125 -10 313.892578125 -10 242.575195312 19 c 132,-1,24
 171.2578125 48 171.2578125 48 130.780273438 109 c 132,-1,25
 90.302734375 170 90.302734375 170 90.302734375 265 c 4,26,27
 90.302734375 364 90.302734375 364 136.5625 426 c 132,-1,28
 182.822265625 488 182.822265625 488 260.565429688 517 c 132,-1,29
 338.307617188 546 338.307617188 546 434.682617188 546 c 4,0,1
EndSplineSet
EndChar

StartChar: H
Encoding: 72 72 48
Width: 771
Flags: W
AnchorPoint: "Anchor-2" 380.003 0 basechar 0
LayerCount: 2
Fore
SplineSet
214.237304688 229 m 5,0,1
 182.112304688 247 182.112304688 247 154.485351562 277.5 c 132,-1,2
 126.857421875 308 126.857421875 308 126.857421875 352 c 4,3,4
 126.857421875 380 126.857421875 380 139.70703125 400 c 132,-1,5
 152.557617188 420 152.557617188 420 174.40234375 433 c 4,6,7
 193.677734375 445 193.677734375 445 216.807617188 452 c 132,-1,8
 239.9375 459 239.9375 459 268.849609375 462 c 132,-1,9
 297.762695312 465 297.762695312 465 332.45703125 465 c 6,10,-1
 502.077148438 465 l 5,11,-1
 502.077148438 496 l 5,12,-1
 406.987304688 496 l 5,13,-1
 406.987304688 554 l 5,14,-1
 654.9921875 554 l 5,15,-1
 654.9921875 496 l 5,16,-1
 606.162109375 496 l 5,17,-1
 606.162109375 394 l 5,18,-1
 333.7421875 394 l 6,19,20
 293.907226562 394 293.907226562 394 277.202148438 391 c 132,-1,21
 260.497070312 388 260.497070312 388 248.932617188 381 c 4,22,23
 239.9375 375 239.9375 375 234.797851562 366.5 c 132,-1,24
 229.657226562 358 229.657226562 358 229.657226562 347 c 4,25,26
 229.657226562 323 229.657226562 323 248.290039062 305 c 132,-1,27
 266.922851562 287 266.922851562 287 291.337890625 274 c 5,28,-1
 214.237304688 229 l 5,0,1
450.677734375 69 m 5,29,30
 496.9375 80 496.9375 80 526.4921875 98 c 132,-1,31
 556.047851562 116 556.047851562 116 556.047851562 148 c 4,32,33
 556.047851562 186 556.047851562 186 518.782226562 207.5 c 132,-1,34
 481.517578125 229 481.517578125 229 397.9921875 229 c 4,35,36
 309.327148438 229 309.327148438 229 262.424804688 200.5 c 132,-1,37
 215.522460938 172 215.522460938 172 215.522460938 124 c 4,38,39
 215.522460938 101 215.522460938 101 223.232421875 79.5 c 132,-1,40
 230.942382812 58 230.942382812 58 252.787109375 34 c 132,-1,41
 274.6328125 10 274.6328125 10 316.39453125 -20 c 132,-1,42
 358.157226562 -50 358.157226562 -50 426.262695312 -89 c 5,43,-1
 356.872070312 -142 l 5,44,45
 278.487304688 -94 278.487304688 -94 223.875 -51.5 c 132,-1,46
 169.262695312 -9 169.262695312 -9 140.9921875 35 c 132,-1,47
 112.72265625 79 112.72265625 79 112.72265625 130 c 4,48,49
 112.72265625 186 112.72265625 186 154.485351562 224 c 132,-1,50
 196.247070312 262 196.247070312 262 262.424804688 281 c 132,-1,51
 328.602539062 300 328.602539062 300 403.1328125 300 c 4,52,53
 491.797851562 300 491.797851562 300 547.6953125 279 c 132,-1,54
 603.592773438 258 603.592773438 258 629.934570312 224.5 c 132,-1,55
 656.27734375 191 656.27734375 191 656.27734375 153 c 4,56,57
 656.27734375 95 656.27734375 95 612.587890625 57 c 132,-1,58
 568.897460938 19 568.897460938 19 485.372070312 2 c 5,59,-1
 450.677734375 69 l 5,29,30
EndSplineSet
EndChar

StartChar: I
Encoding: 73 73 49
Width: 771
Flags: W
AnchorPoint: "Anchor-3" 728.8 572 basechar 0
AnchorPoint: "Anchor-2" 369 572 basechar 0
AnchorPoint: "Anchor-1" 369 0 basechar 0
LayerCount: 2
Fore
SplineSet
137.700195312 0 m 5,0,-1
 137.700195312 62 l 5,1,-1
 309.889648438 75 l 5,2,-1
 309.889648438 497 l 5,3,-1
 137.700195312 510 l 5,4,-1
 137.700195312 572 l 5,5,-1
 600.299804688 572 l 5,6,-1
 600.299804688 510 l 5,7,-1
 425.540039062 497 l 5,8,-1
 425.540039062 75 l 5,9,-1
 600.299804688 62 l 5,10,-1
 600.299804688 0 l 5,11,-1
 137.700195312 0 l 5,0,-1
EndSplineSet
EndChar

StartChar: J
Encoding: 74 74 50
Width: 771
Flags: W
AnchorPoint: "Anchor-3" 698.088 572 basechar 0
AnchorPoint: "Anchor-2" 488.633 572 basechar 0
AnchorPoint: "Anchor-1" 338.287 -15 basechar 0
LayerCount: 2
Fore
SplineSet
302.307617188 -15 m 4,0,1
 259.90234375 -15 259.90234375 -15 214.28515625 -7 c 132,-1,2
 168.66796875 1 168.66796875 1 132.6875 14 c 5,3,-1
 132.6875 99 l 5,4,5
 162.2421875 89 162.2421875 89 205.290039062 78.5 c 132,-1,6
 248.337890625 68 248.337890625 68 293.3125 68 c 4,7,8
 357.5625 68 357.5625 68 396.112304688 103.5 c 132,-1,9
 434.662109375 139 434.662109375 139 434.662109375 224 c 6,10,-1
 434.662109375 572 l 5,11,-1
 550.3125 572 l 5,12,-1
 550.3125 212 l 6,13,14
 550.3125 140 550.3125 140 522.04296875 89 c 132,-1,15
 493.772460938 38 493.772460938 38 439.16015625 11.5 c 132,-1,16
 384.547851562 -15 384.547851562 -15 302.307617188 -15 c 4,0,1
EndSplineSet
EndChar

StartChar: K
Encoding: 75 75 51
Width: 771
Flags: W
AnchorPoint: "Anchor-3" 723.1 572 basechar 0
AnchorPoint: "Anchor-2" 382.575 572 basechar 0
AnchorPoint: "Anchor-1" 382.575 0 basechar 0
LayerCount: 2
Fore
SplineSet
111.440429688 0 m 5,0,-1
 111.440429688 572 l 5,1,-1
 224.51953125 572 l 5,2,-1
 224.51953125 294 l 5,3,4
 241.224609375 311 241.224609375 311 260.5 328 c 132,-1,5
 279.775390625 345 279.775390625 345 297.764648438 361 c 6,6,-1
 535.490234375 572 l 5,7,-1
 663.990234375 572 l 5,8,-1
 387.71484375 324 l 5,9,-1
 666.559570312 0 l 5,10,-1
 536.775390625 0 l 5,11,-1
 306.759765625 268 l 5,12,-1
 224.51953125 217 l 5,13,-1
 224.51953125 0 l 5,14,-1
 111.440429688 0 l 5,0,-1
EndSplineSet
EndChar

StartChar: L
Encoding: 76 76 52
Width: 771
Flags: W
LayerCount: 2
Fore
SplineSet
453.392578125 554 m 4,0,1
 524.067382812 554 524.067382812 554 580.607421875 542 c 132,-1,2
 637.147460938 530 637.147460938 530 680.837890625 513 c 5,3,-1
 641.002929688 443 l 5,4,5
 602.452148438 457 602.452148438 457 555.549804688 469 c 132,-1,6
 508.647460938 481 508.647460938 481 455.962890625 481 c 4,7,8
 382.717773438 481 382.717773438 481 344.16796875 451.5 c 132,-1,9
 305.6171875 422 305.6171875 422 305.6171875 356 c 6,10,-1
 305.6171875 314 l 5,11,-1
 567.7578125 314 l 5,12,-1
 567.7578125 248 l 5,13,-1
 305.6171875 248 l 5,14,-1
 305.6171875 202 l 6,15,16
 305.6171875 162 305.6171875 162 293.41015625 142.5 c 132,-1,17
 281.202148438 123 281.202148438 123 261.28515625 107 c 132,-1,18
 241.3671875 91 241.3671875 91 218.237304688 80 c 5,19,-1
 711.677734375 80 l 5,20,-1
 711.677734375 0 l 5,21,-1
 65.322265625 0 l 5,22,-1
 65.322265625 74 l 5,23,24
 102.587890625 81 102.587890625 81 130.857421875 97.5 c 132,-1,25
 159.127929688 114 159.127929688 114 175.83203125 135.5 c 132,-1,26
 192.537109375 157 192.537109375 157 192.537109375 201 c 6,27,-1
 192.537109375 248 l 5,28,-1
 69.177734375 248 l 5,29,-1
 69.177734375 314 l 5,30,-1
 192.537109375 314 l 5,31,-1
 192.537109375 365 l 6,32,33
 192.537109375 425 192.537109375 425 224.662109375 467 c 132,-1,34
 256.787109375 509 256.787109375 509 315.897460938 531.5 c 132,-1,35
 375.0078125 554 375.0078125 554 453.392578125 554 c 4,0,1
EndSplineSet
EndChar

StartChar: M
Encoding: 77 77 53
Width: 771
Flags: W
AnchorPoint: "Anchor-1" 389.635 511.861 basechar 0
AnchorPoint: "Anchor-0" 389.635 22.2148 basechar 0
LayerCount: 2
Fore
SplineSet
729.532226562 531.440429688 m 5,0,-1
 729.532226562 0.7998046875 l 5,1,-1
 635.123046875 0.7998046875 l 5,2,-1
 635.123046875 339.379882812 l 6,3,4
 635.123046875 360.169921875 635.123046875 360.169921875 636.915039062 382.940429688 c 132,-1,5
 638.708007812 405.709960938 638.708007812 405.709960938 641.098632812 427.490234375 c 5,6,-1
 637.512695312 427.490234375 l 5,7,-1
 428.37890625 0.7998046875 l 5,8,-1
 339.9453125 0.7998046875 l 5,9,-1
 136.787109375 427.490234375 l 5,10,-1
 133.202148438 427.490234375 l 5,11,12
 136.787109375 382.940429688 136.787109375 382.940429688 136.787109375 336.41015625 c 6,13,-1
 136.787109375 0.7998046875 l 5,14,-1
 42.3779296875 0.7998046875 l 5,15,-1
 42.3779296875 531.440429688 l 5,16,-1
 182.198242188 531.440429688 l 5,17,-1
 384.162109375 104.75 l 5,18,-1
 589.7109375 531.440429688 l 5,19,-1
 729.532226562 531.440429688 l 5,0,-1
EndSplineSet
EndChar

StartChar: N
Encoding: 78 78 54
Width: 771
Flags: W
AnchorPoint: "Anchor-2" 711.67 536 basechar 0
AnchorPoint: "Anchor-1" 375 536 basechar 0
AnchorPoint: "Anchor-0" 375 0 basechar 0
LayerCount: 2
Fore
SplineSet
78.1650390625 0 m 5,0,-1
 78.1650390625 536 l 5,1,-1
 216.9453125 536 l 5,2,-1
 572.889648438 104 l 5,3,4
 571.60546875 118 571.60546875 118 569.677734375 142 c 132,-1,5
 567.75 166 567.75 166 566.46484375 190 c 132,-1,6
 565.1796875 214 565.1796875 214 565.1796875 226 c 6,7,-1
 565.1796875 536 l 5,8,-1
 671.834960938 536 l 5,9,-1
 671.834960938 0 l 5,10,-1
 531.76953125 0 l 5,11,-1
 179.6796875 431 l 5,12,13
 180.96484375 418 180.96484375 418 182.25 392.5 c 132,-1,14
 183.53515625 367 183.53515625 367 184.177734375 341 c 132,-1,15
 184.8203125 315 184.8203125 315 184.8203125 299 c 6,16,-1
 184.8203125 0 l 5,17,-1
 78.1650390625 0 l 5,0,-1
EndSplineSet
EndChar

StartChar: O
Encoding: 79 79 55
Width: 771
Flags: W
AnchorPoint: "Anchor-1" 303 536 basechar 0
AnchorPoint: "Anchor-0" 303 0 basechar 0
LayerCount: 2
Fore
SplineSet
708.6796875 269 m 4,0,1
 708.6796875 136 708.6796875 136 621.942382812 63 c 132,-1,2
 535.205078125 -10 535.205078125 -10 387.4296875 -10 c 4,3,4
 296.1953125 -10 296.1953125 -10 224.877929688 22.5 c 132,-1,5
 153.559570312 55 153.559570312 55 112.440429688 117.5 c 132,-1,6
 71.3203125 180 71.3203125 180 71.3203125 269 c 4,7,8
 71.3203125 402 71.3203125 402 157.415039062 474 c 132,-1,9
 243.509765625 546 243.509765625 546 391.28515625 546 c 4,10,11
 485.08984375 546 485.08984375 546 556.407226562 513.5 c 132,-1,12
 627.724609375 481 627.724609375 481 668.202148438 419.5 c 132,-1,13
 708.6796875 358 708.6796875 358 708.6796875 269 c 4,0,1
388.71484375 472 m 4,14,15
 293.625 472 293.625 472 246.080078125 431.5 c 132,-1,16
 198.53515625 391 198.53515625 391 189.540039062 312 c 5,17,-1
 590.459960938 312 l 5,18,19
 581.46484375 391 581.46484375 391 531.9921875 431.5 c 132,-1,20
 482.51953125 472 482.51953125 472 388.71484375 472 c 4,14,15
390 63 m 4,21,22
 488.9453125 63 488.9453125 63 536.490234375 108 c 132,-1,23
 584.03515625 153 584.03515625 153 590.459960938 239 c 5,24,-1
 188.254882812 239 l 5,25,26
 194.6796875 153 194.6796875 153 243.509765625 108 c 132,-1,27
 292.33984375 63 292.33984375 63 390 63 c 4,21,22
EndSplineSet
EndChar

StartChar: P
Encoding: 80 80 56
Width: 771
Flags: W
AnchorPoint: "Anchor-1" 246.155 536 basechar 0
AnchorPoint: "Anchor-0" 246.155 0 basechar 0
LayerCount: 2
Fore
SplineSet
375.735351562 536 m 6,0,1
 517.084960938 536 517.084960938 536 581.977539062 494 c 132,-1,2
 646.870117188 452 646.870117188 452 646.870117188 375 c 4,3,4
 646.870117188 330 646.870117188 330 619.884765625 291 c 132,-1,5
 592.900390625 252 592.900390625 252 530.577148438 227.5 c 132,-1,6
 468.254882812 203 468.254882812 203 359.030273438 203 c 6,7,-1
 293.495117188 203 l 5,8,-1
 293.495117188 0 l 5,9,-1
 179.129882812 0 l 5,10,-1
 179.129882812 536 l 5,11,-1
 375.735351562 536 l 6,0,1
368.025390625 465 m 6,12,-1
 293.495117188 465 l 5,13,-1
 293.495117188 274 l 5,14,-1
 348.75 274 l 6,15,16
 441.26953125 274 441.26953125 274 485.602539062 296.5 c 132,-1,17
 529.934570312 319 529.934570312 319 529.934570312 372 c 4,18,19
 529.934570312 419 529.934570312 419 490.7421875 442 c 132,-1,20
 451.549804688 465 451.549804688 465 368.025390625 465 c 6,12,-1
EndSplineSet
EndChar

StartChar: Q
Encoding: 81 81 57
Width: 771
Flags: W
LayerCount: 2
Fore
SplineSet
700.53515625 -109 m 5,0,1
 674.834960938 -109 674.834960938 -109 650.419921875 -102 c 132,-1,2
 626.004882812 -95 626.004882812 -95 608.014648438 -78 c 5,3,-1
 608.014648438 127 l 5,4,5
 572.03515625 102 572.03515625 102 524.490234375 86.5 c 132,-1,6
 476.9453125 71 476.9453125 71 412.6953125 71 c 4,7,8
 358.724609375 71 358.724609375 71 295.759765625 94 c 132,-1,9
 232.794921875 117 232.794921875 117 178.825195312 154 c 132,-1,10
 124.85546875 191 124.85546875 191 88.875 237 c 132,-1,11
 52.89453125 283 52.89453125 283 52.89453125 329 c 4,12,13
 52.89453125 377 52.89453125 377 75.3828125 414 c 132,-1,14
 97.8701171875 451 97.8701171875 451 136.419921875 476.5 c 132,-1,15
 174.969726562 502 174.969726562 502 227.012695312 515 c 132,-1,16
 279.0546875 528 279.0546875 528 338.165039062 528 c 4,17,18
 381.85546875 528 381.85546875 528 420.405273438 520 c 4,19,20
 483.370117188 507 483.370117188 507 492.365234375 498.5 c 4,21,22
 537.33984375 458 537.33984375 458 554.6875 467.5 c 4,23,24
 559.184570312 470 559.184570312 470 608.014648438 554 c 5,25,-1
 605.4453125 553 l 5,26,-1
 703.10546875 553 l 6,27,-1
 700.53515625 -109 l 5,0,1
339.450195312 128 m 4,28,29
 388.280273438 128 388.280273438 128 434.540039062 140.5 c 132,-1,30
 480.799804688 153 480.799804688 153 519.349609375 176 c 5,31,-1
 219.9453125 416 l 5,32,33
 185.25 392 185.25 392 165.974609375 357.5 c 132,-1,34
 146.700195312 323 146.700195312 323 146.700195312 278 c 4,35,36
 146.700195312 242 146.700195312 242 161.477539062 214 c 132,-1,37
 176.254882812 186 176.254882812 186 201.955078125 167 c 132,-1,38
 227.655273438 148 227.655273438 148 262.9921875 138 c 132,-1,39
 298.330078125 128 298.330078125 128 339.450195312 128 c 4,28,29
608.014648438 407 m 5,40,41
 563.040039062 434 563.040039062 434 514.852539062 449.5 c 132,-1,42
 466.665039062 465 466.665039062 465 403.700195312 465 c 4,43,44
 311.1796875 465 311.1796875 465 245.64453125 432 c 5,45,-1
 542.48046875 192 l 5,46,47
 563.040039062 207 563.040039062 207 579.745117188 225 c 132,-1,48
 596.450195312 243 596.450195312 243 608.014648438 263 c 5,49,-1
 608.014648438 407 l 5,40,41
EndSplineSet
EndChar

StartChar: R
Encoding: 82 82 58
Width: 771
Flags: W
AnchorPoint: "Anchor-3" 730.105 572 basechar 0
AnchorPoint: "Anchor-2" 357.455 572 basechar 0
AnchorPoint: "Anchor-1" 403.715 0 basechar 0
LayerCount: 2
Fore
SplineSet
131.294921875 0 m 5,0,-1
 131.294921875 572 l 5,1,-1
 335.610351562 572 l 6,2,3
 479.530273438 572 479.530273438 572 549.5625 530.5 c 132,-1,4
 619.594726562 489 619.594726562 489 619.594726562 409 c 4,5,6
 619.594726562 354 619.594726562 354 584.900390625 314 c 132,-1,7
 550.205078125 274 550.205078125 274 474.389648438 254 c 5,8,-1
 678.705078125 0 l 5,9,-1
 551.490234375 0 l 5,10,-1
 375.4453125 232 l 5,11,-1
 243.08984375 232 l 5,12,-1
 243.08984375 0 l 5,13,-1
 131.294921875 0 l 5,0,-1
344.60546875 302 m 6,14,15
 420.419921875 302 420.419921875 302 462.825195312 326 c 132,-1,16
 505.23046875 350 505.23046875 350 505.23046875 402 c 4,17,18
 505.23046875 457 505.23046875 457 461.540039062 479.5 c 132,-1,19
 417.849609375 502 417.849609375 502 334.325195312 502 c 6,20,-1
 243.08984375 502 l 5,21,-1
 243.08984375 302 l 5,22,-1
 344.60546875 302 l 6,14,15
EndSplineSet
EndChar

StartChar: S
Encoding: 83 83 59
Width: 771
Flags: W
LayerCount: 2
Fore
SplineSet
611.01953125 143 m 4,0,1
 611.01953125 71 611.01953125 71 544.200195312 31.5 c 132,-1,2
 477.379882812 -8 477.379882812 -8 366.870117188 -8 c 4,3,4
 246.080078125 -8 246.080078125 -8 168.98046875 19 c 5,5,-1
 168.98046875 91 l 5,6,7
 213.955078125 76 213.955078125 76 263.427734375 66 c 132,-1,8
 312.900390625 56 312.900390625 56 368.155273438 56 c 4,9,10
 433.690429688 56 433.690429688 56 472.8828125 78 c 132,-1,11
 512.075195312 100 512.075195312 100 512.075195312 140 c 4,12,13
 512.075195312 182 512.075195312 182 468.384765625 203 c 132,-1,14
 424.6953125 224 424.6953125 224 354.01953125 246 c 4,15,16
 307.759765625 260 307.759765625 260 267.282226562 278.5 c 132,-1,17
 226.8046875 297 226.8046875 297 202.389648438 326.5 c 132,-1,18
 177.974609375 356 177.974609375 356 177.974609375 401 c 4,19,20
 177.974609375 469 177.974609375 469 240.297851562 507.5 c 132,-1,21
 302.620117188 546 302.620117188 546 404.134765625 546 c 4,22,23
 456.8203125 546 456.8203125 546 505.0078125 537.5 c 132,-1,24
 553.1953125 529 553.1953125 529 600.740234375 513 c 5,25,-1
 567.330078125 452 l 5,26,27
 522.35546875 467 522.35546875 467 483.162109375 474.5 c 132,-1,28
 443.969726562 482 443.969726562 482 404.134765625 482 c 4,29,30
 347.594726562 482 347.594726562 482 312.2578125 461.5 c 132,-1,31
 276.919921875 441 276.919921875 441 276.919921875 403 c 4,32,33
 276.919921875 375 276.919921875 375 294.91015625 357.5 c 132,-1,34
 312.900390625 340 312.900390625 340 346.952148438 327.5 c 132,-1,35
 381.004882812 315 381.004882812 315 427.264648438 300 c 4,36,37
 479.950195312 283 479.950195312 283 521.712890625 263.5 c 132,-1,38
 563.474609375 244 563.474609375 244 587.247070312 215.5 c 132,-1,39
 611.01953125 187 611.01953125 187 611.01953125 143 c 4,0,1
EndSplineSet
EndChar

StartChar: T
Encoding: 84 84 60
Width: 771
Flags: W
LayerCount: 2
Fore
SplineSet
623.724609375 465 m 5,0,-1
 623.724609375 0 l 5,1,-1
 519.639648438 0 l 5,2,-1
 519.639648438 328 l 5,3,-1
 379.575195312 328 l 6,4,5
 301.190429688 328 301.190429688 328 261.997070312 322 c 132,-1,6
 222.8046875 316 222.8046875 316 198.389648438 299 c 4,7,8
 182.969726562 289 182.969726562 289 175.259765625 274 c 132,-1,9
 167.549804688 259 167.549804688 259 167.549804688 237 c 4,10,11
 167.549804688 204 167.549804688 204 188.752929688 173.5 c 132,-1,12
 209.955078125 143 209.955078125 143 251.717773438 110.5 c 132,-1,13
 293.48046875 78 293.48046875 78 353.875 40 c 5,14,-1
 284.485351562 -12 l 5,15,16
 225.375 28 225.375 28 174.6171875 68 c 132,-1,17
 123.860351562 108 123.860351562 108 93.662109375 151 c 132,-1,18
 63.46484375 194 63.46484375 194 63.46484375 242 c 4,19,20
 63.46484375 277 63.46484375 277 80.8125 305 c 132,-1,21
 98.16015625 333 98.16015625 333 125.14453125 351 c 4,22,23
 149.559570312 368 149.559570312 368 180.400390625 378.5 c 132,-1,24
 211.240234375 389 211.240234375 389 254.287109375 394 c 132,-1,25
 297.334960938 399 297.334960938 399 355.16015625 399 c 6,26,-1
 519.639648438 399 l 5,27,-1
 519.639648438 465 l 5,28,-1
 423.264648438 465 l 5,29,-1
 423.264648438 536 l 5,30,-1
 708.53515625 536 l 5,31,-1
 708.53515625 465 l 5,32,-1
 623.724609375 465 l 5,0,-1
EndSplineSet
EndChar

StartChar: U
Encoding: 85 85 61
Width: 771
Flags: W
AnchorPoint: "Anchor-3" 754.225 572 basechar 0
AnchorPoint: "Anchor-2" 388 572 basechar 0
AnchorPoint: "Anchor-1" 388 0 basechar 0
LayerCount: 2
Fore
SplineSet
384.14453125 -8 m 4,0,1
 247.934570312 -8 247.934570312 -8 173.405273438 49.5 c 132,-1,2
 98.875 107 98.875 107 98.875 211 c 6,3,-1
 98.875 572 l 5,4,-1
 211.955078125 572 l 5,5,-1
 211.955078125 215 l 6,6,7
 211.955078125 142 211.955078125 142 258.21484375 103.5 c 132,-1,8
 304.474609375 65 304.474609375 65 390.5703125 65 c 4,9,10
 475.379882812 65 475.379882812 65 519.712890625 103.5 c 132,-1,11
 564.044921875 142 564.044921875 142 564.044921875 213 c 6,12,-1
 564.044921875 572 l 5,13,-1
 677.125 572 l 5,14,-1
 677.125 212 l 6,15,16
 677.125 143 677.125 143 643.072265625 94 c 132,-1,17
 609.01953125 45 609.01953125 45 543.485351562 18.5 c 132,-1,18
 477.950195312 -8 477.950195312 -8 384.14453125 -8 c 4,0,1
EndSplineSet
EndChar

StartChar: V
Encoding: 86 86 62
Width: 771
Flags: W
AnchorPoint: "Anchor-1" 374.143 536 basechar 0
AnchorPoint: "Anchor-0" 374.143 0 basechar 0
LayerCount: 2
Fore
SplineSet
415.262695312 578 m 4,0,1
 352.297851562 578 352.297851562 578 313.747070312 606 c 132,-1,2
 275.197265625 634 275.197265625 634 275.197265625 684 c 260,3,4
 275.197265625 734 275.197265625 734 313.747070312 761.5 c 132,-1,5
 352.297851562 789 352.297851562 789 415.262695312 789 c 4,6,7
 475.657226562 789 475.657226562 789 516.77734375 761.5 c 132,-1,8
 557.897460938 734 557.897460938 734 557.897460938 685 c 4,9,10
 557.897460938 634 557.897460938 634 517.419921875 606 c 132,-1,11
 476.942382812 578 476.942382812 578 415.262695312 578 c 4,0,1
415.262695312 628 m 4,12,13
 447.387695312 628 447.387695312 628 467.3046875 643 c 132,-1,14
 487.22265625 658 487.22265625 658 487.22265625 684 c 260,15,16
 487.22265625 710 487.22265625 710 466.662109375 725 c 132,-1,17
 446.102539062 740 446.102539062 740 415.262695312 740 c 260,18,19
 384.422851562 740 384.422851562 740 363.862304688 725 c 132,-1,20
 343.302734375 710 343.302734375 710 343.302734375 684 c 260,21,22
 343.302734375 658 343.302734375 658 361.934570312 643 c 132,-1,23
 380.567382812 628 380.567382812 628 415.262695312 628 c 4,12,13
311.177734375 0 m 5,24,-1
 65.7421875 536 l 5,25,-1
 180.107421875 536 l 5,26,-1
 317.602539062 220 l 6,27,28
 327.8828125 198 327.8828125 198 338.162109375 171 c 132,-1,29
 348.442382812 144 348.442382812 144 357.4375 119.5 c 132,-1,30
 366.432617188 95 366.432617188 95 369.002929688 78 c 5,31,-1
 374.142578125 78 l 5,32,33
 379.282226562 95 379.282226562 95 388.27734375 120 c 132,-1,34
 397.272460938 145 397.272460938 145 408.837890625 172 c 132,-1,35
 420.40234375 199 420.40234375 199 429.397460938 220 c 6,36,-1
 566.892578125 536 l 5,37,-1
 681.2578125 536 l 5,38,-1
 433.252929688 0 l 5,39,-1
 311.177734375 0 l 5,24,-1
EndSplineSet
EndChar

StartChar: W
Encoding: 87 87 63
Width: 771
Flags: W
AnchorPoint: "Anchor-2" 386 536 basechar 0
AnchorPoint: "Anchor-1" 386 0 basechar 0
LayerCount: 2
Fore
SplineSet
253.64453125 -10 m 0,0,1
 167.549804688 -10 167.549804688 -10 119.362304688 60 c 128,-1,2
 71.1748046875 130 71.1748046875 130 71.1748046875 263 c 0,3,4
 71.1748046875 310 71.1748046875 310 77.599609375 354.5 c 128,-1,5
 84.025390625 399 84.025390625 399 96.875 444.5 c 128,-1,6
 109.724609375 490 109.724609375 490 130.28515625 537 c 1,7,-1
 239.509765625 537 l 1,8,9
 216.379882812 488 216.379882812 488 203.530273438 442.5 c 128,-1,10
 190.6796875 397 190.6796875 397 185.540039062 353.5 c 128,-1,11
 180.400390625 310 180.400390625 310 180.400390625 266 c 0,12,13
 180.400390625 161 180.400390625 161 202.245117188 114.5 c 128,-1,14
 224.08984375 68 224.08984375 68 265.209960938 68 c 0,15,16
 302.474609375 68 302.474609375 68 319.1796875 103.5 c 128,-1,17
 335.884765625 139 335.884765625 139 335.884765625 215 c 2,18,-1
 335.884765625 348 l 1,19,-1
 436.115234375 348 l 1,20,-1
 436.115234375 215 l 2,21,22
 436.115234375 140 436.115234375 140 452.8203125 104 c 128,-1,23
 469.525390625 68 469.525390625 68 505.504882812 68 c 0,24,25
 547.91015625 68 547.91015625 68 570.397460938 116 c 128,-1,26
 592.884765625 164 592.884765625 164 592.884765625 262 c 0,27,28
 592.884765625 308 592.884765625 308 587.102539062 355 c 128,-1,29
 581.3203125 402 581.3203125 402 568.469726562 448 c 128,-1,30
 555.620117188 494 555.620117188 494 533.775390625 537 c 1,31,-1
 641.71484375 537 l 1,32,33
 671.26953125 468 671.26953125 468 686.047851562 400.5 c 128,-1,34
 700.825195312 333 700.825195312 333 700.825195312 264 c 0,35,36
 700.825195312 197 700.825195312 197 687.974609375 146 c 128,-1,37
 675.125 95 675.125 95 650.709960938 60 c 128,-1,38
 626.294921875 25 626.294921875 25 592.2421875 7.5 c 128,-1,39
 558.190429688 -10 558.190429688 -10 515.78515625 -10 c 0,40,41
 466.955078125 -10 466.955078125 -10 434.1875 14 c 128,-1,42
 401.419921875 38 401.419921875 38 387.28515625 81 c 1,43,-1
 384.71484375 81 l 1,44,45
 371.865234375 38 371.865234375 38 339.09765625 14 c 128,-1,46
 306.330078125 -10 306.330078125 -10 253.64453125 -10 c 0,0,1
EndSplineSet
EndChar

StartChar: X
Encoding: 88 88 64
Width: 771
Flags: W
AnchorPoint: "Anchor-3" 745.942 572 basechar 0
AnchorPoint: "Anchor-2" 386.143 572 basechar 0
AnchorPoint: "Anchor-1" 386.143 0 basechar 0
LayerCount: 2
Fore
SplineSet
67.462890625 0 m 5,0,-1
 315.467773438 295 l 5,1,-1
 88.0224609375 572 l 5,2,-1
 211.3828125 572 l 5,3,-1
 386.142578125 354 l 5,4,-1
 560.90234375 572 l 5,5,-1
 685.547851562 572 l 5,6,-1
 452.962890625 292 l 5,7,-1
 703.537109375 0 l 5,8,-1
 575.037109375 0 l 5,9,-1
 384.857421875 231 l 5,10,-1
 193.392578125 0 l 5,11,-1
 67.462890625 0 l 5,0,-1
EndSplineSet
EndChar

StartChar: Y
Encoding: 89 89 65
Width: 771
Flags: W
AnchorPoint: "Anchor-3" 730.942 572 basechar 0
AnchorPoint: "Anchor-2" 371.143 572 basechar 0
AnchorPoint: "Anchor-1" 371.143 0 basechar 0
LayerCount: 2
Fore
SplineSet
313.317382812 0 m 5,0,-1
 313.317382812 218 l 5,1,-1
 66.59765625 572 l 5,2,-1
 189.95703125 572 l 5,3,-1
 371.142578125 299 l 5,4,-1
 553.612304688 572 l 5,5,-1
 674.40234375 572 l 5,6,-1
 427.682617188 222 l 5,7,-1
 427.682617188 0 l 5,8,-1
 313.317382812 0 l 5,0,-1
EndSplineSet
EndChar

StartChar: Z
Encoding: 90 90 66
Width: 771
Flags: W
AnchorPoint: "Anchor-1" 371 536 basechar 0
AnchorPoint: "Anchor-0" 371 0 basechar 0
LayerCount: 2
Fore
SplineSet
613.865234375 536 m 5,0,-1
 613.865234375 470 l 5,1,-1
 471.23046875 313 l 5,2,-1
 601.014648438 313 l 5,3,-1
 601.014648438 243 l 5,4,-1
 406.98046875 243 l 5,5,-1
 248.924804688 68 l 5,6,-1
 622.860351562 68 l 5,7,-1
 622.860351562 0 l 5,8,-1
 119.139648438 0 l 5,9,-1
 119.139648438 58 l 5,10,-1
 286.190429688 243 l 5,11,-1
 142.26953125 243 l 5,12,-1
 142.26953125 313 l 5,13,-1
 349.155273438 313 l 5,14,-1
 489.219726562 468 l 5,15,-1
 140.985351562 468 l 5,16,-1
 140.985351562 536 l 5,17,-1
 613.865234375 536 l 5,0,-1
EndSplineSet
EndChar

StartChar: a
Encoding: 97 97 67
Width: 771
Flags: W
AnchorPoint: "Anchor-3" 745.65 536 basechar 0
AnchorPoint: "Anchor-2" 392.275 536 basechar 0
AnchorPoint: "Anchor-1" 385.85 0 basechar 0
AnchorPoint: "Anchor-0" 694.25 10 basechar 0
LayerCount: 2
Fore
SplineSet
316.459960938 -10 m 4,0,1
 214.9453125 -10 214.9453125 -10 152.622070312 29 c 132,-1,2
 90.2998046875 68 90.2998046875 68 90.2998046875 147 c 4,3,4
 90.2998046875 205 90.2998046875 205 126.280273438 243.5 c 132,-1,5
 162.259765625 282 162.259765625 282 232.29296875 301.5 c 132,-1,6
 302.325195312 321 302.325195312 321 402.5546875 323 c 6,7,-1
 550.330078125 326 l 5,8,-1
 550.330078125 348 l 6,9,10
 550.330078125 420 550.330078125 420 504.0703125 446.5 c 132,-1,11
 457.809570312 473 457.809570312 473 379.424804688 473 c 4,12,13
 324.169921875 473 324.169921875 473 274.0546875 462 c 132,-1,14
 223.940429688 451 223.940429688 451 178.96484375 431 c 5,15,-1
 139.129882812 499 l 5,16,17
 187.959960938 518 187.959960938 518 247.712890625 532 c 132,-1,18
 307.46484375 546 307.46484375 546 385.849609375 546 c 4,19,20
 515.634765625 546 515.634765625 546 585.66796875 500.5 c 132,-1,21
 655.700195312 455 655.700195312 455 655.700195312 359 c 6,22,-1
 655.700195312 0 l 5,23,-1
 563.1796875 0 l 5,24,-1
 550.330078125 74 l 5,25,-1
 545.190429688 74 l 5,26,27
 516.919921875 46 516.919921875 46 482.8671875 27.5 c 132,-1,28
 448.815429688 9 448.815429688 9 407.6953125 -0.5 c 132,-1,29
 366.575195312 -10 366.575195312 -10 316.459960938 -10 c 4,0,1
335.735351562 63 m 4,30,31
 393.559570312 63 393.559570312 63 442.389648438 79.5 c 132,-1,32
 491.219726562 96 491.219726562 96 520.775390625 129.5 c 132,-1,33
 550.330078125 163 550.330078125 163 550.330078125 214 c 6,34,-1
 550.330078125 262 l 5,35,-1
 426.969726562 259 l 6,36,37
 344.73046875 257 344.73046875 257 294.615234375 243.5 c 132,-1,38
 244.5 230 244.5 230 222.012695312 206.5 c 132,-1,39
 199.525390625 183 199.525390625 183 199.525390625 150 c 4,40,41
 199.525390625 104 199.525390625 104 236.790039062 83.5 c 132,-1,42
 274.0546875 63 274.0546875 63 335.735351562 63 c 4,30,31
EndSplineSet
EndChar

StartChar: b
Encoding: 98 98 68
Width: 771
Flags: W
LayerCount: 2
Fore
SplineSet
711.247070312 473 m 5,0,-1
 620.012695312 473 l 5,1,-1
 620.012695312 2 l 5,2,-1
 515.927734375 2 l 5,3,-1
 515.927734375 154 l 5,4,-1
 535.202148438 128 l 5,5,6
 512.072265625 115 512.072265625 115 480.58984375 101.5 c 132,-1,7
 449.107421875 88 449.107421875 88 407.344726562 79.5 c 132,-1,8
 365.58203125 71 365.58203125 71 310.327148438 71 c 4,9,10
 238.3671875 71 238.3671875 71 181.184570312 92 c 132,-1,11
 124.002929688 113 124.002929688 113 91.8779296875 150.5 c 132,-1,12
 59.7529296875 188 59.7529296875 188 59.7529296875 239 c 4,13,14
 59.7529296875 296 59.7529296875 296 95.08984375 336 c 132,-1,15
 130.427734375 376 130.427734375 376 194.03515625 396.5 c 132,-1,16
 257.642578125 417 257.642578125 417 341.16796875 417 c 4,17,18
 359.157226562 417 359.157226562 417 384.857421875 415.5 c 132,-1,19
 410.557617188 414 410.557617188 414 435.615234375 412 c 132,-1,20
 460.672851562 410 460.672851562 410 474.807617188 407 c 5,21,-1
 467.09765625 338 l 5,22,23
 441.397460938 342 441.397460938 342 409.272460938 345 c 132,-1,24
 377.147460938 348 377.147460938 348 345.022460938 348 c 4,25,26
 260.212890625 348 260.212890625 348 212.025390625 320.5 c 132,-1,27
 163.837890625 293 163.837890625 293 163.837890625 240 c 4,28,29
 163.837890625 188 163.837890625 188 206.884765625 162.5 c 132,-1,30
 249.932617188 137 249.932617188 137 311.612304688 137 c 4,31,32
 364.297851562 137 364.297851562 137 406.059570312 150 c 132,-1,33
 447.822265625 163 447.822265625 163 479.3046875 183 c 132,-1,34
 510.787109375 203 510.787109375 203 532.6328125 224 c 5,35,-1
 515.927734375 173 l 5,36,-1
 515.927734375 473 l 5,37,-1
 145.84765625 473 l 5,38,-1
 145.84765625 536 l 5,39,-1
 711.247070312 536 l 5,40,-1
 711.247070312 473 l 5,0,-1
264.067382812 377 m 5,41,-1
 485.087890625 162 l 5,42,-1
 425.977539062 120 l 5,43,-1
 184.397460938 354 l 5,44,-1
 264.067382812 377 l 5,41,-1
EndSplineSet
EndChar

StartChar: c
Encoding: 99 99 69
Width: 771
Flags: W
AnchorPoint: "Anchor-1" 409 536 basechar 0
AnchorPoint: "Anchor-0" 409 0 basechar 0
LayerCount: 2
Fore
SplineSet
480.959960938 -10 m 4,0,1
 329.330078125 -10 329.330078125 -10 245.8046875 57 c 132,-1,2
 162.280273438 124 162.280273438 124 162.280273438 245 c 4,3,4
 162.280273438 325 162.280273438 325 199.544921875 380.5 c 132,-1,5
 236.809570312 436 236.809570312 436 306.200195312 465 c 5,6,-1
 135.294921875 465 l 5,7,-1
 135.294921875 537 l 5,8,-1
 682.705078125 537 l 5,9,-1
 682.705078125 465 l 5,10,-1
 537.5 465 l 6,11,12
 416.709960938 465 416.709960938 465 347.962890625 411.5 c 132,-1,13
 279.21484375 358 279.21484375 358 279.21484375 252 c 4,14,15
 279.21484375 165 279.21484375 165 334.469726562 114.5 c 132,-1,16
 389.724609375 64 389.724609375 64 492.525390625 64 c 4,17,18
 540.0703125 64 540.0703125 64 583.759765625 73.5 c 132,-1,19
 627.450195312 83 627.450195312 83 668.5703125 99 c 5,20,-1
 668.5703125 21 l 5,21,22
 631.3046875 5 631.3046875 5 586.330078125 -2.5 c 132,-1,23
 541.35546875 -10 541.35546875 -10 480.959960938 -10 c 4,0,1
EndSplineSet
EndChar

StartChar: d
Encoding: 100 100 70
Width: 771
Flags: W
AnchorPoint: "Anchor-2" 427.402 -24 basechar 0
AnchorPoint: "Anchor-1" 445.393 -24 basechar 0
AnchorPoint: "Anchor-0" 536.628 554 basechar 0
LayerCount: 2
Fore
SplineSet
481.372070312 198 m 4,0,1
 444.107421875 198 444.107421875 198 406.842773438 191 c 132,-1,2
 369.577148438 184 369.577148438 184 340.022460938 173 c 5,3,4
 300.1875 192 300.1875 192 267.419921875 215 c 132,-1,5
 234.65234375 238 234.65234375 238 216.01953125 266 c 132,-1,6
 197.387695312 294 197.387695312 294 197.387695312 328 c 4,7,8
 197.387695312 356 197.387695312 356 210.237304688 376 c 132,-1,9
 223.087890625 396 223.087890625 396 244.932617188 409 c 4,10,11
 264.20703125 421 264.20703125 421 287.98046875 428 c 132,-1,12
 311.752929688 435 311.752929688 435 343.235351562 438 c 132,-1,13
 374.717773438 441 374.717773438 441 417.122070312 441 c 6,14,-1
 536.627929688 441 l 5,15,-1
 536.627929688 498 l 5,16,-1
 203.8125 498 l 5,17,-1
 203.8125 554 l 5,18,-1
 697.252929688 554 l 5,19,-1
 697.252929688 498 l 5,20,-1
 640.712890625 498 l 5,21,-1
 640.712890625 370 l 5,22,-1
 404.272460938 370 l 6,23,24
 364.4375 370 364.4375 370 347.732421875 367 c 132,-1,25
 331.02734375 364 331.02734375 364 319.462890625 357 c 4,26,27
 310.467773438 351 310.467773438 351 305.327148438 342.5 c 132,-1,28
 300.1875 334 300.1875 334 300.1875 323 c 4,29,30
 300.1875 299 300.1875 299 318.177734375 282.5 c 132,-1,31
 336.16796875 266 336.16796875 266 356.727539062 253 c 5,32,33
 386.282226562 261 386.282226562 261 419.692382812 265.5 c 132,-1,34
 453.102539062 270 453.102539062 270 486.512695312 270 c 4,35,36
 581.602539062 270 581.602539062 270 644.567382812 232.5 c 132,-1,37
 707.532226562 195 707.532226562 195 707.532226562 130 c 4,38,39
 707.532226562 85 707.532226562 85 679.262695312 50.5 c 132,-1,40
 650.9921875 16 650.9921875 16 595.094726562 -4 c 132,-1,41
 539.197265625 -24 539.197265625 -24 454.387695312 -24 c 4,42,43
 370.862304688 -24 370.862304688 -24 298.259765625 -4 c 132,-1,44
 225.657226562 16 225.657226562 16 165.262695312 52 c 132,-1,45
 104.8671875 88 104.8671875 88 53.4677734375 134 c 5,46,-1
 131.852539062 183 l 5,47,48
 205.09765625 115 205.09765625 115 281.5546875 82.5 c 132,-1,49
 358.012695312 50 358.012695312 50 454.387695312 50 c 4,50,51
 530.202148438 50 530.202148438 50 566.825195312 70.5 c 132,-1,52
 603.447265625 91 603.447265625 91 603.447265625 128 c 4,53,54
 603.447265625 163 603.447265625 163 571.96484375 180.5 c 132,-1,55
 540.482421875 198 540.482421875 198 481.372070312 198 c 4,0,1
EndSplineSet
EndChar

StartChar: e
Encoding: 101 101 71
Width: 771
Flags: W
LayerCount: 2
Fore
SplineSet
398.280273438 546 m 4,0,1
 486.9453125 546 486.9453125 546 550.552734375 516 c 132,-1,2
 614.16015625 486 614.16015625 486 648.212890625 431.5 c 132,-1,3
 682.264648438 377 682.264648438 377 682.264648438 304 c 6,4,-1
 682.264648438 251 l 5,5,-1
 210.669921875 251 l 5,6,7
 213.240234375 160 213.240234375 160 270.422851562 112.5 c 132,-1,8
 327.60546875 65 327.60546875 65 430.405273438 65 c 4,9,10
 495.940429688 65 495.940429688 65 546.697265625 74.5 c 132,-1,11
 597.455078125 84 597.455078125 84 651.424804688 102 c 5,12,-1
 651.424804688 25 l 5,13,14
 598.740234375 7 598.740234375 7 547.33984375 -1.5 c 132,-1,15
 495.940429688 -10 495.940429688 -10 425.264648438 -10 c 4,16,17
 327.60546875 -10 327.60546875 -10 252.432617188 21 c 132,-1,18
 177.259765625 52 177.259765625 52 135.497070312 113.5 c 132,-1,19
 93.7353515625 175 93.7353515625 175 93.7353515625 264 c 4,20,21
 93.7353515625 352 93.7353515625 352 131.642578125 415 c 132,-1,22
 169.549804688 478 169.549804688 478 238.297851562 512 c 132,-1,23
 307.044921875 546 307.044921875 546 398.280273438 546 c 4,0,1
396.995117188 474 m 4,24,25
 316.040039062 474 316.040039062 474 269.137695312 433.5 c 132,-1,26
 222.235351562 393 222.235351562 393 213.240234375 321 c 5,27,-1
 564.044921875 321 l 5,28,29
 564.044921875 367 564.044921875 367 546.0546875 401 c 132,-1,30
 528.065429688 435 528.065429688 435 491.442382812 454.5 c 132,-1,31
 454.8203125 474 454.8203125 474 396.995117188 474 c 4,24,25
EndSplineSet
EndChar

StartChar: f
Encoding: 102 102 72
Width: 771
Flags: W
AnchorPoint: "Anchor-2" 419 0 basechar 0
AnchorPoint: "Anchor-1" 379 0 basechar 0
AnchorPoint: "Anchor-0" 379 536 basechar 0
LayerCount: 2
Fore
SplineSet
460 465 m 1,0,-1
 460 262 l 1,1,-1
 442 279 l 1,2,3
 470 312 470 312 503 330 c 128,-1,4
 536 348 536 348 578 348 c 0,5,6
 643 348 643 348 684 306.5 c 128,-1,7
 725 265 725 265 725 188 c 0,8,9
 725 142 725 142 710 90 c 128,-1,10
 695 38 695 38 660 -12 c 1,11,-1
 588 29 l 1,12,13
 613 61 613 61 629 103 c 128,-1,14
 645 145 645 145 645 186 c 0,15,16
 645 233 645 233 625 256 c 128,-1,17
 605 279 605 279 570 279 c 0,18,19
 550 279 550 279 528 267.5 c 128,-1,20
 506 256 506 256 484 233.5 c 128,-1,21
 462 211 462 211 440 179 c 1,22,-1
 460 242 l 1,23,-1
 460 0 l 1,24,-1
 379 0 l 1,25,-1
 379 178 l 1,26,-1
 395 155 l 1,27,28
 370 133 370 133 334.5 114 c 128,-1,29
 299 95 299 95 248 95 c 0,30,31
 208 95 208 95 176 109.5 c 128,-1,32
 144 124 144 124 125 146 c 0,33,34
 109 165 109 165 98.5 187 c 128,-1,35
 88 209 88 209 83.5 237 c 128,-1,36
 79 265 79 265 79 303 c 2,37,-1
 79 465 l 1,38,-1
 47 465 l 5,39,-1
 47 536 l 5,40,-1
 640 536 l 1,41,-1
 640 465 l 1,42,-1
 460 465 l 1,0,-1
160 465 m 1,43,-1
 160 309 l 2,44,45
 160 254 160 254 166 230 c 128,-1,46
 172 206 172 206 188 189 c 0,47,48
 199 177 199 177 214 171.5 c 128,-1,49
 229 166 229 166 248 166 c 0,50,51
 281 166 281 166 307 176.5 c 128,-1,52
 333 187 333 187 355.5 205.5 c 128,-1,53
 378 224 378 224 397 246 c 1,54,-1
 379 192 l 1,55,-1
 379 465 l 1,56,-1
 160 465 l 1,43,-1
EndSplineSet
EndChar

StartChar: g
Encoding: 103 103 73
Width: 771
Flags: W
LayerCount: 2
Fore
SplineSet
354.012695312 546 m 4,0,1
 422.1171875 546 422.1171875 546 476.73046875 526 c 132,-1,2
 531.342773438 506 531.342773438 506 569.892578125 465 c 5,3,-1
 576.317382812 465 l 5,4,-1
 591.737304688 536 l 5,5,-1
 681.6875 536 l 5,6,-1
 681.6875 -9 l 6,7,8
 681.6875 -85 681.6875 -85 648.27734375 -136.5 c 132,-1,9
 614.8671875 -188 614.8671875 -188 546.762695312 -214 c 132,-1,10
 478.657226562 -240 478.657226562 -240 373.287109375 -240 c 4,11,12
 298.7578125 -240 298.7578125 -240 236.434570312 -231.5 c 132,-1,13
 174.112304688 -223 174.112304688 -223 125.282226562 -206 c 5,14,-1
 125.282226562 -125 l 5,15,16
 174.112304688 -145 174.112304688 -145 239.647460938 -156 c 132,-1,17
 305.182617188 -167 305.182617188 -167 379.712890625 -167 c 4,18,19
 468.377929688 -167 468.377929688 -167 519.134765625 -126.5 c 132,-1,20
 569.892578125 -86 569.892578125 -86 569.892578125 -16 c 6,21,-1
 569.892578125 5 l 6,22,23
 569.892578125 17 569.892578125 17 571.177734375 39.5 c 132,-1,24
 572.462890625 62 572.462890625 62 573.747070312 71 c 5,25,-1
 568.607421875 71 l 5,26,27
 532.627929688 30 532.627929688 30 479.299804688 10 c 132,-1,28
 425.97265625 -10 425.97265625 -10 355.297851562 -10 c 4,29,30
 221.657226562 -10 221.657226562 -10 146.485351562 63 c 132,-1,31
 71.3125 136 71.3125 136 71.3125 267 c 4,32,33
 71.3125 395 71.3125 395 146.485351562 470.5 c 132,-1,34
 221.657226562 546 221.657226562 546 354.012695312 546 c 4,0,1
369.432617188 472 m 4,35,36
 311.607421875 472 311.607421875 472 271.129882812 448 c 132,-1,37
 230.65234375 424 230.65234375 424 209.450195312 378 c 132,-1,38
 188.247070312 332 188.247070312 332 188.247070312 266 c 4,39,40
 188.247070312 167 188.247070312 167 235.150390625 114.5 c 132,-1,41
 282.052734375 62 282.052734375 62 372.002929688 62 c 4,42,43
 424.6875 62 424.6875 62 461.952148438 72.5 c 132,-1,44
 499.217773438 83 499.217773438 83 523.6328125 105.5 c 132,-1,45
 548.047851562 128 548.047851562 128 559.612304688 163 c 132,-1,46
 571.177734375 198 571.177734375 198 571.177734375 246 c 6,47,-1
 571.177734375 267 l 6,48,49
 571.177734375 340 571.177734375 340 549.974609375 385 c 132,-1,50
 528.772460938 430 528.772460938 430 483.797851562 451 c 132,-1,51
 438.822265625 472 438.822265625 472 369.432617188 472 c 4,35,36
EndSplineSet
EndChar

StartChar: h
Encoding: 104 104 74
Width: 771
Flags: W
LayerCount: 2
Fore
SplineSet
214.669921875 384 m 6,0,1
 214.669921875 365 214.669921875 365 212.7421875 345 c 132,-1,2
 210.815429688 325 210.815429688 325 208.245117188 309 c 5,3,-1
 215.955078125 309 l 5,4,5
 237.799804688 337 237.799804688 337 271.209960938 355 c 132,-1,6
 304.620117188 373 304.620117188 373 345.740234375 382.5 c 132,-1,7
 386.860351562 392 386.860351562 392 430.549804688 392 c 4,8,9
 514.075195312 392 514.075195312 392 569.97265625 371.5 c 132,-1,10
 625.870117188 351 625.870117188 351 654.139648438 308 c 132,-1,11
 682.41015625 265 682.41015625 265 682.41015625 196 c 6,12,-1
 682.41015625 0 l 5,13,-1
 570.615234375 0 l 5,14,-1
 570.615234375 190 l 6,15,16
 570.615234375 255 570.615234375 255 533.349609375 287 c 132,-1,17
 496.084960938 319 496.084960938 319 416.415039062 319 c 4,18,19
 339.315429688 319 339.315429688 319 295.625 296.5 c 132,-1,20
 251.934570312 274 251.934570312 274 233.302734375 230.5 c 132,-1,21
 214.669921875 187 214.669921875 187 214.669921875 124 c 6,22,-1
 214.669921875 0 l 5,23,-1
 101.58984375 0 l 5,24,-1
 101.58984375 580 l 5,25,-1
 214.669921875 580 l 5,26,-1
 214.669921875 384 l 6,0,1
EndSplineSet
EndChar

StartChar: i
Encoding: 105 105 75
Width: 771
Flags: W
AnchorPoint: "Anchor-4" 416.85 283 basechar 0
AnchorPoint: "Anchor-3" 645.58 760 basechar 0
AnchorPoint: "Anchor-2" 400.145 760 basechar 0
AnchorPoint: "Anchor-1" 418.135 0 basechar 0
LayerCount: 2
Fore
SplineSet
108.450195312 0 m 5,0,-1
 108.450195312 60 l 5,1,-1
 353.884765625 75 l 5,2,-1
 353.884765625 461 l 5,3,-1
 129.009765625 474 l 5,4,-1
 129.009765625 536 l 5,5,-1
 469.53515625 536 l 5,6,-1
 469.53515625 75 l 5,7,-1
 699.549804688 60 l 5,8,-1
 699.549804688 0 l 5,9,-1
 108.450195312 0 l 5,0,-1
400.14453125 633 m 260,10,11
 366.735351562 633 366.735351562 633 342.962890625 649 c 132,-1,12
 319.190429688 665 319.190429688 665 319.190429688 696 c 4,13,14
 319.190429688 729 319.190429688 729 342.962890625 744.5 c 132,-1,15
 366.735351562 760 366.735351562 760 400.14453125 760 c 260,16,17
 433.5546875 760 433.5546875 760 457.327148438 744.5 c 132,-1,18
 481.099609375 729 481.099609375 729 481.099609375 696 c 4,19,20
 481.099609375 665 481.099609375 665 457.327148438 649 c 132,-1,21
 433.5546875 633 433.5546875 633 400.14453125 633 c 260,10,11
EndSplineSet
Substitution2: "Single Substitution lookup 127 subtable" dotlessi
Substitution2: "Single Substitution lookup 126 subtable" dotlessi
EndChar

StartChar: j
Encoding: 106 106 76
Width: 771
Flags: W
LayerCount: 2
Fore
SplineSet
421.544921875 578 m 4,0,1
 358.580078125 578 358.580078125 578 320.030273438 606 c 132,-1,2
 281.48046875 634 281.48046875 634 281.48046875 684 c 260,3,4
 281.48046875 734 281.48046875 734 320.030273438 761.5 c 132,-1,5
 358.580078125 789 358.580078125 789 421.544921875 789 c 4,6,7
 481.940429688 789 481.940429688 789 523.059570312 761.5 c 132,-1,8
 564.1796875 734 564.1796875 734 564.1796875 685 c 4,9,10
 564.1796875 634 564.1796875 634 523.702148438 606 c 132,-1,11
 483.224609375 578 483.224609375 578 421.544921875 578 c 4,0,1
421.544921875 628 m 4,12,13
 453.669921875 628 453.669921875 628 473.587890625 643 c 132,-1,14
 493.504882812 658 493.504882812 658 493.504882812 684 c 260,15,16
 493.504882812 710 493.504882812 710 472.9453125 725 c 132,-1,17
 452.384765625 740 452.384765625 740 421.544921875 740 c 260,18,19
 390.705078125 740 390.705078125 740 370.14453125 725 c 132,-1,20
 349.584960938 710 349.584960938 710 349.584960938 684 c 260,21,22
 349.584960938 658 349.584960938 658 368.217773438 643 c 132,-1,23
 386.849609375 628 386.849609375 628 421.544921875 628 c 4,12,13
625.860351562 0 m 5,24,-1
 122.139648438 0 l 5,25,-1
 122.139648438 58 l 5,26,-1
 492.219726562 468 l 5,27,-1
 143.985351562 468 l 5,28,-1
 143.985351562 536 l 5,29,-1
 616.865234375 536 l 5,30,-1
 616.865234375 470 l 5,31,-1
 251.924804688 68 l 5,32,-1
 625.860351562 68 l 5,33,-1
 625.860351562 0 l 5,24,-1
EndSplineSet
Substitution2: "Single Substitution lookup 127 subtable" uni0237
Substitution2: "Single Substitution lookup 126 subtable" uni0237
EndChar

StartChar: k
Encoding: 107 107 77
Width: 771
Flags: W
AnchorPoint: "Anchor-2" 411 2 basechar 0
AnchorPoint: "Anchor-1" 371 2 basechar 0
AnchorPoint: "Anchor-0" 371 535 basechar 0
LayerCount: 2
Fore
SplineSet
645 471 m 1,0,-1
 452 471 l 1,1,-1
 452 300 l 1,2,-1
 448 309 l 1,3,4
 472 335 472 335 503 349 c 128,-1,5
 534 363 534 363 569 363 c 0,6,7
 634 363 634 363 675 321.5 c 128,-1,8
 716 280 716 280 716 203 c 0,9,10
 716 157 716 157 701 105 c 128,-1,11
 686 53 686 53 651 3 c 1,12,-1
 579 44 l 1,13,14
 604 76 604 76 620 118 c 128,-1,15
 636 160 636 160 636 201 c 0,16,17
 636 248 636 248 616.5 271 c 128,-1,18
 597 294 597 294 562 294 c 0,19,20
 535 294 535 294 506 275 c 128,-1,21
 477 256 477 256 447 216 c 1,22,-1
 452 241 l 1,23,-1
 452 2 l 1,24,-1
 371 2 l 1,25,-1
 371 174 l 1,26,-1
 385 150 l 1,27,28
 369 136 369 136 346.5 120 c 128,-1,29
 324 104 324 104 294.5 93 c 128,-1,30
 265 82 265 82 226 82 c 0,31,32
 179 82 179 82 137.5 101 c 128,-1,33
 96 120 96 120 71 158.5 c 128,-1,34
 46 197 46 197 46 254 c 0,35,36
 46 308 46 308 71 347 c 128,-1,37
 96 386 96 386 141 407 c 128,-1,38
 186 428 186 428 244 428 c 0,39,40
 267 428 267 428 295.5 424.5 c 128,-1,41
 324 421 324 421 339 418 c 1,42,-1
 333 345 l 1,43,44
 317 349 317 349 292.5 352 c 128,-1,45
 268 355 268 355 249 355 c 0,46,47
 191 355 191 355 159 329 c 128,-1,48
 127 303 127 303 127 256 c 0,49,50
 127 203 127 203 157.5 177.5 c 128,-1,51
 188 152 188 152 228 152 c 0,52,53
 278 152 278 152 316.5 179 c 128,-1,54
 355 206 355 206 388 242 c 1,55,-1
 371 188 l 1,56,-1
 371 471 l 1,57,-1
 113 471 l 1,58,-1
 113 536 l 1,59,-1
 645 536 l 1,60,-1
 645 471 l 1,0,-1
EndSplineSet
EndChar

StartChar: l
Encoding: 108 108 78
Width: 771
Flags: W
LayerCount: 2
Fore
SplineSet
99.03125 502 m 5,0,-1
 99.03125 572 l 5,1,-1
 739.732421875 572 l 5,2,-1
 739.732421875 502 l 5,3,-1
 663.403320312 502 l 5,4,-1
 663.403320312 0 l 5,5,-1
 569.727539062 0 l 5,6,-1
 569.727539062 377 l 5,7,-1
 620.61328125 341 l 6,8,9
 607.890625 350 607.890625 350 584.18359375 353.5 c 4,10,11
 567.4140625 356 567.4140625 356 553.536132812 356 c 4,12,13
 525.780273438 356 525.780273438 356 496.8671875 344 c 132,-1,14
 467.955078125 332 467.955078125 332 441.35546875 300.5 c 132,-1,15
 414.755859375 269 414.755859375 269 393.939453125 208 c 5,16,-1
 304.888671875 232 l 5,17,18
 333.80078125 327 333.80078125 327 400.299804688 376.5 c 132,-1,19
 466.798828125 426 466.798828125 426 559.318359375 426 c 4,20,21
 578.978515625 426 578.978515625 426 598.639648438 423 c 132,-1,22
 618.299804688 420 618.299804688 420 632.177734375 416 c 5,23,-1
 635.647460938 394 l 5,24,-1
 569.727539062 413 l 5,25,-1
 569.727539062 502 l 5,26,-1
 99.03125 502 l 5,0,-1
371.965820312 292 m 5,27,28
 336.114257812 318 336.114257812 318 301.997070312 335.5 c 132,-1,29
 267.879882812 353 267.879882812 353 223.93359375 353 c 4,30,31
 177.673828125 353 177.673828125 353 152.80859375 330 c 132,-1,32
 127.944335938 307 127.944335938 307 127.944335938 271 c 4,33,34
 127.944335938 233 127.944335938 233 152.80859375 198.5 c 132,-1,35
 177.673828125 164 177.673828125 164 225.08984375 126.5 c 132,-1,36
 272.506835938 89 272.506835938 89 339.583984375 40 c 5,37,-1
 277.1328125 -12 l 5,38,39
 210.0546875 38 210.0546875 38 154.54296875 83.5 c 132,-1,40
 99.03125 129 99.03125 129 66.6494140625 175.5 c 132,-1,41
 34.267578125 222 34.267578125 222 34.267578125 275 c 4,42,43
 34.267578125 315 34.267578125 315 51.0361328125 343.5 c 132,-1,44
 67.8056640625 372 67.8056640625 372 94.9833984375 390.5 c 132,-1,45
 122.162109375 409 122.162109375 409 154.54296875 417.5 c 132,-1,46
 186.92578125 426 186.92578125 426 218.150390625 426 c 4,47,48
 256.315429688 426 256.315429688 426 288.698242188 418 c 132,-1,49
 321.079101562 410 321.079101562 410 351.1484375 394.5 c 132,-1,50
 381.217773438 379 381.217773438 379 408.973632812 357 c 5,51,-1
 371.965820312 292 l 5,27,28
EndSplineSet
EndChar

StartChar: m
Encoding: 109 109 79
Width: 771
Flags: W
LayerCount: 2
Fore
SplineSet
645.712890625 483 m 5,0,-1
 645.712890625 0 l 5,1,-1
 541.627929688 0 l 5,2,-1
 541.627929688 182 l 5,3,-1
 257.642578125 182 l 5,4,-1
 257.642578125 145 l 6,5,6
 257.642578125 112 257.642578125 112 239.009765625 97.5 c 132,-1,7
 220.377929688 83 220.377929688 83 195.962890625 83 c 260,8,9
 171.547851562 83 171.547851562 83 144.5625 95.5 c 132,-1,10
 117.577148438 108 117.577148438 108 94.447265625 127.5 c 132,-1,11
 71.3173828125 147 71.3173828125 147 56.5400390625 169 c 132,-1,12
 41.7626953125 191 41.7626953125 191 41.7626953125 210 c 4,13,14
 41.7626953125 228 41.7626953125 228 59.1103515625 240.5 c 132,-1,15
 76.45703125 253 76.45703125 253 120.147460938 253 c 6,16,-1
 153.557617188 253 l 5,17,-1
 153.557617188 483 l 5,18,-1
 53.3271484375 483 l 5,19,-1
 53.3271484375 554 l 5,20,-1
 729.237304688 554 l 5,21,-1
 729.237304688 483 l 5,22,-1
 645.712890625 483 l 5,0,-1
541.627929688 483 m 5,23,-1
 257.642578125 483 l 5,24,-1
 257.642578125 253 l 5,25,-1
 541.627929688 253 l 5,26,-1
 541.627929688 483 l 5,23,-1
EndSplineSet
EndChar

StartChar: n
Encoding: 110 110 80
Width: 771
Flags: W
LayerCount: 2
Fore
SplineSet
146.84765625 551 m 5,0,-1
 699.397460938 551 l 5,1,-1
 699.397460938 482 l 5,2,-1
 624.8671875 482 l 5,3,-1
 624.8671875 0 l 5,4,-1
 520.782226562 0 l 5,5,-1
 520.782226562 233 l 5,6,-1
 288.197265625 233 l 5,7,-1
 288.197265625 179 l 6,8,9
 288.197265625 151 288.197265625 151 270.20703125 137 c 132,-1,10
 252.217773438 123 252.217773438 123 222.662109375 123 c 4,11,12
 199.532226562 123 199.532226562 123 173.190429688 135 c 132,-1,13
 146.84765625 147 146.84765625 147 124.360351562 167 c 132,-1,14
 101.872070312 187 101.872070312 187 87.7373046875 209.5 c 132,-1,15
 73.6025390625 232 73.6025390625 232 73.6025390625 253 c 4,16,17
 73.6025390625 276 73.6025390625 276 90.9501953125 290 c 132,-1,18
 108.297851562 304 108.297851562 304 151.987304688 304 c 6,19,-1
 520.782226562 304 l 5,20,-1
 520.782226562 482 l 5,21,-1
 146.84765625 482 l 5,22,-1
 146.84765625 551 l 5,0,-1
EndSplineSet
EndChar

StartChar: o
Encoding: 111 111 81
Width: 771
Flags: W
LayerCount: 2
Fore
SplineSet
705.6796875 269 m 4,0,1
 705.6796875 202 705.6796875 202 683.192382812 150.5 c 132,-1,2
 660.705078125 99 660.705078125 99 618.942382812 63 c 132,-1,3
 577.1796875 27 577.1796875 27 517.427734375 8.5 c 132,-1,4
 457.674804688 -10 457.674804688 -10 384.4296875 -10 c 4,5,6
 316.325195312 -10 316.325195312 -10 258.5 8.5 c 132,-1,7
 200.674804688 27 200.674804688 27 158.26953125 63 c 132,-1,8
 115.865234375 99 115.865234375 99 92.0927734375 150.5 c 132,-1,9
 68.3203125 202 68.3203125 202 68.3203125 269 c 4,10,11
 68.3203125 358 68.3203125 358 106.870117188 419.5 c 132,-1,12
 145.419921875 481 145.419921875 481 217.379882812 513.5 c 132,-1,13
 289.33984375 546 289.33984375 546 388.28515625 546 c 4,14,15
 482.08984375 546 482.08984375 546 553.407226562 513.5 c 132,-1,16
 624.724609375 481 624.724609375 481 665.202148438 419.5 c 132,-1,17
 705.6796875 358 705.6796875 358 705.6796875 269 c 4,0,1
185.254882812 269 m 4,18,19
 185.254882812 206 185.254882812 206 206.45703125 159.5 c 132,-1,20
 227.66015625 113 227.66015625 113 272.634765625 88 c 132,-1,21
 317.610351562 63 317.610351562 63 387 63 c 260,22,23
 456.389648438 63 456.389648438 63 501.365234375 88 c 132,-1,24
 546.33984375 113 546.33984375 113 567.54296875 159.5 c 132,-1,25
 588.745117188 206 588.745117188 206 588.745117188 269 c 4,26,27
 588.745117188 333 588.745117188 333 566.900390625 378 c 132,-1,28
 545.0546875 423 545.0546875 423 500.72265625 447.5 c 132,-1,29
 456.389648438 472 456.389648438 472 385.71484375 472 c 4,30,31
 280.344726562 472 280.344726562 472 232.799804688 418 c 132,-1,32
 185.254882812 364 185.254882812 364 185.254882812 269 c 4,18,19
EndSplineSet
EndChar

StartChar: p
Encoding: 112 112 82
Width: 771
Flags: W
LayerCount: 2
Fore
SplineSet
634.004882812 483 m 5,0,-1
 634.004882812 0 l 5,1,-1
 529.919921875 0 l 5,2,-1
 529.919921875 227 l 5,3,-1
 554.334960938 203 l 5,4,5
 527.349609375 189 527.349609375 189 496.509765625 175.5 c 132,-1,6
 465.669921875 162 465.669921875 162 429.047851562 154 c 132,-1,7
 392.424804688 146 392.424804688 146 344.879882812 146 c 4,8,9
 293.48046875 146 293.48046875 146 251.717773438 159.5 c 132,-1,10
 209.955078125 173 209.955078125 173 182.969726562 194 c 4,11,12
 161.125 212 161.125 212 146.990234375 233.5 c 132,-1,13
 132.85546875 255 132.85546875 255 126.4296875 285 c 132,-1,14
 120.004882812 315 120.004882812 315 120.004882812 358 c 6,15,-1
 120.004882812 483 l 5,16,-1
 46.759765625 483 l 5,17,-1
 46.759765625 554 l 5,18,-1
 725.240234375 554 l 5,19,-1
 725.240234375 483 l 5,20,-1
 634.004882812 483 l 5,0,-1
529.919921875 483 m 5,21,-1
 224.08984375 483 l 5,22,-1
 224.08984375 369 l 6,23,24
 224.08984375 328 224.08984375 328 227.9453125 304 c 132,-1,25
 231.799804688 280 231.799804688 280 240.15234375 265.5 c 132,-1,26
 248.504882812 251 248.504882812 251 262.639648438 240 c 4,27,28
 278.059570312 228 278.059570312 228 301.190429688 222.5 c 132,-1,29
 324.3203125 217 324.3203125 217 356.4453125 217 c 4,30,31
 396.280273438 217 396.280273438 217 432.90234375 229 c 132,-1,32
 469.525390625 241 469.525390625 241 499.72265625 259.5 c 132,-1,33
 529.919921875 278 529.919921875 278 550.48046875 298 c 5,34,-1
 529.919921875 246 l 5,35,-1
 529.919921875 483 l 5,21,-1
EndSplineSet
EndChar

StartChar: q
Encoding: 113 113 83
Width: 771
Flags: W
AnchorPoint: "Anchor-9" 353.17 0 basechar 0
AnchorPoint: "Anchor-8" 175.84 535 basechar 0
AnchorPoint: "Anchor-6" 484.24 840 basechar 0
LayerCount: 2
Fore
SplineSet
359.594726562 578 m 4,0,1
 296.629882812 578 296.629882812 578 258.080078125 606 c 132,-1,2
 219.530273438 634 219.530273438 634 219.530273438 684 c 260,3,4
 219.530273438 734 219.530273438 734 258.080078125 761.5 c 132,-1,5
 296.629882812 789 296.629882812 789 359.594726562 789 c 4,6,7
 419.990234375 789 419.990234375 789 461.110351562 761.5 c 132,-1,8
 502.23046875 734 502.23046875 734 502.23046875 685 c 4,9,10
 502.23046875 634 502.23046875 634 461.752929688 606 c 132,-1,11
 421.275390625 578 421.275390625 578 359.594726562 578 c 4,0,1
359.594726562 628 m 4,12,13
 391.719726562 628 391.719726562 628 411.637695312 643 c 132,-1,14
 431.5546875 658 431.5546875 658 431.5546875 684 c 260,15,16
 431.5546875 710 431.5546875 710 410.995117188 725 c 132,-1,17
 390.434570312 740 390.434570312 740 359.594726562 740 c 260,18,19
 328.754882812 740 328.754882812 740 308.1953125 725 c 132,-1,20
 287.634765625 710 287.634765625 710 287.634765625 684 c 260,21,22
 287.634765625 658 287.634765625 658 306.267578125 643 c 132,-1,23
 324.900390625 628 324.900390625 628 359.594726562 628 c 4,12,13
231.094726562 363 m 6,24,25
 231.094726562 347 231.094726562 347 229.16796875 321 c 132,-1,26
 227.240234375 295 227.240234375 295 225.955078125 276 c 5,27,-1
 231.094726562 276 l 5,28,29
 238.8046875 284 238.8046875 284 254.224609375 299 c 132,-1,30
 269.64453125 314 269.64453125 314 285.70703125 329.5 c 4,31,32
 312.049804688 353 312.049804688 353 313.334960938 355 c 6,33,-1
 533.0703125 536 l 5,34,-1
 665.424804688 536 l 5,35,-1
 386.580078125 307 l 5,36,-1
 684.700195312 0 l 5,37,-1
 548.490234375 0 l 5,38,-1
 309.48046875 250 l 5,39,-1
 231.094726562 197 l 5,40,-1
 231.094726562 0 l 5,41,-1
 119.299804688 0 l 5,42,-1
 119.299804688 535 l 5,43,-1
 231.094726562 535 l 5,44,-1
 231.094726562 363 l 6,24,25
EndSplineSet
EndChar

StartChar: r
Encoding: 114 114 84
Width: 771
Flags: W
AnchorPoint: "Anchor-2" 366.143 -42 basechar 0
AnchorPoint: "Anchor-1" 380.277 -42 basechar 0
LayerCount: 2
Fore
SplineSet
467.657226562 483 m 5,0,-1
 503.637695312 498 l 5,1,2
 517.772460938 482 517.772460938 482 526.125 468 c 132,-1,3
 534.477539062 454 534.477539062 454 534.477539062 416 c 4,4,5
 534.477539062 360 534.477539062 360 504.922851562 321.5 c 132,-1,6
 475.3671875 283 475.3671875 283 423.967773438 256 c 132,-1,7
 372.567382812 229 372.567382812 229 307.032226562 209 c 5,8,-1
 312.172851562 217 l 5,9,10
 350.72265625 182 350.72265625 182 398.91015625 144.5 c 132,-1,11
 447.09765625 107 447.09765625 107 468.299804688 88 c 132,-1,12
 489.502929688 69 489.502929688 69 544.7578125 35 c 5,13,-1
 477.9375 -14 l 5,14,15
 402.122070312 35 402.122070312 35 366.78515625 65 c 132,-1,16
 331.447265625 95 331.447265625 95 280.047851562 139 c 132,-1,17
 228.647460938 183 228.647460938 183 199.092773438 214 c 4,18,19
 170.822265625 245 170.822265625 245 162.469726562 263 c 132,-1,20
 154.1171875 281 154.1171875 281 154.1171875 298 c 4,21,22
 154.1171875 317 154.1171875 317 173.392578125 334 c 132,-1,23
 192.66796875 351 192.66796875 351 236.357421875 351 c 4,24,25
 285.1875 351 285.1875 351 316.02734375 326 c 132,-1,26
 346.8671875 301 346.8671875 301 371.282226562 258 c 5,27,-1
 291.612304688 293 l 5,28,29
 364.857421875 312 364.857421875 312 398.267578125 345.5 c 132,-1,30
 431.677734375 379 431.677734375 379 431.677734375 426 c 4,31,32
 431.677734375 455 431.677734375 455 422.040039062 470.5 c 132,-1,33
 412.40234375 486 412.40234375 486 398.267578125 497 c 5,34,-1
 456.092773438 483 l 5,35,-1
 247.922851562 483 l 5,36,-1
 247.922851562 554 l 5,37,-1
 576.8828125 554 l 5,38,-1
 576.8828125 483 l 5,39,-1
 467.657226562 483 l 5,0,-1
EndSplineSet
EndChar

StartChar: s
Encoding: 115 115 85
Width: 771
Flags: W
LayerCount: 2
Fore
SplineSet
272.584960938 483 m 1,0,-1
 304.966796875 498 l 1,1,2
 317.688476562 482 317.688476562 482 325.783203125 465 c 128,-1,3
 333.87890625 448 333.87890625 448 333.87890625 410 c 0,4,5
 333.87890625 366 333.87890625 366 321.736328125 333.5 c 128,-1,6
 309.592773438 301 309.592773438 301 287.619140625 280 c 1,7,-1
 286.462890625 271 l 1,8,9
 265.646484375 248 265.646484375 248 237.311523438 231 c 128,-1,10
 208.977539062 214 208.977539062 214 173.125976562 202 c 1,11,-1
 177.751953125 211 l 1,12,13
 225.16796875 158 225.16796875 158 253.501953125 126.5 c 128,-1,14
 281.8359375 95 281.8359375 95 354.696289062 45 c 1,15,-1
 303.809570312 -13 l 1,16,17
 239.045898438 36 239.045898438 36 213.025390625 62.5 c 128,-1,18
 187.00390625 89 187.00390625 89 143.056640625 133 c 128,-1,19
 99.1103515625 177 99.1103515625 177 73.666015625 208 c 256,20,21
 48.2236328125 239 48.2236328125 239 41.86328125 257 c 128,-1,22
 35.5029296875 275 35.5029296875 275 35.5029296875 292 c 0,23,24
 35.5029296875 311 35.5029296875 311 52.849609375 328 c 128,-1,25
 70.197265625 345 70.197265625 345 109.517578125 345 c 0,26,27
 138.430664062 345 138.430664062 345 159.825195312 333.5 c 128,-1,28
 181.220703125 322 181.220703125 322 198.568359375 301.5 c 128,-1,29
 215.916992188 281 215.916992188 281 230.951171875 252 c 1,30,-1
 160.404296875 283 l 1,31,32
 192.786132812 291 192.786132812 291 209.5546875 311 c 128,-1,33
 226.32421875 331 226.32421875 331 233.263671875 357.5 c 128,-1,34
 240.202148438 384 240.202148438 384 240.202148438 410 c 0,35,36
 240.202148438 448 240.202148438 448 232.107421875 465.5 c 128,-1,37
 224.01171875 483 224.01171875 483 213.603515625 496 c 1,38,-1
 263.333007812 483 l 1,39,-1
 86.388671875 483 l 1,40,-1
 86.388671875 554 l 1,41,-1
 471.502929688 554 l 1,42,-1
 471.502929688 483 l 1,43,-1
 272.584960938 483 l 1,0,-1
668.107421875 483 m 1,44,-1
 668.107421875 2 l 1,45,-1
 574.431640625 2 l 1,46,-1
 574.431640625 483 l 1,47,-1
 447.216796875 483 l 1,48,-1
 447.216796875 554 l 1,49,-1
 717.497070312 554 l 5,50,-1
 717.497070312 483 l 5,51,-1
 668.107421875 483 l 1,44,-1
415.991210938 274 m 0,52,53
 455.311523438 274 455.311523438 274 487.693359375 277 c 128,-1,54
 520.076171875 280 520.076171875 280 552.458007812 286.5 c 128,-1,55
 584.83984375 293 584.83984375 293 621.84765625 305 c 1,56,-1
 621.84765625 232 l 1,57,58
 572.118164062 215 572.118164062 215 531.0625 209 c 128,-1,59
 490.006835938 203 490.006835938 203 428.711914062 203 c 0,60,61
 390.546875 203 390.546875 203 348.334960938 207.5 c 128,-1,62
 306.123046875 212 306.123046875 212 269.115234375 220.5 c 128,-1,63
 232.107421875 229 232.107421875 229 208.977539062 239 c 1,64,-1
 232.107421875 299 l 1,65,66
 255.237304688 292 255.237304688 292 285.306640625 286 c 128,-1,67
 315.375 280 315.375 280 348.9140625 277 c 128,-1,68
 382.453125 274 382.453125 274 415.991210938 274 c 0,52,53
EndSplineSet
EndChar

StartChar: t
Encoding: 116 116 86
Width: 771
Flags: W
AnchorPoint: "Anchor-2" 407.705 0 basechar 0
AnchorPoint: "Anchor-1" 424.41 0 basechar 0
AnchorPoint: "Anchor-0" 424.41 554 basechar 0
LayerCount: 2
Fore
SplineSet
667.275390625 483 m 5,0,-1
 528.495117188 483 l 5,1,-1
 528.495117188 349 l 5,2,-1
 457.8203125 349 l 6,3,4
 396.139648438 349 396.139648438 349 355.01953125 341 c 132,-1,5
 313.900390625 333 313.900390625 333 284.344726562 318 c 4,6,7
 250.934570312 300 250.934570312 300 232.302734375 274 c 132,-1,8
 213.669921875 248 213.669921875 248 213.669921875 215 c 4,9,10
 213.669921875 167 213.669921875 167 241.940429688 135.5 c 132,-1,11
 270.209960938 104 270.209960938 104 315.827148438 89 c 132,-1,12
 361.4453125 74 361.4453125 74 415.415039062 74 c 4,13,14
 484.8046875 74 484.8046875 74 533.634765625 86.5 c 132,-1,15
 582.46484375 99 582.46484375 99 636.434570312 121 c 5,16,-1
 671.129882812 47 l 5,17,18
 614.58984375 27 614.58984375 27 550.982421875 13.5 c 132,-1,19
 487.375 0 487.375 0 419.26953125 0 c 4,20,21
 330.60546875 0 330.60546875 0 260.572265625 26 c 132,-1,22
 190.540039062 52 190.540039062 52 150.705078125 101 c 132,-1,23
 110.870117188 150 110.870117188 150 110.870117188 220 c 4,24,25
 110.870117188 285 110.870117188 285 154.559570312 329.5 c 132,-1,26
 198.25 374 198.25 374 269.567382812 397 c 132,-1,27
 340.884765625 420 340.884765625 420 421.83984375 420 c 6,28,-1
 428.264648438 420 l 5,29,-1
 424.41015625 416 l 5,30,-1
 424.41015625 483 l 5,31,-1
 189.254882812 483 l 5,32,-1
 189.254882812 554 l 5,33,-1
 667.275390625 554 l 5,34,-1
 667.275390625 483 l 5,0,-1
EndSplineSet
EndChar

StartChar: u
Encoding: 117 117 87
Width: 771
Flags: W
LayerCount: 2
Fore
SplineSet
680.6953125 536 m 5,0,-1
 680.6953125 0 l 5,1,-1
 588.174804688 0 l 5,2,-1
 571.469726562 71 l 5,3,-1
 566.330078125 71 l 5,4,5
 544.485351562 43 544.485351562 43 509.790039062 25 c 132,-1,6
 475.094726562 7 475.094726562 7 433.974609375 -1.5 c 132,-1,7
 392.85546875 -10 392.85546875 -10 347.879882812 -10 c 4,8,9
 265.639648438 -10 265.639648438 -10 209.7421875 10.5 c 132,-1,10
 153.844726562 31 153.844726562 31 125.575195312 74 c 132,-1,11
 97.3046875 117 97.3046875 117 97.3046875 185 c 6,12,-1
 97.3046875 536 l 5,13,-1
 211.669921875 536 l 5,14,-1
 211.669921875 191 l 6,15,16
 211.669921875 127 211.669921875 127 248.934570312 95 c 132,-1,17
 286.200195312 63 286.200195312 63 364.584960938 63 c 4,18,19
 441.684570312 63 441.684570312 63 486.017578125 85.5 c 132,-1,20
 530.349609375 108 530.349609375 108 548.982421875 151.5 c 132,-1,21
 567.615234375 195 567.615234375 195 567.615234375 257 c 6,22,-1
 567.615234375 536 l 5,23,-1
 680.6953125 536 l 5,0,-1
EndSplineSet
EndChar

StartChar: v
Encoding: 118 118 88
Width: 771
Flags: W
LayerCount: 2
Fore
SplineSet
708.112304688 483 m 5,0,-1
 625.872070312 483 l 5,1,-1
 625.872070312 2 l 5,2,-1
 523.072265625 2 l 5,3,-1
 523.072265625 157 l 5,4,-1
 542.34765625 132 l 5,5,6
 507.65234375 111 507.65234375 111 456.252929688 92.5 c 132,-1,7
 404.852539062 74 404.852539062 74 325.182617188 74 c 4,8,9
 255.79296875 74 255.79296875 74 201.822265625 95 c 132,-1,10
 147.852539062 116 147.852539062 116 116.370117188 153.5 c 132,-1,11
 84.8876953125 191 84.8876953125 191 84.8876953125 242 c 4,12,13
 84.8876953125 328 84.8876953125 328 158.775390625 374 c 132,-1,14
 232.662109375 420 232.662109375 420 353.452148438 420 c 4,15,16
 370.157226562 420 370.157226562 420 395.21484375 418.5 c 132,-1,17
 420.272460938 417 420.272460938 417 444.044921875 415 c 132,-1,18
 467.817382812 413 467.817382812 413 480.66796875 410 c 5,19,-1
 474.2421875 337 l 5,20,21
 449.827148438 341 449.827148438 341 418.987304688 344 c 132,-1,22
 388.147460938 347 388.147460938 347 358.592773438 347 c 4,23,24
 278.922851562 347 278.922851562 347 233.947265625 320 c 132,-1,25
 188.97265625 293 188.97265625 293 188.97265625 243 c 4,26,27
 188.97265625 192 188.97265625 192 229.450195312 168 c 132,-1,28
 269.927734375 144 269.927734375 144 327.752929688 144 c 4,29,30
 379.15234375 144 379.15234375 144 418.344726562 157.5 c 132,-1,31
 457.537109375 171 457.537109375 171 487.735351562 191 c 132,-1,32
 517.932617188 211 517.932617188 211 539.77734375 230 c 5,33,-1
 523.072265625 179 l 5,34,-1
 523.072265625 483 l 5,35,-1
 412.5625 483 l 5,36,-1
 412.5625 554 l 5,37,-1
 708.112304688 554 l 5,38,-1
 708.112304688 483 l 5,0,-1
EndSplineSet
EndChar

StartChar: w
Encoding: 119 119 89
Width: 771
Flags: W
AnchorPoint: "Anchor-3" 740.657 536 basechar 0
AnchorPoint: "Anchor-2" 382.143 536 basechar 0
AnchorPoint: "Anchor-1" 382.143 0 basechar 0
LayerCount: 2
Fore
SplineSet
126.427734375 0 m 5,0,-1
 15.91796875 536 l 5,1,-1
 123.857421875 536 l 5,2,-1
 173.97265625 271 l 6,3,4
 181.682617188 234 181.682617188 234 184.89453125 205 c 132,-1,5
 188.107421875 176 188.107421875 176 191.3203125 146 c 132,-1,6
 194.532226562 116 194.532226562 116 197.102539062 75 c 5,7,-1
 200.95703125 75 l 5,8,9
 204.8125 92 204.8125 92 211.879882812 122.5 c 132,-1,10
 218.947265625 153 218.947265625 153 228.584960938 188.5 c 132,-1,11
 238.22265625 224 238.22265625 224 249.787109375 254 c 6,12,-1
 316.607421875 435 l 5,13,-1
 443.822265625 435 l 5,14,-1
 508.072265625 254 l 6,15,16
 519.637695312 224 519.637695312 224 529.91796875 189.5 c 132,-1,17
 540.197265625 155 540.197265625 155 548.549804688 124.5 c 132,-1,18
 556.90234375 94 556.90234375 94 559.47265625 75 c 5,19,-1
 563.327148438 75 l 5,20,21
 567.182617188 115 567.182617188 115 569.752929688 144.5 c 132,-1,22
 572.322265625 174 572.322265625 174 576.177734375 203 c 132,-1,23
 580.032226562 232 580.032226562 232 587.7421875 271 c 6,24,-1
 641.712890625 536 l 5,25,-1
 747.08203125 536 l 5,26,-1
 634.002929688 0 l 5,27,-1
 495.22265625 0 l 5,28,-1
 433.54296875 188 l 6,29,30
 420.692382812 229 420.692382812 229 406.557617188 270 c 132,-1,31
 392.422851562 311 392.422851562 311 382.142578125 351 c 5,32,-1
 378.287109375 351 l 5,33,34
 368.0078125 311 368.0078125 311 353.23046875 270 c 132,-1,35
 338.452148438 229 338.452148438 229 324.317382812 188 c 6,36,-1
 261.352539062 0 l 5,37,-1
 126.427734375 0 l 5,0,-1
EndSplineSet
EndChar

StartChar: x
Encoding: 120 120 90
Width: 771
Flags: W
LayerCount: 2
Fore
SplineSet
594.735351562 494 m 5,0,-1
 658.985351562 443 l 5,1,-1
 440.53515625 273 l 5,2,-1
 657.700195312 103 l 5,3,-1
 593.450195312 52 l 5,4,-1
 373.71484375 221 l 5,5,-1
 159.120117188 52 l 5,6,-1
 92.2998046875 103 l 5,7,-1
 309.46484375 273 l 5,8,-1
 91.0146484375 442 l 5,9,-1
 157.834960938 494 l 5,10,-1
 375 323 l 5,11,-1
 594.735351562 494 l 5,0,-1
EndSplineSet
EndChar

StartChar: y
Encoding: 121 121 91
Width: 771
Flags: W
LayerCount: 2
Fore
SplineSet
730.09765625 554 m 5,0,-1
 730.09765625 483 l 5,1,-1
 647.857421875 483 l 5,2,-1
 647.857421875 0 l 5,3,-1
 543.772460938 0 l 5,4,-1
 543.772460938 148 l 5,5,-1
 564.33203125 123 l 5,6,7
 541.202148438 109 541.202148438 109 508.434570312 95 c 132,-1,8
 475.66796875 81 475.66796875 81 433.905273438 72.5 c 132,-1,9
 392.142578125 64 392.142578125 64 342.02734375 64 c 4,10,11
 264.927734375 64 264.927734375 64 207.102539062 91.5 c 132,-1,12
 149.27734375 119 149.27734375 119 113.940429688 169 c 132,-1,13
 78.6025390625 219 78.6025390625 219 65.7529296875 285 c 5,14,15
 145.422851562 298 145.422851562 298 183.97265625 321.5 c 132,-1,16
 222.522460938 345 222.522460938 345 222.522460938 389 c 4,17,18
 222.522460938 424 222.522460938 424 201.3203125 452 c 132,-1,19
 180.1171875 480 180.1171875 480 158.272460938 498 c 5,20,-1
 221.237304688 483 l 5,21,-1
 52.90234375 483 l 5,22,-1
 52.90234375 554 l 5,23,-1
 730.09765625 554 l 5,0,-1
241.797851562 483 m 5,24,-1
 271.352539062 504 l 5,25,26
 297.052734375 476 297.052734375 476 311.1875 442.5 c 132,-1,27
 325.322265625 409 325.322265625 409 325.322265625 377 c 4,28,29
 325.322265625 325 325.322265625 325 289.985351562 288 c 132,-1,30
 254.647460938 251 254.647460938 251 182.6875 233 c 5,31,32
 208.387695312 184 208.387695312 184 247.580078125 159.5 c 132,-1,33
 286.772460938 135 286.772460938 135 349.737304688 135 c 4,34,35
 422.982421875 135 422.982421875 135 475.66796875 162.5 c 132,-1,36
 528.352539062 190 528.352539062 190 563.047851562 224 c 5,37,-1
 543.772460938 171 l 5,38,-1
 543.772460938 483 l 5,39,-1
 241.797851562 483 l 5,24,-1
EndSplineSet
EndChar

StartChar: z
Encoding: 122 122 92
Width: 771
Flags: W
LayerCount: 2
Fore
SplineSet
678.51953125 488 m 5,0,-1
 678.51953125 2 l 5,1,-1
 594.2109375 2 l 5,2,-1
 594.2109375 313 l 5,3,-1
 451.615234375 313 l 6,4,5
 424.552734375 313 424.552734375 313 408.41796875 314 c 132,-1,6
 392.286132812 315 392.286132812 315 382.91796875 318 c 5,7,-1
 375.631835938 328 l 5,8,9
 419.348632812 299 419.348632812 299 447.451171875 255 c 132,-1,10
 475.553710938 211 475.553710938 211 475.553710938 161 c 4,11,12
 475.553710938 115 475.553710938 115 454.216796875 84 c 132,-1,13
 432.87890625 53 432.87890625 53 398.010742188 38 c 132,-1,14
 363.141601562 23 363.141601562 23 321.508789062 23 c 260,15,16
 279.874023438 23 279.874023438 23 241.8828125 40 c 132,-1,17
 203.892578125 57 203.892578125 57 167.982421875 94.5 c 132,-1,18
 132.073242188 132 132.073242188 132 98.2451171875 193.5 c 132,-1,19
 64.41796875 255 64.41796875 255 31.111328125 344 c 5,20,-1
 105.010742188 369 l 5,21,22
 137.27734375 280 137.27734375 280 170.584960938 219 c 132,-1,23
 203.892578125 158 203.892578125 158 240.321289062 127 c 132,-1,24
 276.751953125 96 276.751953125 96 317.344726562 96 c 4,25,26
 350.651367188 96 350.651367188 96 371.989257812 113 c 132,-1,27
 393.327148438 130 393.327148438 130 393.327148438 170 c 4,28,29
 393.327148438 214 393.327148438 214 361.58203125 253 c 132,-1,30
 329.834960938 292 329.834960938 292 282.997070312 320 c 5,31,-1
 313.180664062 384 l 5,32,-1
 594.2109375 384 l 5,33,-1
 594.2109375 488 l 5,34,-1
 294.446289062 488 l 5,35,-1
 294.446289062 560 l 5,36,-1
 738.888671875 560 l 5,37,-1
 738.888671875 488 l 5,38,-1
 678.51953125 488 l 5,0,-1
EndSplineSet
EndChar

StartChar: at
Encoding: 64 64 93
Width: 771
Flags: W
LayerCount: 2
Fore
SplineSet
417.719726562 -89 m 4,0,1
 289.719726562 -89 289.719726562 -89 201.400390625 -42 c 132,-1,2
 113.080078125 5 113.080078125 5 67.6396484375 91.5 c 132,-1,3
 22.2001953125 178 22.2001953125 178 22.2001953125 294 c 4,4,5
 22.2001953125 386 22.2001953125 386 47.16015625 463 c 132,-1,6
 72.1201171875 540 72.1201171875 540 121.400390625 596 c 132,-1,7
 170.6796875 652 170.6796875 652 243.639648438 683 c 132,-1,8
 316.599609375 714 316.599609375 714 411.3203125 714 c 4,9,10
 515 714 515 714 591.16015625 671 c 132,-1,11
 667.3203125 628 667.3203125 628 709.559570312 548 c 132,-1,12
 751.799804688 468 751.799804688 468 751.799804688 357 c 4,13,14
 751.799804688 311 751.799804688 311 743.48046875 267 c 132,-1,15
 735.16015625 223 735.16015625 223 717.879882812 187 c 132,-1,16
 700.599609375 151 700.599609375 151 671.799804688 129.5 c 132,-1,17
 643 108 643 108 600.759765625 108 c 4,18,19
 557.240234375 108 557.240234375 108 532.919921875 135 c 132,-1,20
 508.599609375 162 508.599609375 162 502.200195312 196 c 5,21,-1
 499.639648438 196 l 5,22,23
 481.719726562 159 481.719726562 159 445.879882812 133.5 c 132,-1,24
 410.040039062 108 410.040039062 108 356.280273438 108 c 4,25,26
 278.200195312 108 278.200195312 108 235.959960938 160 c 132,-1,27
 193.719726562 212 193.719726562 212 193.719726562 296 c 4,28,29
 193.719726562 362 193.719726562 362 220.599609375 412.5 c 132,-1,30
 247.48046875 463 247.48046875 463 296.759765625 491.5 c 132,-1,31
 346.040039062 520 346.040039062 520 413.879882812 520 c 4,32,33
 459.959960938 520 459.959960938 520 504.759765625 512.5 c 132,-1,34
 549.559570312 505 549.559570312 505 573.879882812 497 c 5,35,-1
 559.799804688 294 l 6,36,37
 558.51953125 286 558.51953125 286 558.51953125 275.5 c 132,-1,38
 558.51953125 265 558.51953125 265 558.51953125 257 c 4,39,40
 558.51953125 205 558.51953125 205 572.599609375 188 c 132,-1,41
 586.6796875 171 586.6796875 171 603.3203125 171 c 4,42,43
 626.360351562 171 626.360351562 171 640.440429688 196.5 c 132,-1,44
 654.51953125 222 654.51953125 222 660.280273438 264.5 c 132,-1,45
 666.040039062 307 666.040039062 307 666.040039062 358 c 4,46,47
 666.040039062 497 666.040039062 497 595 572.5 c 132,-1,48
 523.959960938 648 523.959960938 648 410.040039062 648 c 4,49,50
 312.759765625 648 312.759765625 648 245.559570312 604 c 132,-1,51
 178.360351562 560 178.360351562 560 144.440429688 481.5 c 132,-1,52
 110.51953125 403 110.51953125 403 110.51953125 297 c 4,53,54
 110.51953125 199 110.51953125 199 145.080078125 127 c 132,-1,55
 179.639648438 55 179.639648438 55 248.759765625 16.5 c 132,-1,56
 317.879882812 -22 317.879882812 -22 421.559570312 -22 c 4,57,58
 485.559570312 -22 485.559570312 -22 539.3203125 -11 c 132,-1,59
 593.080078125 0 593.080078125 0 637.879882812 16 c 5,60,-1
 637.879882812 -49 l 5,61,62
 591.799804688 -67 591.799804688 -67 539.3203125 -78 c 132,-1,63
 486.83984375 -89 486.83984375 -89 417.719726562 -89 c 4,0,1
372.919921875 171 m 4,64,65
 420.280273438 171 420.280273438 171 439.48046875 213.5 c 132,-1,66
 458.6796875 256 458.6796875 256 463.799804688 323 c 6,67,-1
 472.759765625 447 l 5,68,69
 459.959960938 451 459.959960938 451 443.3203125 454 c 132,-1,70
 426.6796875 457 426.6796875 457 408.759765625 457 c 4,71,72
 366.51953125 457 366.51953125 457 341.559570312 433 c 132,-1,73
 316.599609375 409 316.599609375 409 305.080078125 372 c 132,-1,74
 293.559570312 335 293.559570312 335 293.559570312 294 c 4,75,76
 293.559570312 229 293.559570312 229 315.3203125 200 c 132,-1,77
 337.080078125 171 337.080078125 171 372.919921875 171 c 4,64,65
EndSplineSet
EndChar

StartChar: ampersand
Encoding: 38 38 94
Width: 771
Flags: W
LayerCount: 2
Fore
SplineSet
199.490234375 -10 m 0,0,1
 123.674804688 -10 123.674804688 -10 70.34765625 14 c 128,-1,2
 17.01953125 38 17.01953125 38 -10.607421875 80.5 c 128,-1,3
 -38.2353515625 123 -38.2353515625 123 -38.2353515625 176 c 0,4,5
 -38.2353515625 233 -38.2353515625 233 -9.322265625 275.5 c 128,-1,6
 19.58984375 318 19.58984375 318 65.849609375 351.5 c 128,-1,7
 112.110351562 385 112.110351562 385 164.794921875 414 c 0,8,9
 194.349609375 430 194.349609375 430 230.330078125 454 c 128,-1,10
 266.309570312 478 266.309570312 478 293.294921875 509.5 c 128,-1,11
 320.280273438 541 320.280273438 541 320.280273438 580 c 0,12,13
 320.280273438 616 320.280273438 616 295.865234375 636 c 128,-1,14
 271.450195312 656 271.450195312 656 231.615234375 656 c 256,15,16
 191.780273438 656 191.780273438 656 168.0078125 635 c 128,-1,17
 144.235351562 614 144.235351562 614 144.235351562 576 c 0,18,19
 144.235351562 550 144.235351562 550 155.157226562 522 c 128,-1,20
 166.080078125 494 166.080078125 494 184.712890625 468 c 128,-1,21
 203.344726562 442 203.344726562 442 225.190429688 420 c 2,22,-1
 658.235351562 0 l 1,23,-1
 520.740234375 0 l 1,24,-1
 158.370117188 364 l 2,25,26
 130.099609375 393 130.099609375 393 102.47265625 427 c 128,-1,27
 74.8447265625 461 74.8447265625 461 56.85546875 499.5 c 128,-1,28
 38.865234375 538 38.865234375 538 38.865234375 578 c 0,29,30
 38.865234375 644 38.865234375 644 90.2646484375 684.5 c 128,-1,31
 141.665039062 725 141.665039062 725 231.615234375 725 c 256,32,33
 321.565429688 725 321.565429688 725 372.96484375 684.5 c 128,-1,34
 424.365234375 644 424.365234375 644 424.365234375 580 c 0,35,36
 424.365234375 530 424.365234375 530 394.809570312 490 c 128,-1,37
 365.254882812 450 365.254882812 450 320.280273438 418.5 c 128,-1,38
 275.3046875 387 275.3046875 387 230.330078125 359 c 0,39,40
 193.065429688 336 193.065429688 336 156.442382812 310.5 c 128,-1,41
 119.8203125 285 119.8203125 285 96.0478515625 253.5 c 128,-1,42
 72.275390625 222 72.275390625 222 72.275390625 181 c 0,43,44
 72.275390625 133 72.275390625 133 109.540039062 100 c 128,-1,45
 146.8046875 67 146.8046875 67 212.33984375 67 c 0,46,47
 259.884765625 67 259.884765625 67 301.647460938 84.5 c 128,-1,48
 343.41015625 102 343.41015625 102 378.10546875 132 c 128,-1,49
 412.799804688 162 412.799804688 162 439.142578125 198.5 c 128,-1,50
 465.485351562 235 465.485351562 235 482.83203125 274 c 128,-1,51
 500.1796875 313 500.1796875 313 507.889648438 349 c 1,52,-1
 614.544921875 349 l 1,53,54
 601.6953125 292 601.6953125 292 576.637695312 239 c 128,-1,55
 551.580078125 186 551.580078125 186 514.315429688 140.5 c 128,-1,56
 477.049804688 95 477.049804688 95 429.504882812 61.5 c 128,-1,57
 381.959960938 28 381.959960938 28 324.134765625 9 c 128,-1,58
 266.309570312 -10 266.309570312 -10 199.490234375 -10 c 0,0,1
EndSplineSet
EndChar

StartChar: dollar
Encoding: 36 36 95
Width: 771
Flags: W
LayerCount: 2
Fore
SplineSet
252.455078125 34 m 1,0,1
 188.205078125 35 188.205078125 35 129.737304688 43.5 c 128,-1,2
 71.26953125 52 71.26953125 52 30.150390625 67 c 1,3,-1
 30.150390625 152 l 1,4,5
 73.83984375 136 73.83984375 136 133.592773438 124 c 128,-1,6
 193.344726562 112 193.344726562 112 252.455078125 111 c 1,7,-1
 252.455078125 328 l 1,8,9
 175.35546875 348 175.35546875 348 122.669921875 371.5 c 128,-1,10
 69.9853515625 395 69.9853515625 395 43.642578125 429.5 c 128,-1,11
 17.2998046875 464 17.2998046875 464 17.2998046875 515 c 0,12,13
 17.2998046875 565 17.2998046875 565 46.212890625 602 c 128,-1,14
 75.125 639 75.125 639 127.809570312 660.5 c 128,-1,15
 180.495117188 682 180.495117188 682 252.455078125 686 c 1,16,-1
 252.455078125 759 l 1,17,-1
 334.6953125 759 l 1,18,-1
 334.6953125 687 l 1,19,20
 398.9453125 686 398.9453125 686 450.344726562 675.5 c 128,-1,21
 501.745117188 665 501.745117188 665 548.004882812 650 c 1,22,-1
 513.309570312 576 l 1,23,24
 472.190429688 589 472.190429688 589 427.21484375 598.5 c 128,-1,25
 382.240234375 608 382.240234375 608 334.6953125 611 c 1,26,-1
 334.6953125 395 l 1,27,28
 416.934570312 376 416.934570312 376 472.190429688 354.5 c 128,-1,29
 527.4453125 333 527.4453125 333 555.072265625 299.5 c 128,-1,30
 582.700195312 266 582.700195312 266 582.700195312 212 c 0,31,32
 582.700195312 142 582.700195312 142 517.807617188 95.5 c 128,-1,33
 452.915039062 49 452.915039062 49 334.6953125 38 c 1,34,-1
 334.6953125 -58 l 1,35,-1
 252.455078125 -58 l 1,36,-1
 252.455078125 34 l 1,0,1
334.6953125 116 m 1,37,38
 406.655273438 123 406.655273438 123 439.422851562 148.5 c 128,-1,39
 472.190429688 174 472.190429688 174 472.190429688 214 c 0,40,41
 472.190429688 239 472.190429688 239 459.982421875 255.5 c 128,-1,42
 447.775390625 272 447.775390625 272 418.219726562 284 c 128,-1,43
 388.665039062 296 388.665039062 296 334.6953125 307 c 1,44,-1
 334.6953125 116 l 1,37,38
252.455078125 609 m 1,45,46
 210.049804688 606 210.049804688 606 182.422851562 593.5 c 128,-1,47
 154.794921875 581 154.794921875 581 141.302734375 561 c 128,-1,48
 127.809570312 541 127.809570312 541 127.809570312 515 c 0,49,50
 127.809570312 490 127.809570312 490 139.375 471.5 c 128,-1,51
 150.940429688 453 150.940429688 453 177.924804688 440 c 128,-1,52
 204.91015625 427 204.91015625 427 252.455078125 417 c 1,53,-1
 252.455078125 609 l 1,45,46
EndSplineSet
EndChar

StartChar: grave
Encoding: 96 96 96
Width: 771
Flags: W
LayerCount: 2
Fore
SplineSet
397.827148438 606 m 5,0,1
 375.982421875 620 375.982421875 620 348.997070312 639.5 c 132,-1,2
 322.012695312 659 322.012695312 659 295.669921875 680.5 c 132,-1,3
 269.327148438 702 269.327148438 702 248.125 722 c 132,-1,4
 226.922851562 742 226.922851562 742 215.357421875 756 c 5,5,-1
 215.357421875 766 l 5,6,-1
 350.282226562 766 l 5,7,8
 364.41796875 744 364.41796875 744 385.620117188 716.5 c 132,-1,9
 406.822265625 689 406.822265625 689 430.594726562 663 c 132,-1,10
 454.3671875 637 454.3671875 637 473.642578125 618 c 5,11,-1
 473.642578125 606 l 5,12,-1
 397.827148438 606 l 5,0,1
EndSplineSet
EndChar

StartChar: uni0080
Encoding: 128 128 97
Width: 856
Flags: W
LayerCount: 2
Fore
SplineSet
164.432617188 85 m 4,0,1
 164.432617188 103 164.432617188 103 184.349609375 118 c 132,-1,2
 204.267578125 133 204.267578125 133 240.247070312 144.5 c 132,-1,3
 276.227539062 156 276.227539062 156 324.415039062 162.5 c 132,-1,4
 372.602539062 169 372.602539062 169 427.857421875 169 c 4,5,6
 484.397460938 169 484.397460938 169 532.584960938 162.5 c 132,-1,7
 580.772460938 156 580.772460938 156 616.110351562 144.5 c 132,-1,8
 651.447265625 133 651.447265625 133 672.0078125 118 c 132,-1,9
 692.567382812 103 692.567382812 103 692.567382812 85 c 4,10,11
 692.567382812 68 692.567382812 68 672.0078125 53 c 132,-1,12
 651.447265625 38 651.447265625 38 616.110351562 27 c 132,-1,13
 580.772460938 16 580.772460938 16 532.584960938 9.5 c 132,-1,14
 484.397460938 3 484.397460938 3 427.857421875 3 c 4,15,16
 372.602539062 3 372.602539062 3 324.415039062 9.5 c 132,-1,17
 276.227539062 16 276.227539062 16 240.247070312 27 c 132,-1,18
 204.267578125 38 204.267578125 38 184.349609375 53 c 132,-1,19
 164.432617188 68 164.432617188 68 164.432617188 85 c 4,0,1
267.232421875 85 m 260,20,21
 267.232421875 74 267.232421875 74 279.440429688 64.5 c 132,-1,22
 291.647460938 55 291.647460938 55 313.4921875 48.5 c 132,-1,23
 335.337890625 42 335.337890625 42 364.892578125 38 c 132,-1,24
 394.447265625 34 394.447265625 34 427.857421875 34 c 4,25,26
 462.552734375 34 462.552734375 34 491.46484375 38 c 132,-1,27
 520.377929688 42 520.377929688 42 542.22265625 48.5 c 132,-1,28
 564.067382812 55 564.067382812 55 576.275390625 64.5 c 132,-1,29
 588.482421875 74 588.482421875 74 588.482421875 85 c 260,30,31
 588.482421875 96 588.482421875 96 576.275390625 105.5 c 132,-1,32
 564.067382812 115 564.067382812 115 542.22265625 122 c 132,-1,33
 520.377929688 129 520.377929688 129 491.46484375 133 c 132,-1,34
 462.552734375 137 462.552734375 137 427.857421875 137 c 4,35,36
 394.447265625 137 394.447265625 137 364.892578125 133 c 132,-1,37
 335.337890625 129 335.337890625 129 313.4921875 122 c 132,-1,38
 291.647460938 115 291.647460938 115 279.440429688 105.5 c 132,-1,39
 267.232421875 96 267.232421875 96 267.232421875 85 c 260,20,21
164.432617188 272 m 4,40,41
 164.432617188 290 164.432617188 290 184.349609375 305 c 132,-1,42
 204.267578125 320 204.267578125 320 240.247070312 331.5 c 132,-1,43
 276.227539062 343 276.227539062 343 324.415039062 349 c 132,-1,44
 372.602539062 355 372.602539062 355 427.857421875 355 c 4,45,46
 484.397460938 355 484.397460938 355 532.584960938 349 c 132,-1,47
 580.772460938 343 580.772460938 343 616.110351562 331.5 c 132,-1,48
 651.447265625 320 651.447265625 320 672.0078125 305 c 132,-1,49
 692.567382812 290 692.567382812 290 692.567382812 272 c 4,50,51
 692.567382812 255 692.567382812 255 672.0078125 240 c 132,-1,52
 651.447265625 225 651.447265625 225 616.110351562 214 c 132,-1,53
 580.772460938 203 580.772460938 203 532.584960938 196 c 132,-1,54
 484.397460938 189 484.397460938 189 427.857421875 189 c 4,55,56
 372.602539062 189 372.602539062 189 324.415039062 196 c 132,-1,57
 276.227539062 203 276.227539062 203 240.247070312 214 c 132,-1,58
 204.267578125 225 204.267578125 225 184.349609375 240 c 132,-1,59
 164.432617188 255 164.432617188 255 164.432617188 272 c 4,40,41
267.232421875 272 m 260,60,61
 267.232421875 261 267.232421875 261 279.440429688 251.5 c 132,-1,62
 291.647460938 242 291.647460938 242 313.4921875 235 c 132,-1,63
 335.337890625 228 335.337890625 228 364.892578125 224 c 132,-1,64
 394.447265625 220 394.447265625 220 427.857421875 220 c 4,65,66
 462.552734375 220 462.552734375 220 491.46484375 224 c 132,-1,67
 520.377929688 228 520.377929688 228 542.22265625 235 c 132,-1,68
 564.067382812 242 564.067382812 242 576.275390625 251.5 c 132,-1,69
 588.482421875 261 588.482421875 261 588.482421875 272 c 260,70,71
 588.482421875 283 588.482421875 283 576.275390625 292.5 c 132,-1,72
 564.067382812 302 564.067382812 302 542.22265625 309 c 132,-1,73
 520.377929688 316 520.377929688 316 491.46484375 320 c 132,-1,74
 462.552734375 324 462.552734375 324 427.857421875 324 c 4,75,76
 394.447265625 324 394.447265625 324 364.892578125 320 c 132,-1,77
 335.337890625 316 335.337890625 316 313.4921875 309 c 132,-1,78
 291.647460938 302 291.647460938 302 279.440429688 292.5 c 132,-1,79
 267.232421875 283 267.232421875 283 267.232421875 272 c 260,60,61
164.432617188 461 m 260,80,81
 164.432617188 478 164.432617188 478 184.349609375 493.5 c 132,-1,82
 204.267578125 509 204.267578125 509 240.247070312 520 c 132,-1,83
 276.227539062 531 276.227539062 531 324.415039062 537.5 c 132,-1,84
 372.602539062 544 372.602539062 544 427.857421875 544 c 4,85,86
 484.397460938 544 484.397460938 544 532.584960938 537.5 c 132,-1,87
 580.772460938 531 580.772460938 531 616.110351562 520 c 132,-1,88
 651.447265625 509 651.447265625 509 672.0078125 493.5 c 132,-1,89
 692.567382812 478 692.567382812 478 692.567382812 461 c 260,90,91
 692.567382812 444 692.567382812 444 672.0078125 429 c 132,-1,92
 651.447265625 414 651.447265625 414 616.110351562 402.5 c 132,-1,93
 580.772460938 391 580.772460938 391 532.584960938 384.5 c 132,-1,94
 484.397460938 378 484.397460938 378 427.857421875 378 c 4,95,96
 372.602539062 378 372.602539062 378 324.415039062 384.5 c 132,-1,97
 276.227539062 391 276.227539062 391 240.247070312 402.5 c 132,-1,98
 204.267578125 414 204.267578125 414 184.349609375 429 c 132,-1,99
 164.432617188 444 164.432617188 444 164.432617188 461 c 260,80,81
267.232421875 461 m 260,100,101
 267.232421875 450 267.232421875 450 279.440429688 440.5 c 132,-1,102
 291.647460938 431 291.647460938 431 313.4921875 424 c 132,-1,103
 335.337890625 417 335.337890625 417 364.892578125 413 c 132,-1,104
 394.447265625 409 394.447265625 409 427.857421875 409 c 4,105,106
 462.552734375 409 462.552734375 409 491.46484375 413 c 132,-1,107
 520.377929688 417 520.377929688 417 542.22265625 424 c 132,-1,108
 564.067382812 431 564.067382812 431 576.275390625 440.5 c 132,-1,109
 588.482421875 450 588.482421875 450 588.482421875 461 c 260,110,111
 588.482421875 472 588.482421875 472 576.275390625 481.5 c 132,-1,112
 564.067382812 491 564.067382812 491 542.22265625 498 c 132,-1,113
 520.377929688 505 520.377929688 505 491.46484375 509 c 132,-1,114
 462.552734375 513 462.552734375 513 427.857421875 513 c 4,115,116
 394.447265625 513 394.447265625 513 364.892578125 509 c 132,-1,117
 335.337890625 505 335.337890625 505 313.4921875 498 c 132,-1,118
 291.647460938 491 291.647460938 491 279.440429688 481.5 c 132,-1,119
 267.232421875 472 267.232421875 472 267.232421875 461 c 260,100,101
164.432617188 648 m 260,120,121
 164.432617188 665 164.432617188 665 184.349609375 680.5 c 132,-1,122
 204.267578125 696 204.267578125 696 240.247070312 707 c 132,-1,123
 276.227539062 718 276.227539062 718 324.415039062 724.5 c 132,-1,124
 372.602539062 731 372.602539062 731 427.857421875 731 c 4,125,126
 484.397460938 731 484.397460938 731 532.584960938 724.5 c 132,-1,127
 580.772460938 718 580.772460938 718 616.110351562 707 c 132,-1,128
 651.447265625 696 651.447265625 696 672.0078125 680.5 c 132,-1,129
 692.567382812 665 692.567382812 665 692.567382812 648 c 260,130,131
 692.567382812 631 692.567382812 631 672.0078125 616 c 132,-1,132
 651.447265625 601 651.447265625 601 616.110351562 589.5 c 132,-1,133
 580.772460938 578 580.772460938 578 532.584960938 571.5 c 132,-1,134
 484.397460938 565 484.397460938 565 427.857421875 565 c 4,135,136
 372.602539062 565 372.602539062 565 324.415039062 571.5 c 132,-1,137
 276.227539062 578 276.227539062 578 240.247070312 589.5 c 132,-1,138
 204.267578125 601 204.267578125 601 184.349609375 616 c 132,-1,139
 164.432617188 631 164.432617188 631 164.432617188 648 c 260,120,121
267.232421875 648 m 4,140,141
 267.232421875 637 267.232421875 637 279.440429688 627.5 c 132,-1,142
 291.647460938 618 291.647460938 618 313.4921875 611 c 132,-1,143
 335.337890625 604 335.337890625 604 364.892578125 600 c 132,-1,144
 394.447265625 596 394.447265625 596 427.857421875 596 c 4,145,146
 462.552734375 596 462.552734375 596 491.46484375 600 c 132,-1,147
 520.377929688 604 520.377929688 604 542.22265625 611 c 132,-1,148
 564.067382812 618 564.067382812 618 576.275390625 627.5 c 132,-1,149
 588.482421875 637 588.482421875 637 588.482421875 648 c 4,150,151
 588.482421875 658 588.482421875 658 576.275390625 668 c 132,-1,152
 564.067382812 678 564.067382812 678 542.22265625 685 c 132,-1,153
 520.377929688 692 520.377929688 692 491.46484375 696 c 132,-1,154
 462.552734375 700 462.552734375 700 427.857421875 700 c 4,155,156
 394.447265625 700 394.447265625 700 364.892578125 696 c 132,-1,157
 335.337890625 692 335.337890625 692 313.4921875 685 c 132,-1,158
 291.647460938 678 291.647460938 678 279.440429688 668 c 132,-1,159
 267.232421875 658 267.232421875 658 267.232421875 648 c 4,140,141
EndSplineSet
EndChar

StartChar: uni0081
Encoding: 129 129 98
Width: 856
Flags: W
LayerCount: 2
Fore
SplineSet
164.432617188 85 m 0,0,1
 164.432617188 103 164.432617188 103 184.349609375 118 c 128,-1,2
 204.267578125 133 204.267578125 133 240.247070312 144.5 c 128,-1,3
 276.227539062 156 276.227539062 156 324.415039062 162.5 c 128,-1,4
 372.602539062 169 372.602539062 169 427.857421875 169 c 0,5,6
 484.397460938 169 484.397460938 169 532.584960938 162.5 c 128,-1,7
 580.772460938 156 580.772460938 156 616.110351562 144.5 c 128,-1,8
 651.447265625 133 651.447265625 133 672.0078125 118 c 128,-1,9
 692.567382812 103 692.567382812 103 692.567382812 85 c 0,10,11
 692.567382812 68 692.567382812 68 672.0078125 53 c 128,-1,12
 651.447265625 38 651.447265625 38 616.110351562 27 c 128,-1,13
 580.772460938 16 580.772460938 16 532.584960938 9.5 c 128,-1,14
 484.397460938 3 484.397460938 3 427.857421875 3 c 0,15,16
 372.602539062 3 372.602539062 3 324.415039062 9.5 c 128,-1,17
 276.227539062 16 276.227539062 16 240.247070312 27 c 128,-1,18
 204.267578125 38 204.267578125 38 184.349609375 53 c 128,-1,19
 164.432617188 68 164.432617188 68 164.432617188 85 c 0,0,1
164.432617188 272 m 0,20,21
 164.432617188 290 164.432617188 290 184.349609375 305 c 128,-1,22
 204.267578125 320 204.267578125 320 240.247070312 331.5 c 128,-1,23
 276.227539062 343 276.227539062 343 324.415039062 349 c 128,-1,24
 372.602539062 355 372.602539062 355 427.857421875 355 c 0,25,26
 484.397460938 355 484.397460938 355 532.584960938 349 c 128,-1,27
 580.772460938 343 580.772460938 343 616.110351562 331.5 c 128,-1,28
 651.447265625 320 651.447265625 320 672.0078125 305 c 128,-1,29
 692.567382812 290 692.567382812 290 692.567382812 272 c 0,30,31
 692.567382812 255 692.567382812 255 672.0078125 240 c 128,-1,32
 651.447265625 225 651.447265625 225 616.110351562 214 c 128,-1,33
 580.772460938 203 580.772460938 203 532.584960938 196 c 128,-1,34
 484.397460938 189 484.397460938 189 427.857421875 189 c 0,35,36
 372.602539062 189 372.602539062 189 324.415039062 196 c 128,-1,37
 276.227539062 203 276.227539062 203 240.247070312 214 c 128,-1,38
 204.267578125 225 204.267578125 225 184.349609375 240 c 128,-1,39
 164.432617188 255 164.432617188 255 164.432617188 272 c 0,20,21
267.232421875 272 m 256,40,41
 267.232421875 261 267.232421875 261 279.440429688 251.5 c 128,-1,42
 291.647460938 242 291.647460938 242 313.4921875 235 c 128,-1,43
 335.337890625 228 335.337890625 228 364.892578125 224 c 128,-1,44
 394.447265625 220 394.447265625 220 427.857421875 220 c 0,45,46
 462.552734375 220 462.552734375 220 491.46484375 224 c 128,-1,47
 520.377929688 228 520.377929688 228 542.22265625 235 c 128,-1,48
 564.067382812 242 564.067382812 242 576.275390625 251.5 c 128,-1,49
 588.482421875 261 588.482421875 261 588.482421875 272 c 256,50,51
 588.482421875 283 588.482421875 283 576.275390625 292.5 c 128,-1,52
 564.067382812 302 564.067382812 302 542.22265625 309 c 128,-1,53
 520.377929688 316 520.377929688 316 491.46484375 320 c 128,-1,54
 462.552734375 324 462.552734375 324 427.857421875 324 c 0,55,56
 394.447265625 324 394.447265625 324 364.892578125 320 c 128,-1,57
 335.337890625 316 335.337890625 316 313.4921875 309 c 128,-1,58
 291.647460938 302 291.647460938 302 279.440429688 292.5 c 128,-1,59
 267.232421875 283 267.232421875 283 267.232421875 272 c 256,40,41
164.432617188 461 m 256,60,61
 164.432617188 478 164.432617188 478 184.349609375 493.5 c 128,-1,62
 204.267578125 509 204.267578125 509 240.247070312 520 c 128,-1,63
 276.227539062 531 276.227539062 531 324.415039062 537.5 c 128,-1,64
 372.602539062 544 372.602539062 544 427.857421875 544 c 0,65,66
 484.397460938 544 484.397460938 544 532.584960938 537.5 c 128,-1,67
 580.772460938 531 580.772460938 531 616.110351562 520 c 128,-1,68
 651.447265625 509 651.447265625 509 672.0078125 493.5 c 128,-1,69
 692.567382812 478 692.567382812 478 692.567382812 461 c 256,70,71
 692.567382812 444 692.567382812 444 672.0078125 429 c 128,-1,72
 651.447265625 414 651.447265625 414 616.110351562 402.5 c 128,-1,73
 580.772460938 391 580.772460938 391 532.584960938 384.5 c 128,-1,74
 484.397460938 378 484.397460938 378 427.857421875 378 c 0,75,76
 372.602539062 378 372.602539062 378 324.415039062 384.5 c 128,-1,77
 276.227539062 391 276.227539062 391 240.247070312 402.5 c 128,-1,78
 204.267578125 414 204.267578125 414 184.349609375 429 c 128,-1,79
 164.432617188 444 164.432617188 444 164.432617188 461 c 256,60,61
267.232421875 461 m 256,80,81
 267.232421875 450 267.232421875 450 279.440429688 440.5 c 128,-1,82
 291.647460938 431 291.647460938 431 313.4921875 424 c 128,-1,83
 335.337890625 417 335.337890625 417 364.892578125 413 c 128,-1,84
 394.447265625 409 394.447265625 409 427.857421875 409 c 0,85,86
 462.552734375 409 462.552734375 409 491.46484375 413 c 128,-1,87
 520.377929688 417 520.377929688 417 542.22265625 424 c 128,-1,88
 564.067382812 431 564.067382812 431 576.275390625 440.5 c 128,-1,89
 588.482421875 450 588.482421875 450 588.482421875 461 c 256,90,91
 588.482421875 472 588.482421875 472 576.275390625 481.5 c 128,-1,92
 564.067382812 491 564.067382812 491 542.22265625 498 c 128,-1,93
 520.377929688 505 520.377929688 505 491.46484375 509 c 128,-1,94
 462.552734375 513 462.552734375 513 427.857421875 513 c 0,95,96
 394.447265625 513 394.447265625 513 364.892578125 509 c 128,-1,97
 335.337890625 505 335.337890625 505 313.4921875 498 c 128,-1,98
 291.647460938 491 291.647460938 491 279.440429688 481.5 c 128,-1,99
 267.232421875 472 267.232421875 472 267.232421875 461 c 256,80,81
164.432617188 648 m 256,100,101
 164.432617188 665 164.432617188 665 184.349609375 680.5 c 128,-1,102
 204.267578125 696 204.267578125 696 240.247070312 707 c 128,-1,103
 276.227539062 718 276.227539062 718 324.415039062 724.5 c 128,-1,104
 372.602539062 731 372.602539062 731 427.857421875 731 c 0,105,106
 484.397460938 731 484.397460938 731 532.584960938 724.5 c 128,-1,107
 580.772460938 718 580.772460938 718 616.110351562 707 c 128,-1,108
 651.447265625 696 651.447265625 696 672.0078125 680.5 c 128,-1,109
 692.567382812 665 692.567382812 665 692.567382812 648 c 256,110,111
 692.567382812 631 692.567382812 631 672.0078125 616 c 128,-1,112
 651.447265625 601 651.447265625 601 616.110351562 589.5 c 128,-1,113
 580.772460938 578 580.772460938 578 532.584960938 571.5 c 128,-1,114
 484.397460938 565 484.397460938 565 427.857421875 565 c 0,115,116
 372.602539062 565 372.602539062 565 324.415039062 571.5 c 128,-1,117
 276.227539062 578 276.227539062 578 240.247070312 589.5 c 128,-1,118
 204.267578125 601 204.267578125 601 184.349609375 616 c 128,-1,119
 164.432617188 631 164.432617188 631 164.432617188 648 c 256,100,101
267.232421875 648 m 0,120,121
 267.232421875 637 267.232421875 637 279.440429688 627.5 c 128,-1,122
 291.647460938 618 291.647460938 618 313.4921875 611 c 128,-1,123
 335.337890625 604 335.337890625 604 364.892578125 600 c 128,-1,124
 394.447265625 596 394.447265625 596 427.857421875 596 c 0,125,126
 462.552734375 596 462.552734375 596 491.46484375 600 c 128,-1,127
 520.377929688 604 520.377929688 604 542.22265625 611 c 128,-1,128
 564.067382812 618 564.067382812 618 576.275390625 627.5 c 128,-1,129
 588.482421875 637 588.482421875 637 588.482421875 648 c 0,130,131
 588.482421875 658 588.482421875 658 576.275390625 668 c 128,-1,132
 564.067382812 678 564.067382812 678 542.22265625 685 c 128,-1,133
 520.377929688 692 520.377929688 692 491.46484375 696 c 128,-1,134
 462.552734375 700 462.552734375 700 427.857421875 700 c 0,135,136
 394.447265625 700 394.447265625 700 364.892578125 696 c 128,-1,137
 335.337890625 692 335.337890625 692 313.4921875 685 c 128,-1,138
 291.647460938 678 291.647460938 678 279.440429688 668 c 128,-1,139
 267.232421875 658 267.232421875 658 267.232421875 648 c 0,120,121
EndSplineSet
EndChar

StartChar: uni0082
Encoding: 130 130 99
Width: 856
Flags: W
LayerCount: 2
Fore
SplineSet
164.432617188 85 m 0,0,1
 164.432617188 103 164.432617188 103 184.349609375 118 c 128,-1,2
 204.267578125 133 204.267578125 133 240.247070312 144.5 c 128,-1,3
 276.227539062 156 276.227539062 156 324.415039062 162.5 c 128,-1,4
 372.602539062 169 372.602539062 169 427.857421875 169 c 0,5,6
 484.397460938 169 484.397460938 169 532.584960938 162.5 c 128,-1,7
 580.772460938 156 580.772460938 156 616.110351562 144.5 c 128,-1,8
 651.447265625 133 651.447265625 133 672.0078125 118 c 128,-1,9
 692.567382812 103 692.567382812 103 692.567382812 85 c 0,10,11
 692.567382812 68 692.567382812 68 672.0078125 53 c 128,-1,12
 651.447265625 38 651.447265625 38 616.110351562 27 c 128,-1,13
 580.772460938 16 580.772460938 16 532.584960938 9.5 c 128,-1,14
 484.397460938 3 484.397460938 3 427.857421875 3 c 0,15,16
 372.602539062 3 372.602539062 3 324.415039062 9.5 c 128,-1,17
 276.227539062 16 276.227539062 16 240.247070312 27 c 128,-1,18
 204.267578125 38 204.267578125 38 184.349609375 53 c 128,-1,19
 164.432617188 68 164.432617188 68 164.432617188 85 c 0,0,1
267.232421875 85 m 256,20,21
 267.232421875 74 267.232421875 74 279.440429688 64.5 c 128,-1,22
 291.647460938 55 291.647460938 55 313.4921875 48.5 c 128,-1,23
 335.337890625 42 335.337890625 42 364.892578125 38 c 128,-1,24
 394.447265625 34 394.447265625 34 427.857421875 34 c 0,25,26
 462.552734375 34 462.552734375 34 491.46484375 38 c 128,-1,27
 520.377929688 42 520.377929688 42 542.22265625 48.5 c 128,-1,28
 564.067382812 55 564.067382812 55 576.275390625 64.5 c 128,-1,29
 588.482421875 74 588.482421875 74 588.482421875 85 c 256,30,31
 588.482421875 96 588.482421875 96 576.275390625 105.5 c 128,-1,32
 564.067382812 115 564.067382812 115 542.22265625 122 c 128,-1,33
 520.377929688 129 520.377929688 129 491.46484375 133 c 128,-1,34
 462.552734375 137 462.552734375 137 427.857421875 137 c 0,35,36
 394.447265625 137 394.447265625 137 364.892578125 133 c 128,-1,37
 335.337890625 129 335.337890625 129 313.4921875 122 c 128,-1,38
 291.647460938 115 291.647460938 115 279.440429688 105.5 c 128,-1,39
 267.232421875 96 267.232421875 96 267.232421875 85 c 256,20,21
164.432617188 272 m 0,40,41
 164.432617188 290 164.432617188 290 184.349609375 305 c 128,-1,42
 204.267578125 320 204.267578125 320 240.247070312 331.5 c 128,-1,43
 276.227539062 343 276.227539062 343 324.415039062 349 c 128,-1,44
 372.602539062 355 372.602539062 355 427.857421875 355 c 0,45,46
 484.397460938 355 484.397460938 355 532.584960938 349 c 128,-1,47
 580.772460938 343 580.772460938 343 616.110351562 331.5 c 128,-1,48
 651.447265625 320 651.447265625 320 672.0078125 305 c 128,-1,49
 692.567382812 290 692.567382812 290 692.567382812 272 c 0,50,51
 692.567382812 255 692.567382812 255 672.0078125 240 c 128,-1,52
 651.447265625 225 651.447265625 225 616.110351562 214 c 128,-1,53
 580.772460938 203 580.772460938 203 532.584960938 196 c 128,-1,54
 484.397460938 189 484.397460938 189 427.857421875 189 c 0,55,56
 372.602539062 189 372.602539062 189 324.415039062 196 c 128,-1,57
 276.227539062 203 276.227539062 203 240.247070312 214 c 128,-1,58
 204.267578125 225 204.267578125 225 184.349609375 240 c 128,-1,59
 164.432617188 255 164.432617188 255 164.432617188 272 c 0,40,41
164.432617188 461 m 256,60,61
 164.432617188 478 164.432617188 478 184.349609375 493.5 c 128,-1,62
 204.267578125 509 204.267578125 509 240.247070312 520 c 128,-1,63
 276.227539062 531 276.227539062 531 324.415039062 537.5 c 128,-1,64
 372.602539062 544 372.602539062 544 427.857421875 544 c 0,65,66
 484.397460938 544 484.397460938 544 532.584960938 537.5 c 128,-1,67
 580.772460938 531 580.772460938 531 616.110351562 520 c 128,-1,68
 651.447265625 509 651.447265625 509 672.0078125 493.5 c 128,-1,69
 692.567382812 478 692.567382812 478 692.567382812 461 c 256,70,71
 692.567382812 444 692.567382812 444 672.0078125 429 c 128,-1,72
 651.447265625 414 651.447265625 414 616.110351562 402.5 c 128,-1,73
 580.772460938 391 580.772460938 391 532.584960938 384.5 c 128,-1,74
 484.397460938 378 484.397460938 378 427.857421875 378 c 0,75,76
 372.602539062 378 372.602539062 378 324.415039062 384.5 c 128,-1,77
 276.227539062 391 276.227539062 391 240.247070312 402.5 c 128,-1,78
 204.267578125 414 204.267578125 414 184.349609375 429 c 128,-1,79
 164.432617188 444 164.432617188 444 164.432617188 461 c 256,60,61
267.232421875 461 m 256,80,81
 267.232421875 450 267.232421875 450 279.440429688 440.5 c 128,-1,82
 291.647460938 431 291.647460938 431 313.4921875 424 c 128,-1,83
 335.337890625 417 335.337890625 417 364.892578125 413 c 128,-1,84
 394.447265625 409 394.447265625 409 427.857421875 409 c 0,85,86
 462.552734375 409 462.552734375 409 491.46484375 413 c 128,-1,87
 520.377929688 417 520.377929688 417 542.22265625 424 c 128,-1,88
 564.067382812 431 564.067382812 431 576.275390625 440.5 c 128,-1,89
 588.482421875 450 588.482421875 450 588.482421875 461 c 256,90,91
 588.482421875 472 588.482421875 472 576.275390625 481.5 c 128,-1,92
 564.067382812 491 564.067382812 491 542.22265625 498 c 128,-1,93
 520.377929688 505 520.377929688 505 491.46484375 509 c 128,-1,94
 462.552734375 513 462.552734375 513 427.857421875 513 c 0,95,96
 394.447265625 513 394.447265625 513 364.892578125 509 c 128,-1,97
 335.337890625 505 335.337890625 505 313.4921875 498 c 128,-1,98
 291.647460938 491 291.647460938 491 279.440429688 481.5 c 128,-1,99
 267.232421875 472 267.232421875 472 267.232421875 461 c 256,80,81
164.432617188 648 m 256,100,101
 164.432617188 665 164.432617188 665 184.349609375 680.5 c 128,-1,102
 204.267578125 696 204.267578125 696 240.247070312 707 c 128,-1,103
 276.227539062 718 276.227539062 718 324.415039062 724.5 c 128,-1,104
 372.602539062 731 372.602539062 731 427.857421875 731 c 0,105,106
 484.397460938 731 484.397460938 731 532.584960938 724.5 c 128,-1,107
 580.772460938 718 580.772460938 718 616.110351562 707 c 128,-1,108
 651.447265625 696 651.447265625 696 672.0078125 680.5 c 128,-1,109
 692.567382812 665 692.567382812 665 692.567382812 648 c 256,110,111
 692.567382812 631 692.567382812 631 672.0078125 616 c 128,-1,112
 651.447265625 601 651.447265625 601 616.110351562 589.5 c 128,-1,113
 580.772460938 578 580.772460938 578 532.584960938 571.5 c 128,-1,114
 484.397460938 565 484.397460938 565 427.857421875 565 c 0,115,116
 372.602539062 565 372.602539062 565 324.415039062 571.5 c 128,-1,117
 276.227539062 578 276.227539062 578 240.247070312 589.5 c 128,-1,118
 204.267578125 601 204.267578125 601 184.349609375 616 c 128,-1,119
 164.432617188 631 164.432617188 631 164.432617188 648 c 256,100,101
267.232421875 648 m 0,120,121
 267.232421875 637 267.232421875 637 279.440429688 627.5 c 128,-1,122
 291.647460938 618 291.647460938 618 313.4921875 611 c 128,-1,123
 335.337890625 604 335.337890625 604 364.892578125 600 c 128,-1,124
 394.447265625 596 394.447265625 596 427.857421875 596 c 0,125,126
 462.552734375 596 462.552734375 596 491.46484375 600 c 128,-1,127
 520.377929688 604 520.377929688 604 542.22265625 611 c 128,-1,128
 564.067382812 618 564.067382812 618 576.275390625 627.5 c 128,-1,129
 588.482421875 637 588.482421875 637 588.482421875 648 c 0,130,131
 588.482421875 658 588.482421875 658 576.275390625 668 c 128,-1,132
 564.067382812 678 564.067382812 678 542.22265625 685 c 128,-1,133
 520.377929688 692 520.377929688 692 491.46484375 696 c 128,-1,134
 462.552734375 700 462.552734375 700 427.857421875 700 c 0,135,136
 394.447265625 700 394.447265625 700 364.892578125 696 c 128,-1,137
 335.337890625 692 335.337890625 692 313.4921875 685 c 128,-1,138
 291.647460938 678 291.647460938 678 279.440429688 668 c 128,-1,139
 267.232421875 658 267.232421875 658 267.232421875 648 c 0,120,121
EndSplineSet
EndChar

StartChar: uni0083
Encoding: 131 131 100
Width: 856
Flags: W
LayerCount: 2
Fore
SplineSet
164.432617188 85 m 0,0,1
 164.432617188 103 164.432617188 103 184.349609375 118 c 128,-1,2
 204.267578125 133 204.267578125 133 240.247070312 144.5 c 128,-1,3
 276.227539062 156 276.227539062 156 324.415039062 162.5 c 128,-1,4
 372.602539062 169 372.602539062 169 427.857421875 169 c 0,5,6
 484.397460938 169 484.397460938 169 532.584960938 162.5 c 128,-1,7
 580.772460938 156 580.772460938 156 616.110351562 144.5 c 128,-1,8
 651.447265625 133 651.447265625 133 672.0078125 118 c 128,-1,9
 692.567382812 103 692.567382812 103 692.567382812 85 c 0,10,11
 692.567382812 68 692.567382812 68 672.0078125 53 c 128,-1,12
 651.447265625 38 651.447265625 38 616.110351562 27 c 128,-1,13
 580.772460938 16 580.772460938 16 532.584960938 9.5 c 128,-1,14
 484.397460938 3 484.397460938 3 427.857421875 3 c 0,15,16
 372.602539062 3 372.602539062 3 324.415039062 9.5 c 128,-1,17
 276.227539062 16 276.227539062 16 240.247070312 27 c 128,-1,18
 204.267578125 38 204.267578125 38 184.349609375 53 c 128,-1,19
 164.432617188 68 164.432617188 68 164.432617188 85 c 0,0,1
164.432617188 272 m 0,20,21
 164.432617188 290 164.432617188 290 184.349609375 305 c 128,-1,22
 204.267578125 320 204.267578125 320 240.247070312 331.5 c 128,-1,23
 276.227539062 343 276.227539062 343 324.415039062 349 c 128,-1,24
 372.602539062 355 372.602539062 355 427.857421875 355 c 0,25,26
 484.397460938 355 484.397460938 355 532.584960938 349 c 128,-1,27
 580.772460938 343 580.772460938 343 616.110351562 331.5 c 128,-1,28
 651.447265625 320 651.447265625 320 672.0078125 305 c 128,-1,29
 692.567382812 290 692.567382812 290 692.567382812 272 c 0,30,31
 692.567382812 255 692.567382812 255 672.0078125 240 c 128,-1,32
 651.447265625 225 651.447265625 225 616.110351562 214 c 128,-1,33
 580.772460938 203 580.772460938 203 532.584960938 196 c 128,-1,34
 484.397460938 189 484.397460938 189 427.857421875 189 c 0,35,36
 372.602539062 189 372.602539062 189 324.415039062 196 c 128,-1,37
 276.227539062 203 276.227539062 203 240.247070312 214 c 128,-1,38
 204.267578125 225 204.267578125 225 184.349609375 240 c 128,-1,39
 164.432617188 255 164.432617188 255 164.432617188 272 c 0,20,21
164.432617188 461 m 256,40,41
 164.432617188 478 164.432617188 478 184.349609375 493.5 c 128,-1,42
 204.267578125 509 204.267578125 509 240.247070312 520 c 128,-1,43
 276.227539062 531 276.227539062 531 324.415039062 537.5 c 128,-1,44
 372.602539062 544 372.602539062 544 427.857421875 544 c 0,45,46
 484.397460938 544 484.397460938 544 532.584960938 537.5 c 128,-1,47
 580.772460938 531 580.772460938 531 616.110351562 520 c 128,-1,48
 651.447265625 509 651.447265625 509 672.0078125 493.5 c 128,-1,49
 692.567382812 478 692.567382812 478 692.567382812 461 c 256,50,51
 692.567382812 444 692.567382812 444 672.0078125 429 c 128,-1,52
 651.447265625 414 651.447265625 414 616.110351562 402.5 c 128,-1,53
 580.772460938 391 580.772460938 391 532.584960938 384.5 c 128,-1,54
 484.397460938 378 484.397460938 378 427.857421875 378 c 0,55,56
 372.602539062 378 372.602539062 378 324.415039062 384.5 c 128,-1,57
 276.227539062 391 276.227539062 391 240.247070312 402.5 c 128,-1,58
 204.267578125 414 204.267578125 414 184.349609375 429 c 128,-1,59
 164.432617188 444 164.432617188 444 164.432617188 461 c 256,40,41
267.232421875 461 m 256,60,61
 267.232421875 450 267.232421875 450 279.440429688 440.5 c 128,-1,62
 291.647460938 431 291.647460938 431 313.4921875 424 c 128,-1,63
 335.337890625 417 335.337890625 417 364.892578125 413 c 128,-1,64
 394.447265625 409 394.447265625 409 427.857421875 409 c 0,65,66
 462.552734375 409 462.552734375 409 491.46484375 413 c 128,-1,67
 520.377929688 417 520.377929688 417 542.22265625 424 c 128,-1,68
 564.067382812 431 564.067382812 431 576.275390625 440.5 c 128,-1,69
 588.482421875 450 588.482421875 450 588.482421875 461 c 256,70,71
 588.482421875 472 588.482421875 472 576.275390625 481.5 c 128,-1,72
 564.067382812 491 564.067382812 491 542.22265625 498 c 128,-1,73
 520.377929688 505 520.377929688 505 491.46484375 509 c 128,-1,74
 462.552734375 513 462.552734375 513 427.857421875 513 c 0,75,76
 394.447265625 513 394.447265625 513 364.892578125 509 c 128,-1,77
 335.337890625 505 335.337890625 505 313.4921875 498 c 128,-1,78
 291.647460938 491 291.647460938 491 279.440429688 481.5 c 128,-1,79
 267.232421875 472 267.232421875 472 267.232421875 461 c 256,60,61
164.432617188 648 m 256,80,81
 164.432617188 665 164.432617188 665 184.349609375 680.5 c 128,-1,82
 204.267578125 696 204.267578125 696 240.247070312 707 c 128,-1,83
 276.227539062 718 276.227539062 718 324.415039062 724.5 c 128,-1,84
 372.602539062 731 372.602539062 731 427.857421875 731 c 0,85,86
 484.397460938 731 484.397460938 731 532.584960938 724.5 c 128,-1,87
 580.772460938 718 580.772460938 718 616.110351562 707 c 128,-1,88
 651.447265625 696 651.447265625 696 672.0078125 680.5 c 128,-1,89
 692.567382812 665 692.567382812 665 692.567382812 648 c 256,90,91
 692.567382812 631 692.567382812 631 672.0078125 616 c 128,-1,92
 651.447265625 601 651.447265625 601 616.110351562 589.5 c 128,-1,93
 580.772460938 578 580.772460938 578 532.584960938 571.5 c 128,-1,94
 484.397460938 565 484.397460938 565 427.857421875 565 c 0,95,96
 372.602539062 565 372.602539062 565 324.415039062 571.5 c 128,-1,97
 276.227539062 578 276.227539062 578 240.247070312 589.5 c 128,-1,98
 204.267578125 601 204.267578125 601 184.349609375 616 c 128,-1,99
 164.432617188 631 164.432617188 631 164.432617188 648 c 256,80,81
267.232421875 648 m 0,100,101
 267.232421875 637 267.232421875 637 279.440429688 627.5 c 128,-1,102
 291.647460938 618 291.647460938 618 313.4921875 611 c 128,-1,103
 335.337890625 604 335.337890625 604 364.892578125 600 c 128,-1,104
 394.447265625 596 394.447265625 596 427.857421875 596 c 0,105,106
 462.552734375 596 462.552734375 596 491.46484375 600 c 128,-1,107
 520.377929688 604 520.377929688 604 542.22265625 611 c 128,-1,108
 564.067382812 618 564.067382812 618 576.275390625 627.5 c 128,-1,109
 588.482421875 637 588.482421875 637 588.482421875 648 c 0,110,111
 588.482421875 658 588.482421875 658 576.275390625 668 c 128,-1,112
 564.067382812 678 564.067382812 678 542.22265625 685 c 128,-1,113
 520.377929688 692 520.377929688 692 491.46484375 696 c 128,-1,114
 462.552734375 700 462.552734375 700 427.857421875 700 c 0,115,116
 394.447265625 700 394.447265625 700 364.892578125 696 c 128,-1,117
 335.337890625 692 335.337890625 692 313.4921875 685 c 128,-1,118
 291.647460938 678 291.647460938 678 279.440429688 668 c 128,-1,119
 267.232421875 658 267.232421875 658 267.232421875 648 c 0,100,101
EndSplineSet
EndChar

StartChar: uni0084
Encoding: 132 132 101
Width: 856
Flags: W
LayerCount: 2
Fore
SplineSet
164.432617188 85 m 0,0,1
 164.432617188 103 164.432617188 103 184.349609375 118 c 128,-1,2
 204.267578125 133 204.267578125 133 240.247070312 144.5 c 128,-1,3
 276.227539062 156 276.227539062 156 324.415039062 162.5 c 128,-1,4
 372.602539062 169 372.602539062 169 427.857421875 169 c 0,5,6
 484.397460938 169 484.397460938 169 532.584960938 162.5 c 128,-1,7
 580.772460938 156 580.772460938 156 616.110351562 144.5 c 128,-1,8
 651.447265625 133 651.447265625 133 672.0078125 118 c 128,-1,9
 692.567382812 103 692.567382812 103 692.567382812 85 c 0,10,11
 692.567382812 68 692.567382812 68 672.0078125 53 c 128,-1,12
 651.447265625 38 651.447265625 38 616.110351562 27 c 128,-1,13
 580.772460938 16 580.772460938 16 532.584960938 9.5 c 128,-1,14
 484.397460938 3 484.397460938 3 427.857421875 3 c 0,15,16
 372.602539062 3 372.602539062 3 324.415039062 9.5 c 128,-1,17
 276.227539062 16 276.227539062 16 240.247070312 27 c 128,-1,18
 204.267578125 38 204.267578125 38 184.349609375 53 c 128,-1,19
 164.432617188 68 164.432617188 68 164.432617188 85 c 0,0,1
267.232421875 85 m 256,20,21
 267.232421875 74 267.232421875 74 279.440429688 64.5 c 128,-1,22
 291.647460938 55 291.647460938 55 313.4921875 48.5 c 128,-1,23
 335.337890625 42 335.337890625 42 364.892578125 38 c 128,-1,24
 394.447265625 34 394.447265625 34 427.857421875 34 c 0,25,26
 462.552734375 34 462.552734375 34 491.46484375 38 c 128,-1,27
 520.377929688 42 520.377929688 42 542.22265625 48.5 c 128,-1,28
 564.067382812 55 564.067382812 55 576.275390625 64.5 c 128,-1,29
 588.482421875 74 588.482421875 74 588.482421875 85 c 256,30,31
 588.482421875 96 588.482421875 96 576.275390625 105.5 c 128,-1,32
 564.067382812 115 564.067382812 115 542.22265625 122 c 128,-1,33
 520.377929688 129 520.377929688 129 491.46484375 133 c 128,-1,34
 462.552734375 137 462.552734375 137 427.857421875 137 c 0,35,36
 394.447265625 137 394.447265625 137 364.892578125 133 c 128,-1,37
 335.337890625 129 335.337890625 129 313.4921875 122 c 128,-1,38
 291.647460938 115 291.647460938 115 279.440429688 105.5 c 128,-1,39
 267.232421875 96 267.232421875 96 267.232421875 85 c 256,20,21
164.432617188 272 m 0,40,41
 164.432617188 290 164.432617188 290 184.349609375 305 c 128,-1,42
 204.267578125 320 204.267578125 320 240.247070312 331.5 c 128,-1,43
 276.227539062 343 276.227539062 343 324.415039062 349 c 128,-1,44
 372.602539062 355 372.602539062 355 427.857421875 355 c 0,45,46
 484.397460938 355 484.397460938 355 532.584960938 349 c 128,-1,47
 580.772460938 343 580.772460938 343 616.110351562 331.5 c 128,-1,48
 651.447265625 320 651.447265625 320 672.0078125 305 c 128,-1,49
 692.567382812 290 692.567382812 290 692.567382812 272 c 0,50,51
 692.567382812 255 692.567382812 255 672.0078125 240 c 128,-1,52
 651.447265625 225 651.447265625 225 616.110351562 214 c 128,-1,53
 580.772460938 203 580.772460938 203 532.584960938 196 c 128,-1,54
 484.397460938 189 484.397460938 189 427.857421875 189 c 0,55,56
 372.602539062 189 372.602539062 189 324.415039062 196 c 128,-1,57
 276.227539062 203 276.227539062 203 240.247070312 214 c 128,-1,58
 204.267578125 225 204.267578125 225 184.349609375 240 c 128,-1,59
 164.432617188 255 164.432617188 255 164.432617188 272 c 0,40,41
267.232421875 272 m 256,60,61
 267.232421875 261 267.232421875 261 279.440429688 251.5 c 128,-1,62
 291.647460938 242 291.647460938 242 313.4921875 235 c 128,-1,63
 335.337890625 228 335.337890625 228 364.892578125 224 c 128,-1,64
 394.447265625 220 394.447265625 220 427.857421875 220 c 0,65,66
 462.552734375 220 462.552734375 220 491.46484375 224 c 128,-1,67
 520.377929688 228 520.377929688 228 542.22265625 235 c 128,-1,68
 564.067382812 242 564.067382812 242 576.275390625 251.5 c 128,-1,69
 588.482421875 261 588.482421875 261 588.482421875 272 c 256,70,71
 588.482421875 283 588.482421875 283 576.275390625 292.5 c 128,-1,72
 564.067382812 302 564.067382812 302 542.22265625 309 c 128,-1,73
 520.377929688 316 520.377929688 316 491.46484375 320 c 128,-1,74
 462.552734375 324 462.552734375 324 427.857421875 324 c 0,75,76
 394.447265625 324 394.447265625 324 364.892578125 320 c 128,-1,77
 335.337890625 316 335.337890625 316 313.4921875 309 c 128,-1,78
 291.647460938 302 291.647460938 302 279.440429688 292.5 c 128,-1,79
 267.232421875 283 267.232421875 283 267.232421875 272 c 256,60,61
164.432617188 461 m 256,80,81
 164.432617188 478 164.432617188 478 184.349609375 493.5 c 128,-1,82
 204.267578125 509 204.267578125 509 240.247070312 520 c 128,-1,83
 276.227539062 531 276.227539062 531 324.415039062 537.5 c 128,-1,84
 372.602539062 544 372.602539062 544 427.857421875 544 c 0,85,86
 484.397460938 544 484.397460938 544 532.584960938 537.5 c 128,-1,87
 580.772460938 531 580.772460938 531 616.110351562 520 c 128,-1,88
 651.447265625 509 651.447265625 509 672.0078125 493.5 c 128,-1,89
 692.567382812 478 692.567382812 478 692.567382812 461 c 256,90,91
 692.567382812 444 692.567382812 444 672.0078125 429 c 128,-1,92
 651.447265625 414 651.447265625 414 616.110351562 402.5 c 128,-1,93
 580.772460938 391 580.772460938 391 532.584960938 384.5 c 128,-1,94
 484.397460938 378 484.397460938 378 427.857421875 378 c 0,95,96
 372.602539062 378 372.602539062 378 324.415039062 384.5 c 128,-1,97
 276.227539062 391 276.227539062 391 240.247070312 402.5 c 128,-1,98
 204.267578125 414 204.267578125 414 184.349609375 429 c 128,-1,99
 164.432617188 444 164.432617188 444 164.432617188 461 c 256,80,81
164.432617188 648 m 256,100,101
 164.432617188 665 164.432617188 665 184.349609375 680.5 c 128,-1,102
 204.267578125 696 204.267578125 696 240.247070312 707 c 128,-1,103
 276.227539062 718 276.227539062 718 324.415039062 724.5 c 128,-1,104
 372.602539062 731 372.602539062 731 427.857421875 731 c 0,105,106
 484.397460938 731 484.397460938 731 532.584960938 724.5 c 128,-1,107
 580.772460938 718 580.772460938 718 616.110351562 707 c 128,-1,108
 651.447265625 696 651.447265625 696 672.0078125 680.5 c 128,-1,109
 692.567382812 665 692.567382812 665 692.567382812 648 c 256,110,111
 692.567382812 631 692.567382812 631 672.0078125 616 c 128,-1,112
 651.447265625 601 651.447265625 601 616.110351562 589.5 c 128,-1,113
 580.772460938 578 580.772460938 578 532.584960938 571.5 c 128,-1,114
 484.397460938 565 484.397460938 565 427.857421875 565 c 0,115,116
 372.602539062 565 372.602539062 565 324.415039062 571.5 c 128,-1,117
 276.227539062 578 276.227539062 578 240.247070312 589.5 c 128,-1,118
 204.267578125 601 204.267578125 601 184.349609375 616 c 128,-1,119
 164.432617188 631 164.432617188 631 164.432617188 648 c 256,100,101
267.232421875 648 m 0,120,121
 267.232421875 637 267.232421875 637 279.440429688 627.5 c 128,-1,122
 291.647460938 618 291.647460938 618 313.4921875 611 c 128,-1,123
 335.337890625 604 335.337890625 604 364.892578125 600 c 128,-1,124
 394.447265625 596 394.447265625 596 427.857421875 596 c 0,125,126
 462.552734375 596 462.552734375 596 491.46484375 600 c 128,-1,127
 520.377929688 604 520.377929688 604 542.22265625 611 c 128,-1,128
 564.067382812 618 564.067382812 618 576.275390625 627.5 c 128,-1,129
 588.482421875 637 588.482421875 637 588.482421875 648 c 0,130,131
 588.482421875 658 588.482421875 658 576.275390625 668 c 128,-1,132
 564.067382812 678 564.067382812 678 542.22265625 685 c 128,-1,133
 520.377929688 692 520.377929688 692 491.46484375 696 c 128,-1,134
 462.552734375 700 462.552734375 700 427.857421875 700 c 0,135,136
 394.447265625 700 394.447265625 700 364.892578125 696 c 128,-1,137
 335.337890625 692 335.337890625 692 313.4921875 685 c 128,-1,138
 291.647460938 678 291.647460938 678 279.440429688 668 c 128,-1,139
 267.232421875 658 267.232421875 658 267.232421875 648 c 0,120,121
EndSplineSet
EndChar

StartChar: uni0085
Encoding: 133 133 102
Width: 856
Flags: W
LayerCount: 2
Fore
SplineSet
164.432617188 85 m 0,0,1
 164.432617188 103 164.432617188 103 184.349609375 118 c 128,-1,2
 204.267578125 133 204.267578125 133 240.247070312 144.5 c 128,-1,3
 276.227539062 156 276.227539062 156 324.415039062 162.5 c 128,-1,4
 372.602539062 169 372.602539062 169 427.857421875 169 c 0,5,6
 484.397460938 169 484.397460938 169 532.584960938 162.5 c 128,-1,7
 580.772460938 156 580.772460938 156 616.110351562 144.5 c 128,-1,8
 651.447265625 133 651.447265625 133 672.0078125 118 c 128,-1,9
 692.567382812 103 692.567382812 103 692.567382812 85 c 0,10,11
 692.567382812 68 692.567382812 68 672.0078125 53 c 128,-1,12
 651.447265625 38 651.447265625 38 616.110351562 27 c 128,-1,13
 580.772460938 16 580.772460938 16 532.584960938 9.5 c 128,-1,14
 484.397460938 3 484.397460938 3 427.857421875 3 c 0,15,16
 372.602539062 3 372.602539062 3 324.415039062 9.5 c 128,-1,17
 276.227539062 16 276.227539062 16 240.247070312 27 c 128,-1,18
 204.267578125 38 204.267578125 38 184.349609375 53 c 128,-1,19
 164.432617188 68 164.432617188 68 164.432617188 85 c 0,0,1
164.432617188 272 m 0,20,21
 164.432617188 290 164.432617188 290 184.349609375 305 c 128,-1,22
 204.267578125 320 204.267578125 320 240.247070312 331.5 c 128,-1,23
 276.227539062 343 276.227539062 343 324.415039062 349 c 128,-1,24
 372.602539062 355 372.602539062 355 427.857421875 355 c 0,25,26
 484.397460938 355 484.397460938 355 532.584960938 349 c 128,-1,27
 580.772460938 343 580.772460938 343 616.110351562 331.5 c 128,-1,28
 651.447265625 320 651.447265625 320 672.0078125 305 c 128,-1,29
 692.567382812 290 692.567382812 290 692.567382812 272 c 0,30,31
 692.567382812 255 692.567382812 255 672.0078125 240 c 128,-1,32
 651.447265625 225 651.447265625 225 616.110351562 214 c 128,-1,33
 580.772460938 203 580.772460938 203 532.584960938 196 c 128,-1,34
 484.397460938 189 484.397460938 189 427.857421875 189 c 0,35,36
 372.602539062 189 372.602539062 189 324.415039062 196 c 128,-1,37
 276.227539062 203 276.227539062 203 240.247070312 214 c 128,-1,38
 204.267578125 225 204.267578125 225 184.349609375 240 c 128,-1,39
 164.432617188 255 164.432617188 255 164.432617188 272 c 0,20,21
267.232421875 272 m 256,40,41
 267.232421875 261 267.232421875 261 279.440429688 251.5 c 128,-1,42
 291.647460938 242 291.647460938 242 313.4921875 235 c 128,-1,43
 335.337890625 228 335.337890625 228 364.892578125 224 c 128,-1,44
 394.447265625 220 394.447265625 220 427.857421875 220 c 0,45,46
 462.552734375 220 462.552734375 220 491.46484375 224 c 128,-1,47
 520.377929688 228 520.377929688 228 542.22265625 235 c 128,-1,48
 564.067382812 242 564.067382812 242 576.275390625 251.5 c 128,-1,49
 588.482421875 261 588.482421875 261 588.482421875 272 c 256,50,51
 588.482421875 283 588.482421875 283 576.275390625 292.5 c 128,-1,52
 564.067382812 302 564.067382812 302 542.22265625 309 c 128,-1,53
 520.377929688 316 520.377929688 316 491.46484375 320 c 128,-1,54
 462.552734375 324 462.552734375 324 427.857421875 324 c 0,55,56
 394.447265625 324 394.447265625 324 364.892578125 320 c 128,-1,57
 335.337890625 316 335.337890625 316 313.4921875 309 c 128,-1,58
 291.647460938 302 291.647460938 302 279.440429688 292.5 c 128,-1,59
 267.232421875 283 267.232421875 283 267.232421875 272 c 256,40,41
164.432617188 461 m 256,60,61
 164.432617188 478 164.432617188 478 184.349609375 493.5 c 128,-1,62
 204.267578125 509 204.267578125 509 240.247070312 520 c 128,-1,63
 276.227539062 531 276.227539062 531 324.415039062 537.5 c 128,-1,64
 372.602539062 544 372.602539062 544 427.857421875 544 c 0,65,66
 484.397460938 544 484.397460938 544 532.584960938 537.5 c 128,-1,67
 580.772460938 531 580.772460938 531 616.110351562 520 c 128,-1,68
 651.447265625 509 651.447265625 509 672.0078125 493.5 c 128,-1,69
 692.567382812 478 692.567382812 478 692.567382812 461 c 256,70,71
 692.567382812 444 692.567382812 444 672.0078125 429 c 128,-1,72
 651.447265625 414 651.447265625 414 616.110351562 402.5 c 128,-1,73
 580.772460938 391 580.772460938 391 532.584960938 384.5 c 128,-1,74
 484.397460938 378 484.397460938 378 427.857421875 378 c 0,75,76
 372.602539062 378 372.602539062 378 324.415039062 384.5 c 128,-1,77
 276.227539062 391 276.227539062 391 240.247070312 402.5 c 128,-1,78
 204.267578125 414 204.267578125 414 184.349609375 429 c 128,-1,79
 164.432617188 444 164.432617188 444 164.432617188 461 c 256,60,61
164.432617188 648 m 256,80,81
 164.432617188 665 164.432617188 665 184.349609375 680.5 c 128,-1,82
 204.267578125 696 204.267578125 696 240.247070312 707 c 128,-1,83
 276.227539062 718 276.227539062 718 324.415039062 724.5 c 128,-1,84
 372.602539062 731 372.602539062 731 427.857421875 731 c 0,85,86
 484.397460938 731 484.397460938 731 532.584960938 724.5 c 128,-1,87
 580.772460938 718 580.772460938 718 616.110351562 707 c 128,-1,88
 651.447265625 696 651.447265625 696 672.0078125 680.5 c 128,-1,89
 692.567382812 665 692.567382812 665 692.567382812 648 c 256,90,91
 692.567382812 631 692.567382812 631 672.0078125 616 c 128,-1,92
 651.447265625 601 651.447265625 601 616.110351562 589.5 c 128,-1,93
 580.772460938 578 580.772460938 578 532.584960938 571.5 c 128,-1,94
 484.397460938 565 484.397460938 565 427.857421875 565 c 0,95,96
 372.602539062 565 372.602539062 565 324.415039062 571.5 c 128,-1,97
 276.227539062 578 276.227539062 578 240.247070312 589.5 c 128,-1,98
 204.267578125 601 204.267578125 601 184.349609375 616 c 128,-1,99
 164.432617188 631 164.432617188 631 164.432617188 648 c 256,80,81
267.232421875 648 m 0,100,101
 267.232421875 637 267.232421875 637 279.440429688 627.5 c 128,-1,102
 291.647460938 618 291.647460938 618 313.4921875 611 c 128,-1,103
 335.337890625 604 335.337890625 604 364.892578125 600 c 128,-1,104
 394.447265625 596 394.447265625 596 427.857421875 596 c 0,105,106
 462.552734375 596 462.552734375 596 491.46484375 600 c 128,-1,107
 520.377929688 604 520.377929688 604 542.22265625 611 c 128,-1,108
 564.067382812 618 564.067382812 618 576.275390625 627.5 c 128,-1,109
 588.482421875 637 588.482421875 637 588.482421875 648 c 0,110,111
 588.482421875 658 588.482421875 658 576.275390625 668 c 128,-1,112
 564.067382812 678 564.067382812 678 542.22265625 685 c 128,-1,113
 520.377929688 692 520.377929688 692 491.46484375 696 c 128,-1,114
 462.552734375 700 462.552734375 700 427.857421875 700 c 0,115,116
 394.447265625 700 394.447265625 700 364.892578125 696 c 128,-1,117
 335.337890625 692 335.337890625 692 313.4921875 685 c 128,-1,118
 291.647460938 678 291.647460938 678 279.440429688 668 c 128,-1,119
 267.232421875 658 267.232421875 658 267.232421875 648 c 0,100,101
EndSplineSet
EndChar

StartChar: uni0086
Encoding: 134 134 103
Width: 856
Flags: W
LayerCount: 2
Fore
SplineSet
164.432617188 85 m 0,0,1
 164.432617188 103 164.432617188 103 184.349609375 118 c 128,-1,2
 204.267578125 133 204.267578125 133 240.247070312 144.5 c 128,-1,3
 276.227539062 156 276.227539062 156 324.415039062 162.5 c 128,-1,4
 372.602539062 169 372.602539062 169 427.857421875 169 c 0,5,6
 484.397460938 169 484.397460938 169 532.584960938 162.5 c 128,-1,7
 580.772460938 156 580.772460938 156 616.110351562 144.5 c 128,-1,8
 651.447265625 133 651.447265625 133 672.0078125 118 c 128,-1,9
 692.567382812 103 692.567382812 103 692.567382812 85 c 0,10,11
 692.567382812 68 692.567382812 68 672.0078125 53 c 128,-1,12
 651.447265625 38 651.447265625 38 616.110351562 27 c 128,-1,13
 580.772460938 16 580.772460938 16 532.584960938 9.5 c 128,-1,14
 484.397460938 3 484.397460938 3 427.857421875 3 c 0,15,16
 372.602539062 3 372.602539062 3 324.415039062 9.5 c 128,-1,17
 276.227539062 16 276.227539062 16 240.247070312 27 c 128,-1,18
 204.267578125 38 204.267578125 38 184.349609375 53 c 128,-1,19
 164.432617188 68 164.432617188 68 164.432617188 85 c 0,0,1
267.232421875 85 m 256,20,21
 267.232421875 74 267.232421875 74 279.440429688 64.5 c 128,-1,22
 291.647460938 55 291.647460938 55 313.4921875 48.5 c 128,-1,23
 335.337890625 42 335.337890625 42 364.892578125 38 c 128,-1,24
 394.447265625 34 394.447265625 34 427.857421875 34 c 0,25,26
 462.552734375 34 462.552734375 34 491.46484375 38 c 128,-1,27
 520.377929688 42 520.377929688 42 542.22265625 48.5 c 128,-1,28
 564.067382812 55 564.067382812 55 576.275390625 64.5 c 128,-1,29
 588.482421875 74 588.482421875 74 588.482421875 85 c 256,30,31
 588.482421875 96 588.482421875 96 576.275390625 105.5 c 128,-1,32
 564.067382812 115 564.067382812 115 542.22265625 122 c 128,-1,33
 520.377929688 129 520.377929688 129 491.46484375 133 c 128,-1,34
 462.552734375 137 462.552734375 137 427.857421875 137 c 0,35,36
 394.447265625 137 394.447265625 137 364.892578125 133 c 128,-1,37
 335.337890625 129 335.337890625 129 313.4921875 122 c 128,-1,38
 291.647460938 115 291.647460938 115 279.440429688 105.5 c 128,-1,39
 267.232421875 96 267.232421875 96 267.232421875 85 c 256,20,21
164.432617188 272 m 0,40,41
 164.432617188 290 164.432617188 290 184.349609375 305 c 128,-1,42
 204.267578125 320 204.267578125 320 240.247070312 331.5 c 128,-1,43
 276.227539062 343 276.227539062 343 324.415039062 349 c 128,-1,44
 372.602539062 355 372.602539062 355 427.857421875 355 c 0,45,46
 484.397460938 355 484.397460938 355 532.584960938 349 c 128,-1,47
 580.772460938 343 580.772460938 343 616.110351562 331.5 c 128,-1,48
 651.447265625 320 651.447265625 320 672.0078125 305 c 128,-1,49
 692.567382812 290 692.567382812 290 692.567382812 272 c 0,50,51
 692.567382812 255 692.567382812 255 672.0078125 240 c 128,-1,52
 651.447265625 225 651.447265625 225 616.110351562 214 c 128,-1,53
 580.772460938 203 580.772460938 203 532.584960938 196 c 128,-1,54
 484.397460938 189 484.397460938 189 427.857421875 189 c 0,55,56
 372.602539062 189 372.602539062 189 324.415039062 196 c 128,-1,57
 276.227539062 203 276.227539062 203 240.247070312 214 c 128,-1,58
 204.267578125 225 204.267578125 225 184.349609375 240 c 128,-1,59
 164.432617188 255 164.432617188 255 164.432617188 272 c 0,40,41
164.432617188 461 m 256,60,61
 164.432617188 478 164.432617188 478 184.349609375 493.5 c 128,-1,62
 204.267578125 509 204.267578125 509 240.247070312 520 c 128,-1,63
 276.227539062 531 276.227539062 531 324.415039062 537.5 c 128,-1,64
 372.602539062 544 372.602539062 544 427.857421875 544 c 0,65,66
 484.397460938 544 484.397460938 544 532.584960938 537.5 c 128,-1,67
 580.772460938 531 580.772460938 531 616.110351562 520 c 128,-1,68
 651.447265625 509 651.447265625 509 672.0078125 493.5 c 128,-1,69
 692.567382812 478 692.567382812 478 692.567382812 461 c 256,70,71
 692.567382812 444 692.567382812 444 672.0078125 429 c 128,-1,72
 651.447265625 414 651.447265625 414 616.110351562 402.5 c 128,-1,73
 580.772460938 391 580.772460938 391 532.584960938 384.5 c 128,-1,74
 484.397460938 378 484.397460938 378 427.857421875 378 c 0,75,76
 372.602539062 378 372.602539062 378 324.415039062 384.5 c 128,-1,77
 276.227539062 391 276.227539062 391 240.247070312 402.5 c 128,-1,78
 204.267578125 414 204.267578125 414 184.349609375 429 c 128,-1,79
 164.432617188 444 164.432617188 444 164.432617188 461 c 256,60,61
164.432617188 648 m 256,80,81
 164.432617188 665 164.432617188 665 184.349609375 680.5 c 128,-1,82
 204.267578125 696 204.267578125 696 240.247070312 707 c 128,-1,83
 276.227539062 718 276.227539062 718 324.415039062 724.5 c 128,-1,84
 372.602539062 731 372.602539062 731 427.857421875 731 c 0,85,86
 484.397460938 731 484.397460938 731 532.584960938 724.5 c 128,-1,87
 580.772460938 718 580.772460938 718 616.110351562 707 c 128,-1,88
 651.447265625 696 651.447265625 696 672.0078125 680.5 c 128,-1,89
 692.567382812 665 692.567382812 665 692.567382812 648 c 256,90,91
 692.567382812 631 692.567382812 631 672.0078125 616 c 128,-1,92
 651.447265625 601 651.447265625 601 616.110351562 589.5 c 128,-1,93
 580.772460938 578 580.772460938 578 532.584960938 571.5 c 128,-1,94
 484.397460938 565 484.397460938 565 427.857421875 565 c 0,95,96
 372.602539062 565 372.602539062 565 324.415039062 571.5 c 128,-1,97
 276.227539062 578 276.227539062 578 240.247070312 589.5 c 128,-1,98
 204.267578125 601 204.267578125 601 184.349609375 616 c 128,-1,99
 164.432617188 631 164.432617188 631 164.432617188 648 c 256,80,81
267.232421875 648 m 0,100,101
 267.232421875 637 267.232421875 637 279.440429688 627.5 c 128,-1,102
 291.647460938 618 291.647460938 618 313.4921875 611 c 128,-1,103
 335.337890625 604 335.337890625 604 364.892578125 600 c 128,-1,104
 394.447265625 596 394.447265625 596 427.857421875 596 c 0,105,106
 462.552734375 596 462.552734375 596 491.46484375 600 c 128,-1,107
 520.377929688 604 520.377929688 604 542.22265625 611 c 128,-1,108
 564.067382812 618 564.067382812 618 576.275390625 627.5 c 128,-1,109
 588.482421875 637 588.482421875 637 588.482421875 648 c 0,110,111
 588.482421875 658 588.482421875 658 576.275390625 668 c 128,-1,112
 564.067382812 678 564.067382812 678 542.22265625 685 c 128,-1,113
 520.377929688 692 520.377929688 692 491.46484375 696 c 128,-1,114
 462.552734375 700 462.552734375 700 427.857421875 700 c 0,115,116
 394.447265625 700 394.447265625 700 364.892578125 696 c 128,-1,117
 335.337890625 692 335.337890625 692 313.4921875 685 c 128,-1,118
 291.647460938 678 291.647460938 678 279.440429688 668 c 128,-1,119
 267.232421875 658 267.232421875 658 267.232421875 648 c 0,100,101
EndSplineSet
EndChar

StartChar: uni0087
Encoding: 135 135 104
Width: 856
Flags: W
LayerCount: 2
Fore
SplineSet
164.432617188 85 m 0,0,1
 164.432617188 103 164.432617188 103 184.349609375 118 c 128,-1,2
 204.267578125 133 204.267578125 133 240.247070312 144.5 c 128,-1,3
 276.227539062 156 276.227539062 156 324.415039062 162.5 c 128,-1,4
 372.602539062 169 372.602539062 169 427.857421875 169 c 0,5,6
 484.397460938 169 484.397460938 169 532.584960938 162.5 c 128,-1,7
 580.772460938 156 580.772460938 156 616.110351562 144.5 c 128,-1,8
 651.447265625 133 651.447265625 133 672.0078125 118 c 128,-1,9
 692.567382812 103 692.567382812 103 692.567382812 85 c 0,10,11
 692.567382812 68 692.567382812 68 672.0078125 53 c 128,-1,12
 651.447265625 38 651.447265625 38 616.110351562 27 c 128,-1,13
 580.772460938 16 580.772460938 16 532.584960938 9.5 c 128,-1,14
 484.397460938 3 484.397460938 3 427.857421875 3 c 0,15,16
 372.602539062 3 372.602539062 3 324.415039062 9.5 c 128,-1,17
 276.227539062 16 276.227539062 16 240.247070312 27 c 128,-1,18
 204.267578125 38 204.267578125 38 184.349609375 53 c 128,-1,19
 164.432617188 68 164.432617188 68 164.432617188 85 c 0,0,1
164.432617188 272 m 0,20,21
 164.432617188 290 164.432617188 290 184.349609375 305 c 128,-1,22
 204.267578125 320 204.267578125 320 240.247070312 331.5 c 128,-1,23
 276.227539062 343 276.227539062 343 324.415039062 349 c 128,-1,24
 372.602539062 355 372.602539062 355 427.857421875 355 c 0,25,26
 484.397460938 355 484.397460938 355 532.584960938 349 c 128,-1,27
 580.772460938 343 580.772460938 343 616.110351562 331.5 c 128,-1,28
 651.447265625 320 651.447265625 320 672.0078125 305 c 128,-1,29
 692.567382812 290 692.567382812 290 692.567382812 272 c 0,30,31
 692.567382812 255 692.567382812 255 672.0078125 240 c 128,-1,32
 651.447265625 225 651.447265625 225 616.110351562 214 c 128,-1,33
 580.772460938 203 580.772460938 203 532.584960938 196 c 128,-1,34
 484.397460938 189 484.397460938 189 427.857421875 189 c 0,35,36
 372.602539062 189 372.602539062 189 324.415039062 196 c 128,-1,37
 276.227539062 203 276.227539062 203 240.247070312 214 c 128,-1,38
 204.267578125 225 204.267578125 225 184.349609375 240 c 128,-1,39
 164.432617188 255 164.432617188 255 164.432617188 272 c 0,20,21
164.432617188 461 m 256,40,41
 164.432617188 478 164.432617188 478 184.349609375 493.5 c 128,-1,42
 204.267578125 509 204.267578125 509 240.247070312 520 c 128,-1,43
 276.227539062 531 276.227539062 531 324.415039062 537.5 c 128,-1,44
 372.602539062 544 372.602539062 544 427.857421875 544 c 0,45,46
 484.397460938 544 484.397460938 544 532.584960938 537.5 c 128,-1,47
 580.772460938 531 580.772460938 531 616.110351562 520 c 128,-1,48
 651.447265625 509 651.447265625 509 672.0078125 493.5 c 128,-1,49
 692.567382812 478 692.567382812 478 692.567382812 461 c 256,50,51
 692.567382812 444 692.567382812 444 672.0078125 429 c 128,-1,52
 651.447265625 414 651.447265625 414 616.110351562 402.5 c 128,-1,53
 580.772460938 391 580.772460938 391 532.584960938 384.5 c 128,-1,54
 484.397460938 378 484.397460938 378 427.857421875 378 c 0,55,56
 372.602539062 378 372.602539062 378 324.415039062 384.5 c 128,-1,57
 276.227539062 391 276.227539062 391 240.247070312 402.5 c 128,-1,58
 204.267578125 414 204.267578125 414 184.349609375 429 c 128,-1,59
 164.432617188 444 164.432617188 444 164.432617188 461 c 256,40,41
164.432617188 648 m 256,60,61
 164.432617188 665 164.432617188 665 184.349609375 680.5 c 128,-1,62
 204.267578125 696 204.267578125 696 240.247070312 707 c 128,-1,63
 276.227539062 718 276.227539062 718 324.415039062 724.5 c 128,-1,64
 372.602539062 731 372.602539062 731 427.857421875 731 c 0,65,66
 484.397460938 731 484.397460938 731 532.584960938 724.5 c 128,-1,67
 580.772460938 718 580.772460938 718 616.110351562 707 c 128,-1,68
 651.447265625 696 651.447265625 696 672.0078125 680.5 c 128,-1,69
 692.567382812 665 692.567382812 665 692.567382812 648 c 256,70,71
 692.567382812 631 692.567382812 631 672.0078125 616 c 128,-1,72
 651.447265625 601 651.447265625 601 616.110351562 589.5 c 128,-1,73
 580.772460938 578 580.772460938 578 532.584960938 571.5 c 128,-1,74
 484.397460938 565 484.397460938 565 427.857421875 565 c 0,75,76
 372.602539062 565 372.602539062 565 324.415039062 571.5 c 128,-1,77
 276.227539062 578 276.227539062 578 240.247070312 589.5 c 128,-1,78
 204.267578125 601 204.267578125 601 184.349609375 616 c 128,-1,79
 164.432617188 631 164.432617188 631 164.432617188 648 c 256,60,61
267.232421875 648 m 0,80,81
 267.232421875 637 267.232421875 637 279.440429688 627.5 c 128,-1,82
 291.647460938 618 291.647460938 618 313.4921875 611 c 128,-1,83
 335.337890625 604 335.337890625 604 364.892578125 600 c 128,-1,84
 394.447265625 596 394.447265625 596 427.857421875 596 c 0,85,86
 462.552734375 596 462.552734375 596 491.46484375 600 c 128,-1,87
 520.377929688 604 520.377929688 604 542.22265625 611 c 128,-1,88
 564.067382812 618 564.067382812 618 576.275390625 627.5 c 128,-1,89
 588.482421875 637 588.482421875 637 588.482421875 648 c 0,90,91
 588.482421875 658 588.482421875 658 576.275390625 668 c 128,-1,92
 564.067382812 678 564.067382812 678 542.22265625 685 c 128,-1,93
 520.377929688 692 520.377929688 692 491.46484375 696 c 128,-1,94
 462.552734375 700 462.552734375 700 427.857421875 700 c 0,95,96
 394.447265625 700 394.447265625 700 364.892578125 696 c 128,-1,97
 335.337890625 692 335.337890625 692 313.4921875 685 c 128,-1,98
 291.647460938 678 291.647460938 678 279.440429688 668 c 128,-1,99
 267.232421875 658 267.232421875 658 267.232421875 648 c 0,80,81
EndSplineSet
EndChar

StartChar: uni0088
Encoding: 136 136 105
Width: 856
Flags: W
LayerCount: 2
Fore
SplineSet
164.432617188 85 m 0,0,1
 164.432617188 103 164.432617188 103 184.349609375 118 c 128,-1,2
 204.267578125 133 204.267578125 133 240.247070312 144.5 c 128,-1,3
 276.227539062 156 276.227539062 156 324.415039062 162.5 c 128,-1,4
 372.602539062 169 372.602539062 169 427.857421875 169 c 0,5,6
 484.397460938 169 484.397460938 169 532.584960938 162.5 c 128,-1,7
 580.772460938 156 580.772460938 156 616.110351562 144.5 c 128,-1,8
 651.447265625 133 651.447265625 133 672.0078125 118 c 128,-1,9
 692.567382812 103 692.567382812 103 692.567382812 85 c 0,10,11
 692.567382812 68 692.567382812 68 672.0078125 53 c 128,-1,12
 651.447265625 38 651.447265625 38 616.110351562 27 c 128,-1,13
 580.772460938 16 580.772460938 16 532.584960938 9.5 c 128,-1,14
 484.397460938 3 484.397460938 3 427.857421875 3 c 0,15,16
 372.602539062 3 372.602539062 3 324.415039062 9.5 c 128,-1,17
 276.227539062 16 276.227539062 16 240.247070312 27 c 128,-1,18
 204.267578125 38 204.267578125 38 184.349609375 53 c 128,-1,19
 164.432617188 68 164.432617188 68 164.432617188 85 c 0,0,1
267.232421875 85 m 256,20,21
 267.232421875 74 267.232421875 74 279.440429688 64.5 c 128,-1,22
 291.647460938 55 291.647460938 55 313.4921875 48.5 c 128,-1,23
 335.337890625 42 335.337890625 42 364.892578125 38 c 128,-1,24
 394.447265625 34 394.447265625 34 427.857421875 34 c 0,25,26
 462.552734375 34 462.552734375 34 491.46484375 38 c 128,-1,27
 520.377929688 42 520.377929688 42 542.22265625 48.5 c 128,-1,28
 564.067382812 55 564.067382812 55 576.275390625 64.5 c 128,-1,29
 588.482421875 74 588.482421875 74 588.482421875 85 c 256,30,31
 588.482421875 96 588.482421875 96 576.275390625 105.5 c 128,-1,32
 564.067382812 115 564.067382812 115 542.22265625 122 c 128,-1,33
 520.377929688 129 520.377929688 129 491.46484375 133 c 128,-1,34
 462.552734375 137 462.552734375 137 427.857421875 137 c 0,35,36
 394.447265625 137 394.447265625 137 364.892578125 133 c 128,-1,37
 335.337890625 129 335.337890625 129 313.4921875 122 c 128,-1,38
 291.647460938 115 291.647460938 115 279.440429688 105.5 c 128,-1,39
 267.232421875 96 267.232421875 96 267.232421875 85 c 256,20,21
164.432617188 272 m 0,40,41
 164.432617188 290 164.432617188 290 184.349609375 305 c 128,-1,42
 204.267578125 320 204.267578125 320 240.247070312 331.5 c 128,-1,43
 276.227539062 343 276.227539062 343 324.415039062 349 c 128,-1,44
 372.602539062 355 372.602539062 355 427.857421875 355 c 0,45,46
 484.397460938 355 484.397460938 355 532.584960938 349 c 128,-1,47
 580.772460938 343 580.772460938 343 616.110351562 331.5 c 128,-1,48
 651.447265625 320 651.447265625 320 672.0078125 305 c 128,-1,49
 692.567382812 290 692.567382812 290 692.567382812 272 c 0,50,51
 692.567382812 255 692.567382812 255 672.0078125 240 c 128,-1,52
 651.447265625 225 651.447265625 225 616.110351562 214 c 128,-1,53
 580.772460938 203 580.772460938 203 532.584960938 196 c 128,-1,54
 484.397460938 189 484.397460938 189 427.857421875 189 c 0,55,56
 372.602539062 189 372.602539062 189 324.415039062 196 c 128,-1,57
 276.227539062 203 276.227539062 203 240.247070312 214 c 128,-1,58
 204.267578125 225 204.267578125 225 184.349609375 240 c 128,-1,59
 164.432617188 255 164.432617188 255 164.432617188 272 c 0,40,41
267.232421875 272 m 256,60,61
 267.232421875 261 267.232421875 261 279.440429688 251.5 c 128,-1,62
 291.647460938 242 291.647460938 242 313.4921875 235 c 128,-1,63
 335.337890625 228 335.337890625 228 364.892578125 224 c 128,-1,64
 394.447265625 220 394.447265625 220 427.857421875 220 c 0,65,66
 462.552734375 220 462.552734375 220 491.46484375 224 c 128,-1,67
 520.377929688 228 520.377929688 228 542.22265625 235 c 128,-1,68
 564.067382812 242 564.067382812 242 576.275390625 251.5 c 128,-1,69
 588.482421875 261 588.482421875 261 588.482421875 272 c 256,70,71
 588.482421875 283 588.482421875 283 576.275390625 292.5 c 128,-1,72
 564.067382812 302 564.067382812 302 542.22265625 309 c 128,-1,73
 520.377929688 316 520.377929688 316 491.46484375 320 c 128,-1,74
 462.552734375 324 462.552734375 324 427.857421875 324 c 0,75,76
 394.447265625 324 394.447265625 324 364.892578125 320 c 128,-1,77
 335.337890625 316 335.337890625 316 313.4921875 309 c 128,-1,78
 291.647460938 302 291.647460938 302 279.440429688 292.5 c 128,-1,79
 267.232421875 283 267.232421875 283 267.232421875 272 c 256,60,61
164.432617188 461 m 256,80,81
 164.432617188 478 164.432617188 478 184.349609375 493.5 c 128,-1,82
 204.267578125 509 204.267578125 509 240.247070312 520 c 128,-1,83
 276.227539062 531 276.227539062 531 324.415039062 537.5 c 128,-1,84
 372.602539062 544 372.602539062 544 427.857421875 544 c 0,85,86
 484.397460938 544 484.397460938 544 532.584960938 537.5 c 128,-1,87
 580.772460938 531 580.772460938 531 616.110351562 520 c 128,-1,88
 651.447265625 509 651.447265625 509 672.0078125 493.5 c 128,-1,89
 692.567382812 478 692.567382812 478 692.567382812 461 c 256,90,91
 692.567382812 444 692.567382812 444 672.0078125 429 c 128,-1,92
 651.447265625 414 651.447265625 414 616.110351562 402.5 c 128,-1,93
 580.772460938 391 580.772460938 391 532.584960938 384.5 c 128,-1,94
 484.397460938 378 484.397460938 378 427.857421875 378 c 0,95,96
 372.602539062 378 372.602539062 378 324.415039062 384.5 c 128,-1,97
 276.227539062 391 276.227539062 391 240.247070312 402.5 c 128,-1,98
 204.267578125 414 204.267578125 414 184.349609375 429 c 128,-1,99
 164.432617188 444 164.432617188 444 164.432617188 461 c 256,80,81
267.232421875 461 m 256,100,101
 267.232421875 450 267.232421875 450 279.440429688 440.5 c 128,-1,102
 291.647460938 431 291.647460938 431 313.4921875 424 c 128,-1,103
 335.337890625 417 335.337890625 417 364.892578125 413 c 128,-1,104
 394.447265625 409 394.447265625 409 427.857421875 409 c 0,105,106
 462.552734375 409 462.552734375 409 491.46484375 413 c 128,-1,107
 520.377929688 417 520.377929688 417 542.22265625 424 c 128,-1,108
 564.067382812 431 564.067382812 431 576.275390625 440.5 c 128,-1,109
 588.482421875 450 588.482421875 450 588.482421875 461 c 256,110,111
 588.482421875 472 588.482421875 472 576.275390625 481.5 c 128,-1,112
 564.067382812 491 564.067382812 491 542.22265625 498 c 128,-1,113
 520.377929688 505 520.377929688 505 491.46484375 509 c 128,-1,114
 462.552734375 513 462.552734375 513 427.857421875 513 c 0,115,116
 394.447265625 513 394.447265625 513 364.892578125 509 c 128,-1,117
 335.337890625 505 335.337890625 505 313.4921875 498 c 128,-1,118
 291.647460938 491 291.647460938 491 279.440429688 481.5 c 128,-1,119
 267.232421875 472 267.232421875 472 267.232421875 461 c 256,100,101
164.432617188 648 m 256,120,121
 164.432617188 665 164.432617188 665 184.349609375 680.5 c 128,-1,122
 204.267578125 696 204.267578125 696 240.247070312 707 c 128,-1,123
 276.227539062 718 276.227539062 718 324.415039062 724.5 c 128,-1,124
 372.602539062 731 372.602539062 731 427.857421875 731 c 0,125,126
 484.397460938 731 484.397460938 731 532.584960938 724.5 c 128,-1,127
 580.772460938 718 580.772460938 718 616.110351562 707 c 128,-1,128
 651.447265625 696 651.447265625 696 672.0078125 680.5 c 128,-1,129
 692.567382812 665 692.567382812 665 692.567382812 648 c 256,130,131
 692.567382812 631 692.567382812 631 672.0078125 616 c 128,-1,132
 651.447265625 601 651.447265625 601 616.110351562 589.5 c 128,-1,133
 580.772460938 578 580.772460938 578 532.584960938 571.5 c 128,-1,134
 484.397460938 565 484.397460938 565 427.857421875 565 c 0,135,136
 372.602539062 565 372.602539062 565 324.415039062 571.5 c 128,-1,137
 276.227539062 578 276.227539062 578 240.247070312 589.5 c 128,-1,138
 204.267578125 601 204.267578125 601 184.349609375 616 c 128,-1,139
 164.432617188 631 164.432617188 631 164.432617188 648 c 256,120,121
EndSplineSet
EndChar

